<?xml version="1.0" encoding="UTF-8"?>
<svg width="74px" height="74px" viewBox="0 0 74 74" version="1.1" xmlns="http://www.w3.org/2000/svg" xmlns:xlink="http://www.w3.org/1999/xlink">
    <!-- Generator: Sketch 53.2 (72643) - https://sketchapp.com -->
    <title>logo</title>
    <desc>Created with Sketch.</desc>
    <defs>
        <linearGradient x1="19.3080357%" y1="12.8720238%" x2="80.8673469%" y2="91.4275085%" id="linearGradient-1">
            <stop stop-color="#03ACFA" offset="0%"></stop>
            <stop stop-color="#2543E0" offset="100%"></stop>
        </linearGradient>
        <filter x="-27.9%" y="-23.1%" width="155.8%" height="146.2%" filterUnits="objectBoundingBox" id="filter-2">
            <feOffset dx="0" dy="2" in="SourceAlpha" result="shadowOffsetOuter1"></feOffset>
            <feGaussianBlur stdDeviation="2" in="shadowOffsetOuter1" result="shadowBlurOuter1"></feGaussianBlur>
            <feColorMatrix values="0 0 0 0 0.180392157   0 0 0 0 0.184313725   0 0 0 0 0.333333333  0 0 0 0.2 0" type="matrix" in="shadowBlurOuter1" result="shadowMatrixOuter1"></feColorMatrix>
            <feMerge>
                <feMergeNode in="shadowMatrixOuter1"></feMergeNode>
                <feMergeNode in="SourceGraphic"></feMergeNode>
            </feMerge>
        </filter>
        <linearGradient x1="100%" y1="100%" x2="0%" y2="0%" id="linearGradient-3">
            <stop stop-color="#DDDEFF" offset="0%"></stop>
            <stop stop-color="#F2F4FF" offset="100%"></stop>
        </linearGradient>
        <linearGradient x1="103.732607%" y1="133.128005%" x2="42.8723787%" y2="0%" id="linearGradient-4">
            <stop stop-color="#DDF2FF" offset="0%"></stop>
            <stop stop-color="#F2FCFF" offset="100%"></stop>
        </linearGradient>
    </defs>
    <g id="Page-1" stroke="none" stroke-width="1" fill="none" fill-rule="evenodd">
        <g id="class" transform="translate(-196.000000, -1938.000000)" fill-rule="nonzero">
            <g id="path" transform="translate(100.000000, 1354.000000)">
                <g id="ai" transform="translate(0.000000, 537.000000)">
                    <g id="logo" transform="translate(91.000000, 42.000000)">
                        <rect id="Rectangle" fill="#000000" opacity="0" x="0" y="0" width="84" height="84"></rect>
                        <path d="M41.75,78.5 C21.4535354,78.5 5,62.0464646 5,41.75 C5,21.4535354 21.4535354,5 41.75,5 C62.0464646,5 78.5,21.4535354 78.5,41.75 C78.5,62.0464646 62.0464646,78.5 41.75,78.5 Z" id="Path" fill="url(#linearGradient-1)"></path>
                        <g id="ai" filter="url(#filter-2)" transform="translate(21.000000, 16.000000)">
                            <path d="M19.5,18 C18.6724552,18 18,18.6723552 18,19.5 C18,20.3276448 18.6723552,21 19.5,21 C20.3276448,21 21,20.3275448 21,19.5 C21,18.6724552 20.3276448,18 19.5,18 Z" id="Path" fill="url(#linearGradient-3)"></path>
                            <path d="M42.8376096,31.3083731 C42.6548717,30.823006 39.9173858,26.5591088 39.9282374,19.8032748 C39.9282374,8.06346565 29.633591,-1.25854731 17.5513888,0.13905385 C8.86964773,1.15071762 1.59319724,8.08387971 0.2509692,16.6238616 C-0.750762276,22.9960942 1.275223,29.2463502 5.81029736,33.7707552 C8.0058143,35.9593249 9.21454639,38.7206053 9.21454639,41.5429249 L9.21454639,50.4764614 C9.21454639,51.3185158 9.90137485,52 10.7502617,52 L29.1784353,52 C30.0272198,52 30.7141506,51.3186174 30.7141506,50.4764614 L30.7141506,45.7028221 L35.321194,45.7028221 C36.1699784,45.7028221 36.8569093,45.0214395 36.8569093,44.1792835 L36.8569093,33.5147162 L41.4638503,33.5147162 C41.9961961,33.5147162 42.491073,33.2410053 42.770145,32.791693 C43.0505479,32.3423806 43.0760391,31.7814511 42.8376096,31.3083731 Z M32.2497635,21.3267119 L30.5588489,21.3267119 C30.2960544,23.1245707 29.5947912,24.7681562 28.543613,26.1601714 L29.7377055,27.3448977 C30.3375159,27.9399522 30.3375159,28.9041863 29.7377055,29.4992408 C29.1378951,30.0942953 28.1659546,30.0942953 27.5661442,29.4992408 L26.3719492,28.3146161 C24.9688085,29.357358 23.312087,30.0531625 21.499859,30.3138734 L21.499859,31.9913807 C21.499859,32.8334352 20.8130305,33.5149193 19.9641437,33.5149193 C19.1152569,33.5149193 18.4284285,32.8335367 18.4284285,31.9913807 L18.4284285,30.3138734 C16.6162005,30.0531625 14.9593766,29.3574596 13.5563383,28.3146161 L12.3622457,29.4992408 C11.7624353,30.0942953 10.7904947,30.0942953 10.1906843,29.4992408 C9.59087392,28.9041863 9.59087392,27.9399522 10.1906843,27.3448977 L11.3848793,26.1601714 C10.3338034,24.7681562 9.63243784,23.1245707 9.36964329,21.3267119 L7.67872875,21.3267119 C6.82994432,21.3267119 6.14301349,20.6453293 6.14301349,19.8031732 C6.14301349,18.9610172 6.82984194,18.2796346 7.67872875,18.2796346 L9.36964329,18.2796346 C9.63243784,16.4817758 10.3337011,14.8380887 11.3848793,13.4461751 L10.1906843,12.2615504 C9.59087392,11.6664959 9.59087392,10.7022618 10.1906843,10.1072073 C10.7904947,9.51215274 11.7624353,9.51215274 12.3622457,10.1072073 L13.5563383,11.2919335 C14.959479,10.2491916 16.6162005,9.5533871 18.4284285,9.29267624 L18.4284285,7.61516891 C18.4284285,6.77311446 19.1152569,6.09163028 19.9641437,6.09163028 C20.8130305,6.09163028 21.5000638,6.7730129 21.5000638,7.61516891 L21.5000638,9.29267624 C23.3122917,9.5533871 24.9690133,10.24909 26.372154,11.2919335 L27.5663489,10.1072073 C28.1661593,9.51215274 29.1380999,9.51215274 29.7379103,10.1072073 C30.3377207,10.7022618 30.3377207,11.6664959 29.7379103,12.2615504 L28.5438177,13.4461751 C29.5948935,14.8381903 30.2962591,16.4817758 30.5590537,18.2796346 L32.2499682,18.2796346 C33.0987527,18.2796346 33.7856835,18.9610172 33.7856835,19.8031732 C33.7854787,20.6452277 33.0986503,21.3267119 32.2497635,21.3267119 Z" id="Shape" fill="url(#linearGradient-4)"></path>
                            <path d="M19.5,12 C15.3646654,12 12,15.3647654 12,19.5 C12,23.6352346 15.3646654,27 19.5,27 C23.6353346,27 27,23.6353346 27,19.5 C27,15.3646654 23.6353346,12 19.5,12 Z M19.5,24.00002 C17.0185993,24.00002 14.99998,21.9814007 14.99998,19.5 C14.99998,17.0185993 17.0185993,14.99998 19.5,14.99998 C21.9814007,14.99998 24.00002,17.0185993 24.00002,19.5 C24.00002,21.9814007 21.9815007,24.00002 19.5,24.00002 Z" id="Shape" fill="url(#linearGradient-3)"></path>
                        </g>
                    </g>
                </g>
            </g>
        </g>
    </g>
</svg>