<?xml version="1.0" encoding="UTF-8"?>
<svg width="74px" height="74px" viewBox="0 0 74 74" version="1.1" xmlns="http://www.w3.org/2000/svg" xmlns:xlink="http://www.w3.org/1999/xlink">
    <!-- Generator: Sketch 53.2 (72643) - https://sketchapp.com -->
    <title>Andriod</title>
    <desc>Created with Sketch.</desc>
    <defs>
        <linearGradient x1="19.3080357%" y1="12.8720238%" x2="80.8673469%" y2="91.4275085%" id="linearGradient-1">
            <stop stop-color="#03ACFA" offset="0%"></stop>
            <stop stop-color="#2543E0" offset="100%"></stop>
        </linearGradient>
        <linearGradient x1="39.5764803%" y1="100%" x2="39.5764803%" y2="0%" id="linearGradient-2">
            <stop stop-color="#DDF2FF" offset="0%"></stop>
            <stop stop-color="#F2FCFF" offset="100%"></stop>
        </linearGradient>
        <path d="M9.08923891,33.5957205 C9.08923891,36.7776033 11.9566774,39.3574323 14.8782184,39.3574323 L14.8782184,45.1191441 C14.8782184,46.7087871 16.2088181,48 17.7997595,48 C19.3907009,48 20.7213006,46.708787 20.7213006,45.1191441 L20.7213006,39.421598 L26.3479723,39.421598 L26.3479723,45.1191441 C26.3479723,46.7087871 27.678572,48 29.2695134,48 C30.8602925,48 32.1910545,46.708787 32.1910545,45.1191441 L32.1910544,39.3573782 C37.9800339,39.3573782 37.9800339,36.7776034 37.9800339,33.5956664 L37.9800339,18.1592172 L9.08923891,18.1592172 L9.08923891,33.5957205 Z M43.200936,19.1914951 C41.6101569,19.1914951 40.3064462,20.4801111 40.3064462,22.072351 L40.3064462,33.5957205 C40.3064462,35.1853635 41.6101569,36.4765764 43.200936,36.4765764 C44.7917152,36.4765764 46.0954258,35.1853634 46.0954258,33.5957205 L46.0954258,22.072351 C46.0954258,20.480057 44.7917151,19.1914951 43.200936,19.1914951 Z M2.89448978,19.1914951 C1.30354837,19.1914951 0,20.4801111 0,22.072351 L0,33.5957205 C0,35.1853635 1.30354837,36.4765764 2.89448978,36.4765764 C4.4854312,36.4765764 5.78897956,35.1853634 5.78897956,33.5957205 L5.78897956,22.072351 C5.78897956,20.480057 4.4854312,19.1914951 2.89448978,19.1914951 Z M37.8853543,14.5586343 C37.8853543,11.1067794 36.0557663,8.062209 33.3188775,6.3448839 L33.3188775,0 L30.3395007,0 L30.3395007,5.10993763 C29.9884289,5.02981169 29.6303778,4.96856751 29.2663213,4.92804467 C29.2465738,4.54629661 28.7671165,3.43730129 27.6983194,3.43730129 L19.1140202,3.43730129 C18.0407326,3.43730129 17.6652604,4.55874024 17.6537907,4.9343206 C17.3746753,4.96699858 17.099293,5.01217428 16.827752,5.06827866 L16.827752,0 L13.8483752,0 L13.8483752,6.2270484 C11.0049583,7.92056839 9.08923891,11.0263829 9.08923891,14.5586343 L9.08923891,15.1594979 L37.8854084,15.1594979 L37.8854084,14.5586343 L37.8853543,14.5586343 Z M16.7838206,10.6660054 L13.8923065,10.6660054 L13.8923065,7.77449127 L16.7838206,7.77449127 L16.7838206,10.6660054 Z M33.2310148,10.5428138 L30.3395007,10.5428138 L30.3395007,7.66807145 L33.2310148,7.66807145 L33.2310148,10.5428138 Z" id="path-3"></path>
        <filter x="-15.2%" y="-10.4%" width="130.4%" height="129.2%" filterUnits="objectBoundingBox" id="filter-4">
            <feOffset dx="0" dy="2" in="SourceAlpha" result="shadowOffsetOuter1"></feOffset>
            <feGaussianBlur stdDeviation="2" in="shadowOffsetOuter1" result="shadowBlurOuter1"></feGaussianBlur>
            <feColorMatrix values="0 0 0 0 0.180392157   0 0 0 0 0.184313725   0 0 0 0 0.333333333  0 0 0 0.2 0" type="matrix" in="shadowBlurOuter1"></feColorMatrix>
        </filter>
    </defs>
    <g id="Page-1" stroke="none" stroke-width="1" fill="none" fill-rule="evenodd">
        <g id="class" transform="translate(-1131.000000, -1938.000000)" fill-rule="nonzero">
            <g id="path" transform="translate(100.000000, 1354.000000)">
                <g id="andriod" transform="translate(935.000000, 537.000000)">
                    <g id="Andriod" transform="translate(91.000000, 42.000000)">
                        <rect id="Rectangle" fill="#000000" opacity="0" x="0" y="0" width="84" height="84"></rect>
                        <path d="M41.75,78.5 C21.4535354,78.5 5,62.0464646 5,41.75 C5,21.4535354 21.4535354,5 41.75,5 C62.0464646,5 78.5,21.4535354 78.5,41.75 C78.5,62.0464646 62.0464646,78.5 41.75,78.5 Z" id="Path" fill="url(#linearGradient-1)"></path>
                        <g id="安卓" transform="translate(19.000000, 18.000000)">
                            <g id="Shape">
                                <use fill="black" fill-opacity="1" filter="url(#filter-4)" xlink:href="#path-3"></use>
                                <use fill="url(#linearGradient-2)" xlink:href="#path-3"></use>
                            </g>
                        </g>
                    </g>
                </g>
            </g>
        </g>
    </g>
</svg>