<?xml version="1.0" encoding="UTF-8"?>
<svg width="81px" height="81px" viewBox="0 0 81 81" version="1.1" xmlns="http://www.w3.org/2000/svg" xmlns:xlink="http://www.w3.org/1999/xlink">
    <!-- Generator: Sketch 53.2 (72643) - https://sketchapp.com -->
    <title>cam</title>
    <desc>Created with Sketch.</desc>
    <g id="Page-1" stroke="none" stroke-width="1" fill="none" fill-rule="evenodd">
        <g id="class" transform="translate(-1127.000000, -919.000000)" fill-rule="nonzero">
            <g id="path" transform="translate(100.000000, 713.000000)">
                <g id="2" transform="translate(935.000000, 167.000000)">
                    <g id="cam" transform="translate(92.000000, 39.000000)">
                        <path d="M40.5001582,80.9998418 C62.8066406,80.9998418 81,62.8064824 81,40.4998418 C81,18.1935176 62.8066406,0.000158203125 40.5001582,0.000158203125 C18.1935176,0.000158203125 0,18.1935176 0,40.4998418 C0,62.8064824 18.1935176,80.9998418 40.5001582,80.9998418 Z" id="Path" fill="#A0A6EE"></path>
                        <path d="M36.8907539,28.7054824 L74.4298242,28.7054824 C75.6282129,28.7054824 76.6090723,29.6863418 76.6090723,30.8850469 L76.6090723,51.6322793 C76.6090723,52.8309844 75.6282129,53.8115273 74.4298242,53.8115273 L36.8907539,53.8115273 C35.6920488,53.8115273 34.7111895,52.8309844 34.7111895,51.6322793 L34.7111895,30.8850469 C34.7111895,29.6863418 35.6920488,28.7054824 36.8907539,28.7054824 Z" id="Path" fill="#666666"></path>
                        <polygon id="Path" fill="#FFFFFF" points="36.7597617 30.3359238 74.5609746 30.3359238 74.5609746 52.1815605 36.7597617 52.1815605"></polygon>
                        <path d="M44.2161914,53.8116855 L46.9676602,53.8116855 L46.9676602,54.8116855 L44.2161914,54.8116855 L44.2161914,53.8116855 Z M64.3532344,53.8116855 L64.3532344,53.8116855 L67.1045449,53.8116855 L67.1045449,54.8116855 L64.3532344,54.8116855 L64.3532344,53.8116855 Z" id="Shape" fill="#666666"></path>
                        <polygon id="Path" fill="#F0B97D" points="60.6166348 36.8701875 59.5109531 36.8701875 56.1568887 36.8701875 55.0510488 36.8701875 54.6000117 41.5605938 53.7996621 42.2032148 52.1106855 43.2783633 55.8797168 52.181877 59.7876504 52.181877 63.5571562 43.2783633 61.8681797 42.2032148 61.0671973 41.5610684"></polygon>
                        <polygon id="Path" fill="#ECF0F1" points="62.4530566 42.5503125 67.0661016 44.0223926 61.1693965 52.181877 55.0880684 52.181877 49.9790566 43.5938203 53.2383574 42.5607539 56.1084785 44.5867031 59.5492383 44.5867031"></polygon>
                        <polygon id="Path" fill="#FF5B61" points="58.8635859 44.4011309 58.4690273 45.3736055 59.0075508 52.181877 56.6591836 52.181877 57.197707 45.3736055 56.8031484 44.4011309 57.833209 44.3596816"></polygon>
                        <path d="M62.3736387,42.525 L70.533123,45.1296563 C70.533123,45.1296563 71.5894453,45.6784629 71.9082246,47.3490879 C72.1849219,48.7979121 72.3404355,50.2766367 72.5468906,52.1820352 L59.1293672,52.1820352 L62.3736387,42.525 Z M43.120002,52.181877 L43.120002,52.181877 C43.326457,50.2761621 43.4821289,48.7977539 43.7593008,47.3489297 C44.0777637,45.6783047 45.1340859,45.129498 45.1340859,45.129498 L53.2381992,42.5607539 L56.5190156,52.181877 L43.120002,52.181877 L43.120002,52.181877 Z" id="Shape" fill="#15BDB1"></path>
                        <path d="M62.3736387,42.525 L64.1338066,43.0869375 L64.4720449,47.5526953 C64.4720449,47.5526953 64.3785469,47.9198848 64.099002,47.8866621 L62.5108008,48.4838789 C62.5108008,48.4838789 62.4070195,48.5879766 62.4997266,48.7194434 L63.859166,49.6509434 L62.5163379,52.1820352 L59.129209,52.1820352 L62.3736387,42.525 L62.3736387,42.525 Z M53.1511875,52.181877 L53.1511875,52.181877 L51.8082012,49.6507852 L53.1674824,48.7192852 C53.2603477,48.5878184 53.1564082,48.4837207 53.1564082,48.4837207 L51.568207,47.8865039 C51.2886621,47.9197266 51.1956387,47.5525371 51.1956387,47.5525371 L51.5326113,43.1011758 L53.2383574,42.5607539 L56.5191738,52.181877 L53.1511875,52.181877 L53.1511875,52.181877 Z" id="Shape" fill="#20D0C2"></path>
                        <path d="M64.3154238,27.3310137 C64.3154238,27.7668633 64.474418,28.1935371 64.4627109,28.6118262 C65.9539336,28.3352871 65.2339512,32.7651328 64.3897793,33.3742148 C64.3231758,33.4227832 64.1578535,33.3145723 64.018793,33.2259785 C63.7262754,34.8549961 61.228248,39.2092207 59.6395723,41.0416875 C59.1983437,41.5504688 56.5008223,41.5417676 56.0643398,41.0608301 C54.4376953,39.2702871 51.9423574,34.8643301 51.6480996,33.2259785 C51.5090391,33.3145723 51.343875,33.4227832 51.2769551,33.3742148 C50.4332578,32.7651328 49.7128008,28.3352871 51.2046562,28.6118262 C51.1924746,28.1935371 51.351627,27.7668633 51.351627,27.3310137 C51.4343672,23.8908867 54.5512852,22.1734336 57.8335254,22.1587207 C61.1157656,22.1735918 64.233,23.8908867 64.3154238,27.3310137 Z" id="Path" fill="#FED198"></path>
                        <path d="M62.3168437,22.9211016 C62.7871816,22.8665215 64.4859668,23.3870098 64.6898906,25.1843555 C64.8941309,26.9820176 64.7968359,28.6384043 64.7968359,28.6384043 C64.7968359,28.6384043 63.8012637,28.8896309 63.6759668,29.9097246 C63.5508281,30.9301348 63.6402129,30.9301348 63.6402129,30.9301348 L63.2795098,30.8489766 L63.0229043,29.0998828 C61.5335801,28.166959 63.0342949,26.7845801 61.5444961,26.4610547 C57.5220234,29.3280117 53.9727363,28.8372656 52.3723535,27.488584 C52.3723535,27.488584 52.7458711,28.899123 52.4579414,29.402209 C52.1696953,29.9051367 52.3418203,30.6978926 52.3418203,30.6978926 L51.9675117,30.6800156 C51.9675117,30.6800156 52.0352227,28.602334 51.2049727,28.611668 C48.0488203,23.401248 58.0391895,16.9291582 62.3168437,22.9211016 L62.3168437,22.9211016 Z" id="Path" fill="#666666"></path>
                        <g id="Group" transform="translate(53.156250, 40.816406)" fill="#FFFFFF">
                            <path d="M7.94939062,0.0745136719 C7.83279492,0.0827402344 9.31167773,1.75099219 9.31167773,1.75099219 L8.05301367,6.06186914 L4.67743359,3.54327539 C6.53410547,2.6323418 7.64200195,1.45230469 7.94939062,0.0745136719 L7.94939062,0.0745136719 Z" id="Path"></path>
                            <path d="M1.40484375,0.0745136719 C1.52143945,0.0827402344 0.0427148437,1.75099219 0.0427148437,1.75099219 L1.30185352,6.06186914 L4.67743359,3.54327539 C2.82060352,2.6323418 1.71239063,1.45230469 1.40484375,0.0745136719 L1.40484375,0.0745136719 Z" id="Path"></path>
                        </g>
                        <path d="M65.1072305,29.5332012 C65.8131328,26.0109668 64.4483145,23.5498008 62.3052949,22.1851406 C60.9781289,21.3398613 59.351959,20.908916 57.7310098,20.9017969 C56.1116426,20.8943613 54.4998691,21.3096445 53.1988066,22.1565059 C51.1364707,23.4991758 49.8548672,25.9445215 50.5737422,29.5333594 L50.025252,29.6426777 C49.2529043,25.7896406 50.6518945,23.1492305 52.895373,21.6890156 C54.2889844,20.7817207 56.0092852,20.3368535 57.7332246,20.3446055 C59.455582,20.3521992 61.1867988,20.8122539 62.604457,21.7152773 C64.930834,23.196375 66.4150957,25.8541875 65.6558789,29.6426777 L65.1072305,29.5332012 L65.1072305,29.5332012 Z" id="Path" fill="#FF757C"></path>
                        <path d="M50.5792793,28.9014961 C50.2388262,28.9412051 49.9929785,29.2522324 50.0330039,29.5928438 L50.5180547,33.7281152 C50.5580801,34.0685684 50.8689492,34.314416 51.2094023,34.2743906 C51.5498555,34.2345234 51.7957031,33.9234961 51.7556777,33.5828848 L51.270627,29.4476133 C51.230918,29.1073184 50.9198906,28.8616289 50.5792793,28.9014961 Z" id="Path" fill="#807D7D"></path>
                        <path d="M49.4305664,29.6754258 L50.0344277,29.604709 L50.5080879,33.643002 L49.8999551,33.714668 C49.5699434,33.7532695 49.2685664,33.5151738 49.230123,33.1853203 L48.8974219,30.3504785 C48.8585039,30.0179355 49.0983398,29.714502 49.4305664,29.6754258 Z" id="Path" fill="#FF757C"></path>
                        <path d="M65.0877715,28.9014961 C65.4282246,28.9412051 65.6740723,29.2522324 65.6337305,29.5928438 L65.1488379,33.7281152 C65.1089707,34.0685684 64.7979434,34.314416 64.457332,34.2743906 C64.1168789,34.2345234 63.8711895,33.9234961 63.911373,33.5828848 L64.3964238,29.4476133 C64.436291,29.1073184 64.7473184,28.8616289 65.0877715,28.9014961 L65.0877715,28.9014961 Z" id="Path" fill="#807D7D"></path>
                        <g id="Group" transform="translate(59.009766, 29.583984)" fill="#FF757C">
                            <path d="M7.22703516,0.0914414063 L6.62285742,0.0207246094 L6.14919727,4.05901758 L6.75748828,4.13068359 C7.0875,4.16928516 7.38871875,3.93118945 7.42732031,3.60133594 L7.75986328,0.766494141 C7.79893945,0.433951172 7.55894531,0.130517578 7.22703516,0.0914414063 L7.22703516,0.0914414063 Z" id="Path"></path>
                            <path d="M6.39615234,3.71698242 C5.9992207,5.47398633 4.94796094,6.79260938 3.5791875,7.66430859 C2.56289063,8.31151758 1.37162109,8.71572656 0.141433594,8.87313867 L0.141433594,9.43444336 C1.47587695,9.27355078 2.77282617,8.83865039 3.87882422,8.13448828 C5.40374414,7.1634375 6.56685352,5.68661133 6.97327734,3.71714062 L6.39615234,3.71698242 L6.39615234,3.71698242 Z" id="Path"></path>
                        </g>
                        <path d="M57.5585684,37.9428047 L59.4579551,37.9428047 C59.5936934,37.9428047 59.7049102,38.0535469 59.7049102,38.1894434 L59.7049102,39.1763145 C59.7049102,39.3118945 59.5938516,39.4229531 59.4579551,39.4229531 L57.5585684,39.4229531 C57.4226719,39.4229531 57.3119297,39.3118945 57.3119297,39.1763145 L57.3119297,38.1894434 C57.3119297,38.0537051 57.4226719,37.9428047 57.5585684,37.9428047 Z" id="Path" fill="#666666"></path>
                        <path d="M34.2226582,54.6556992 L79.8326191,54.6556992 L79.8326191,56.1977051 C79.8326191,57.045832 79.0635937,57.7393945 78.1232344,57.7393945 L35.9318848,57.7393945 C34.9916836,57.7393945 34.2226582,57.045832 34.2226582,56.1977051 L34.2226582,54.6556992 L34.2226582,54.6556992 Z" id="Path" fill="#807D7D"></path>
                        <path d="M34.3696289,56.8218164 L79.6856484,56.8218164 C79.4184434,57.3612891 78.8174297,57.7395527 78.1232344,57.7395527 L35.9318848,57.7395527 C35.2378477,57.7393945 34.636834,57.3612891 34.3696289,56.8218164 Z" id="Path" fill="#666666"></path>
                        <path d="M15.3678516,21.6847441 C15.3678516,22.4922129 15.0734355,27.1614199 15.095584,27.9359824 C12.3328828,27.4237207 14.2219863,35.6303496 15.7839258,36.7564395 C15.9060586,36.8450332 16.2136055,36.6460137 16.4714766,36.4821152 C16.8816973,38.7679922 19.0827773,41.7241758 21.6731953,44.4990586 L20.5947246,53.5421074 L27.3778418,53.1318867 L34.1611172,53.5421074 L33.0851777,44.5199414 C35.6925234,41.7637266 37.8644941,38.7692578 38.2751895,36.4822734 C38.5332188,36.6461719 38.8398164,36.8451914 38.9624238,36.7565977 C40.5248379,35.630666 42.4133086,27.4238789 39.651082,27.9361406 C39.6729141,27.1615781 39.378498,22.4923711 39.378498,21.6849023 C39.225832,15.3137461 33.4525254,12.1327559 27.3730957,12.1057031 C21.2942988,12.1325977 15.520834,15.3135879 15.3678516,21.6847441 L15.3678516,21.6847441 Z" id="Path" fill="#FED198"></path>
                        <polygon id="Path" fill="#CCCCCC" points="18.8176289 51.3826348 10.2737109 54.1098984 27.3729375 77.770916 41.9212969 53.3157188 35.8844238 51.4024102 30.5687988 55.1549883 24.1959023 55.1549883"></polygon>
                        <path d="M25.4656406,54.8107383 L26.1959063,56.6126719 L24.572584,77.1458555 L26.2218516,78.4081582 C26.7423398,78.6041719 27.2672578,78.7897441 27.7975547,78.9650332 L30.1742402,77.1458555 L28.550918,56.6126719 L29.2811836,54.8107383 L27.3732539,54.7348008 L25.4656406,54.8107383 L25.4656406,54.8107383 Z" id="Path" fill="#0E5E9A"></path>
                        <path d="M18.964125,51.3364395 L3.85192969,56.1597363 C3.85192969,56.1597363 3.62759766,56.2766484 3.30818555,56.5508145 C9.52366992,70.933377 23.8351992,80.9996836 40.5,80.9996836 C46.0666934,80.9996836 51.3707695,79.8754922 56.1986543,77.8438477 C55.0790508,70.367168 53.7771973,62.0304961 53.4411738,60.2704863 C52.8629414,57.2421621 50.8942617,56.1597363 50.8942617,56.1597363 L35.8847402,51.4024102 C30.184207,48.6697676 24.5396777,48.4462266 18.964125,51.3364395 L18.964125,51.3364395 Z" id="Path" fill="#595A8F"></path>
                        <path d="M21.6798398,46.1241211 C19.6217754,47.0931152 19.781877,48.0872637 19.781877,48.0872637 L19.5494766,51.0880605 C24.4384277,48.6585352 30.3074473,48.6582188 35.1970313,51.0880605 L34.9646309,48.0872637 C34.9646309,48.0872637 35.0699941,47.2016426 33.0669844,46.1241211 C30.2364141,44.601416 25.029,44.5466777 21.6798398,46.1241211 Z" id="Path" fill="#FFFFFF"></path>
                        <path d="M18.9979805,13.9664883 C16.0128457,16.1428887 12.3214922,18.8872383 13.6614727,23.1408457 L16.3756055,31.7603848 C17.6084824,35.6760703 17.7905742,42.7988496 23.5667285,42.726709 L27.3800566,42.6789316 L31.1933848,42.726709 C36.9695391,42.7988496 37.1516309,35.6767031 38.384666,31.7603848 L41.098957,23.1408457 C42.4384629,18.8867637 38.7466348,16.1428887 35.7619746,13.9664883 C32.3583926,11.4855469 22.4018789,11.4852305 18.9979805,13.9664883 L18.9979805,13.9664883 Z" id="Path" fill="#666666"></path>
                        <path d="M14.2944434,27.5830313 L14.2942852,27.5830313 C13.679666,27.6811172 13.2572637,28.2640957 13.3551914,28.878082 L14.5456699,36.3455859 C14.6437559,36.9597305 15.2267344,37.3824492 15.8413535,37.2843633 L15.8415117,37.2843633 C16.4559727,37.1864355 16.8785332,36.6036152 16.7806055,35.9893125 L15.5899687,28.522125 C15.4917246,27.9076641 14.9089043,27.4849453 14.2944434,27.5830313 Z" id="Path" fill="#807D7D"></path>
                        <path d="M12.2678613,29.0739375 L13.3583555,28.9000723 L14.5211484,36.1921289 L13.423377,36.3671016 C12.8277422,36.4620234 12.2626406,36.0525937 12.1677187,35.4571172 L11.3515488,30.3381387 C11.2558359,29.7383906 11.6684297,29.1696504 12.2678613,29.0739375 L12.2678613,29.0739375 Z" id="Path" fill="#20D0C2"></path>
                        <path d="M40.7618262,27.5830313 L40.7619844,27.5830313 C41.3766035,27.6811172 41.7993223,28.2640957 41.7012363,28.878082 L40.5105996,36.3455859 C40.4128301,36.9597305 39.8298516,37.3824492 39.2152324,37.2843633 L39.214916,37.2843633 C38.6006133,37.1864355 38.1780527,36.6036152 38.2759805,35.9893125 L39.4666172,28.522125 C39.5643867,27.9076641 40.1473652,27.4849453 40.7618262,27.5830313 L40.7618262,27.5830313 Z" id="Path" fill="#807D7D"></path>
                        <g id="Group" transform="translate(11.865234, 10.916016)" fill="#20D0C2">
                            <path d="M30.9230156,18.1579219 L29.8325215,17.9840566 L28.6697285,25.2761133 L29.7679746,25.4510859 C30.3636094,25.5460078 30.9287109,25.1365781 31.0236328,24.5411016 L31.8398027,19.422123 C31.9355156,18.822375 31.5229219,18.2536348 30.9230156,18.1579219 L30.9230156,18.1579219 Z" id="Path"></path>
                            <path d="M29.9207988,17.9799434 C31.3058672,11.0685234 28.6259062,6.23794922 24.4178613,3.5587793 C21.8146289,1.90128516 18.6269941,1.05632227 15.4493262,1.04176758 C12.2743477,1.02737109 9.11408203,1.84227539 6.56210742,3.50325 C2.51226563,6.13938867 -0.00601171875,10.9392715 1.40500195,17.9799434 L0.4910625,18.1621934 C-1.00822852,10.6809258 1.70400586,5.55656836 6.05601563,2.7237832 C8.76239648,0.962033203 12.1031719,0.0979277344 15.4532813,0.113431641 C18.7999102,0.128619141 22.1631504,1.0224668 24.9166758,2.77551562 C29.4298945,5.64911719 32.3090332,10.8071719 30.8350547,18.1623516 L29.9207988,17.9799434 L29.9207988,17.9799434 Z" id="Path"></path>
                        </g>
                    </g>
                </g>
            </g>
        </g>
    </g>
</svg>