<?xml version="1.0" encoding="UTF-8"?>
<svg width="82px" height="84px" viewBox="0 0 82 84" version="1.1" xmlns="http://www.w3.org/2000/svg" xmlns:xlink="http://www.w3.org/1999/xlink">
    <!-- Generator: Sketch 53.2 (72643) - https://sketchapp.com -->
    <title>camera</title>
    <desc>Created with Sketch.</desc>
    <g id="Page-1" stroke="none" stroke-width="1" fill="none" fill-rule="evenodd">
        <g id="class" transform="translate(-820.000000, -912.000000)" fill-rule="nonzero">
            <g id="path" transform="translate(100.000000, 713.000000)">
                <g id="3" transform="translate(623.000000, 167.000000)">
                    <g id="camera" transform="translate(97.000000, 32.000000)">
                        <path d="M42.2919084,3.66128655 C31.7387371,3.08163743 21.918502,6.65728655 14.4094582,12.9635088 L1.81118725,55.4196959 C6.572251,71.0700585 20.6671036,82.8277661 37.912259,83.7750175 C59.9815299,84.9873684 78.8526375,68.0360702 80.0620558,45.9132865 C81.2714741,23.7906667 64.3611793,4.87380117 42.2919084,3.66128655 Z" id="Path" fill="#FAB941"></path>
                        <path d="M29.9447012,14.5334737 C29.3231673,13.9805146 29.2663227,13.0268772 29.8181076,12.4038363 L37.4890279,3.73890058 C39.7405976,1.16191813 42.7698606,2.10196491 44.5261633,1.90645614 C45.3574343,1.90645614 46.0310757,2.58189474 46.0310757,3.41501754 C46.0310757,4.24814035 45.3574343,4.92357895 44.5261633,4.92357895 L41.5300598,4.92357895 C40.8469442,4.92357895 40.196988,5.2191345 39.7466414,5.73426901 L32.0693506,14.4064094 C31.5188725,15.0284678 30.5677052,15.0875789 29.9447012,14.5334737 Z" id="Path" fill="#E2E9F2"></path>
                        <path d="M35.575259,5.90046784 L29.8181076,12.4038363 C29.2663227,13.0270409 29.3231673,13.9805146 29.9447012,14.5334737 C30.5677052,15.0875789 31.5188725,15.0283041 32.0691873,14.4064094 L37.7298008,8.01225731 C36.4388725,8.39639766 35.219,7.21335673 35.575259,5.90046784 Z" id="Path" fill="#C7D6E5"></path>
                        <path d="M50.0201633,5.42643275 L44.5261633,5.42643275 C43.4180199,5.42643275 42.5196135,4.52584795 42.5196135,3.41501754 C42.5196135,2.30418713 43.4180199,1.40360234 44.5261633,1.40360234 L50.0201633,1.40360234 C51.1283068,1.40360234 52.0267131,2.30418713 52.0267131,3.41501754 C52.0267131,4.52584795 51.1283068,5.42643275 50.0201633,5.42643275 Z" id="Path" fill="#494970"></path>
                        <path d="M66.3693625,3.41501754 C66.3693625,1.5288655 64.8441952,0 62.9626056,0 L52.2634024,0 C50.3819761,0 48.8566454,1.5288655 48.8566454,3.41501754 C48.8566454,5.30116959 50.3819761,6.83003509 52.2634024,6.83003509 L62.9626056,6.83003509 C64.8441952,6.83003509 66.3693625,5.30116959 66.3693625,3.41501754 Z" id="Path" fill="#494970"></path>
                        <path d="M56.9150239,3.41501754 C56.9150239,1.5288655 58.4403546,0 60.3219442,0 L52.2635657,0 C50.3819761,0 48.8568088,1.5288655 48.8568088,3.4148538 C48.8568088,5.30100585 50.3821394,6.82987135 52.2635657,6.82987135 L60.3219442,6.82987135 C58.4403546,6.83003509 56.9150239,5.30116959 56.9150239,3.41501754 Z" id="Path" fill="#3A3A60"></path>
                        <path d="M66.1687729,26.9183158 C66.1687729,26.9204444 66.1690996,26.9224094 66.1690996,26.9243743 L66.1690996,41.6340351 C68.4897649,44.9658713 72.340498,47.1472515 76.7016892,47.1472515 L76.7016892,21.4047719 C72.3403347,21.4047719 68.4894382,23.5864795 66.1687729,26.9183158 Z" id="Path" fill="#C7D6E5"></path>
                        <path d="M66.1690996,41.6341988 C68.4897649,44.9660351 72.340498,47.1474152 76.7016892,47.1474152 L76.7016892,37.1283275 C72.340498,37.1283275 68.4897649,35.7959532 66.1690996,33.7609591 L66.1690996,41.6341988 Z" id="Path" fill="#AEBFCE"></path>
                        <path d="M66.3696892,26.7331228 L66.3696892,41.8190643 C66.3696892,43.3187836 65.157004,44.5345731 63.660749,44.5345731 C62.1646574,44.5345731 60.9518088,43.3187836 60.9518088,41.8190643 L60.9518088,26.7331228 C60.9518088,25.2334035 62.164494,24.017614 63.660749,24.017614 C65.157004,24.0177778 66.3696892,25.2334035 66.3696892,26.7331228 Z" id="Path" fill="#E2E9F2"></path>
                        <path d="M63.6609124,36.3472749 C62.1648207,36.3472749 60.9519721,35.1314854 60.9519721,33.6319298 L60.9519721,41.8190643 C60.9519721,43.3187836 62.1646574,44.5344094 63.6609124,44.5344094 C65.157004,44.5344094 66.3698526,43.3186199 66.3698526,41.8190643 L66.3698526,33.6319298 C66.3696892,35.1314854 65.157004,36.3472749 63.6609124,36.3472749 Z" id="Path" fill="#C7D6E5"></path>
                        <path d="M22.0950797,13.4051228 L27.5127968,13.4051228 L27.5127968,6.9014269 C27.5127968,6.47962573 27.4606892,6.07010526 27.3644781,5.67761404 C25.5483904,6.28919298 23.7878406,7.02750877 22.0950797,7.88421053 L22.0950797,13.4051228 Z" id="Path" fill="#3A3A60"></path>
                        <path d="M47.7039084,83.1120234 C44.1842789,77.0009825 38.6350677,67.3661988 36.2095339,63.1550643 C36.0706892,62.9140351 35.9001554,62.7024795 35.706753,62.5223626 C35.1920478,64.4430643 33.8481952,66.0225263 32.0829084,66.8520468 C34.3972032,70.8702924 38.618243,78.198924 41.8431952,83.798269 C43.8352072,83.7137778 45.7920996,83.4810994 47.7039084,83.1120234 Z" id="Path" fill="#494970"></path>
                        <path d="M23.1904821,62.5223626 C22.9970797,62.7024795 22.8267092,62.9138713 22.6877012,63.1549006 C21.1478327,65.8284912 18.3485618,70.6887018 15.6090757,75.4452632 C17.0363984,76.5546199 18.5411474,77.5706433 20.1159721,78.4820351 C22.6187689,74.1364678 25.1875578,69.6764444 26.8143267,66.851883 C25.0490398,66.0225263 23.7051873,64.4430643 23.1904821,62.5223626 Z" id="Path" fill="#3A3A60"></path>
                        <path d="M29.4486175,67.6850058 C33.1427012,67.6850058 36.1371713,64.6831111 36.1371713,60.9802339 L22.7599004,60.9802339 C22.7600637,64.6831111 25.7545339,67.6850058 29.4486175,67.6850058 Z" id="Path" fill="#5D5D84"></path>
                        <path d="M32.185,67.0932398 C30.0536534,67.0932398 28.3259363,65.3613333 28.3259363,63.2248187 C28.3259363,62.3876023 28.5920279,61.6132632 29.0430279,60.9802339 L22.7600637,60.9802339 C22.7600637,64.6832749 25.7546972,67.6850058 29.4486175,67.6850058 C30.4280438,67.6850058 31.3574861,67.4723041 32.1957809,67.0929123 C32.1921873,67.093076 32.1885936,67.0932398 32.185,67.0932398 Z" id="Path" fill="#494970"></path>
                        <path d="M29.4486175,64.332538 C27.9525259,64.332538 26.7396773,65.5483275 26.7396773,67.0480468 C26.7396773,70.1919064 26.7396773,75.9536842 26.7396773,81.541076 C28.4905896,82.1618246 30.2993267,82.6645146 32.1573944,83.0393216 C32.1573944,76.9679064 32.1573944,70.4126316 32.1573944,67.0480468 C32.1575578,65.5483275 30.9447092,64.332538 29.4486175,64.332538 Z" id="Path" fill="#5D5D84"></path>
                        <path d="M29.4486175,76.271345 C27.9525259,76.271345 26.7396773,75.0555556 26.7396773,73.5558363 C26.7396773,76.0425965 26.7396773,78.8123041 26.7396773,81.541076 C28.4905896,82.1618246 30.2993267,82.6645146 32.1573944,83.0393216 C32.1573944,79.8325848 32.1573944,76.4912515 32.1573944,73.5558363 C32.1575578,75.0555556 30.9447092,76.271345 29.4486175,76.271345 Z" id="Path" fill="#494970"></path>
                        <path d="M36.9733426,61.1813099 L21.9238924,61.1813099 C20.4278008,61.1813099 19.2149522,59.9656842 19.2149522,58.4658012 C19.2149522,56.9660819 20.4278008,55.7502924 21.9238924,55.7502924 L36.9733426,55.7502924 C38.4694343,55.7502924 39.6822829,56.9659181 39.6822829,58.4658012 C39.6821195,59.9656842 38.4694343,61.1813099 36.9733426,61.1813099 Z" id="Path" fill="#494970"></path>
                        <path d="M26.3478088,58.4659649 C26.3478088,56.9662456 27.5606574,55.7504561 29.056749,55.7504561 L21.9238924,55.7504561 C20.4278008,55.7504561 19.2149522,56.9662456 19.2149522,58.4659649 C19.2149522,59.9656842 20.4278008,61.1813099 21.9238924,61.1813099 L29.056749,61.1813099 C27.5606574,61.1813099 26.3478088,59.9656842 26.3478088,58.4659649 Z" id="Path" fill="#3A3A60"></path>
                        <path d="M55.3400359,12.6004912 L14.8439602,12.6004912 C6.40694422,19.4861988 0.784227092,29.775462 0.142111554,41.5230175 C-0.132964143,46.5558129 0.532346614,51.4214269 1.98008765,55.9515322 L55.3400359,55.9515322 C58.5370558,55.9515322 61.1527251,53.3295205 61.1527251,50.1247485 L61.1527251,18.4272749 C61.1525618,15.2225029 58.5368924,12.6004912 55.3400359,12.6004912 Z" id="Path" fill="#5D5D84"></path>
                        <path d="M14.3710717,50.1249123 L14.3710717,18.4272749 C14.3710717,15.2225029 16.986741,12.6004912 20.183761,12.6004912 L14.8439602,12.6004912 C6.40694422,19.4861988 0.784227092,29.775462 0.142111554,41.5230175 C-0.132964143,46.5556491 0.532346614,51.4214269 1.98008765,55.9515322 L20.183761,55.9515322 C16.986741,55.9515322 14.3710717,53.3295205 14.3710717,50.1249123 Z" id="Path" fill="#494970"></path>
                        <ellipse id="Oval" fill="#494970" transform="translate(29.447830, 34.466494) rotate(-30.000728) translate(-29.447830, -34.466494) " cx="29.4478299" cy="34.4664939" rx="15.0863627" ry="15.1046412"></ellipse>
                        <path d="M79.2098765,18.888538 C77.7137849,18.888538 76.5009363,20.1041637 76.5009363,21.6040468 C76.5009363,26.6753216 76.5009363,41.7141053 76.5009363,46.9483041 C76.5009363,48.4480234 77.7137849,49.6638129 79.2098765,49.6638129 C80.7059681,49.6638129 81.9188167,48.4480234 81.9188167,46.9483041 C81.9188167,41.8768655 81.9188167,26.8382456 81.9188167,21.6040468 C81.9188167,20.1041637 80.7059681,18.888538 79.2098765,18.888538 Z" id="Path" fill="#E2E9F2"></path>
                        <path d="M79.2098765,39.8390877 C77.7137849,39.8390877 76.5009363,38.6232982 76.5009363,37.1237427 C76.5009363,41.1287251 76.5009363,44.8366784 76.5009363,46.9483041 C76.5009363,48.4480234 77.7137849,49.6636491 79.2098765,49.6636491 C80.7059681,49.6636491 81.9186534,48.4478596 81.9186534,46.9483041 C81.9186534,44.8821988 81.9186534,41.1616374 81.9186534,37.1237427 C81.9188167,38.6232982 80.7059681,39.8390877 79.2098765,39.8390877 Z" id="Path" fill="#C7D6E5"></path>
                        <path d="M25.9144502,43.7797193 C25.9144502,41.6415673 26.9840438,39.7547602 28.6152231,38.6247719 L28.6152231,30.3508538 C26.9840438,29.2208655 25.9144502,27.3338947 25.9144502,25.1959064 C25.9144502,22.5380351 27.5668645,20.2683977 29.8973307,19.3589708 C27.1903506,19.2756257 24.4276693,19.9212632 21.9098446,21.3784094 C14.698255,25.5520468 12.2274741,34.7958129 16.3910159,42.0247251 C19.2445179,46.9792515 24.4738964,49.7009825 29.8037331,49.5799766 C27.5225976,48.6464795 25.9144502,46.4018947 25.9144502,43.7797193 Z" id="Path" fill="#3A3A60"></path>
                        <path d="M34.9901514,33.8313684 L26.6508167,28.6379415 C26.3028884,28.4213099 25.8530319,28.672 25.8530319,29.0826667 L25.8530319,39.4695205 C25.8530319,39.8800234 26.3030518,40.1307135 26.6508167,39.9140819 L34.9901514,34.720655 C35.3189681,34.5159766 35.3189681,34.0362105 34.9901514,33.8313684 Z" id="Path" fill="#F5585C"></path>
                        <path d="M34.9901514,33.8313684 L32.8996414,32.5294503 L26.6509801,36.4209591 C26.3030518,36.6375906 25.8531952,36.3869006 25.8531952,35.9763977 L25.8531952,39.4695205 C25.8531952,39.8800234 26.3032151,40.1307135 26.6509801,39.9140819 L34.9903147,34.720655 C35.3189681,34.5159766 35.3189681,34.0362105 34.9901514,33.8313684 Z" id="Path" fill="#E34450"></path>
                    </g>
                </g>
            </g>
        </g>
    </g>
</svg>