<?xml version="1.0" encoding="UTF-8"?>
<svg width="278px" height="347px" viewBox="0 0 278 347" version="1.1" xmlns="http://www.w3.org/2000/svg" xmlns:xlink="http://www.w3.org/1999/xlink">
    <!-- Generator: Sketch 53.2 (72643) - https://sketchapp.com -->
    <title>Background</title>
    <desc>Created with Sketch.</desc>
    <g id="Page-1" stroke="none" stroke-width="1" fill="none" fill-rule="evenodd">
        <g id="homepage" transform="translate(-1014.000000, -1391.000000)" fill-rule="nonzero">
            <g id="Process" transform="translate(124.000000, 1391.000000)">
                <g id="Background" transform="translate(882.000000, 0.000000)">
                    <g id="Form">
                        <path d="M-2.31961771,184.187989 L205.993639,184.301246 C216.987517,184.307223 225.898324,193.21803 225.904302,204.211908 L225.904302,204.211908 C225.91027,215.190345 217.015328,224.094964 206.036892,224.100933 C206.029687,224.100937 206.022482,224.100937 206.015277,224.100933 L-2.29797927,223.987676 C-13.2918579,223.981699 -22.2026649,215.070892 -22.2086421,204.077014 L-22.2086421,204.077014 C-22.2146109,193.098578 -13.3196687,184.193958 -2.34123263,184.187989 C-2.33402765,184.187985 -2.32682268,184.187985 -2.31961771,184.187989 Z" id="Rectangle-2" fill="#FF9D33" transform="translate(101.847830, 204.144461) rotate(-45.000000) translate(-101.847830, -204.144461) "></path>
                        <path d="M127.626658,218.661301 L212.130579,218.707244 C223.124458,218.713222 232.035265,227.624029 232.041242,238.617907 L232.041242,238.617907 C232.047211,249.596343 223.152268,258.500963 212.173832,258.506932 C212.166627,258.506936 212.159422,258.506936 212.152217,258.506932 L127.648296,258.460988 C116.654417,258.455011 107.74361,249.544204 107.737633,238.550325 L107.737633,238.550325 C107.731664,227.571889 116.626607,218.66727 127.605043,218.661301 C127.612248,218.661297 127.619453,218.661297 127.626658,218.661301 Z" id="Rectangle-2" fill="#283583" transform="translate(169.889437, 238.584116) rotate(-45.000000) translate(-169.889437, -238.584116) "></path>
                        <path d="M237.68921,61.6823705 L270.613001,61.7002706 C281.606879,61.7062478 290.517686,70.6170548 290.523664,81.6109335 L290.523664,81.6109335 C290.529632,92.5893695 281.63469,101.493989 270.656254,101.499958 C270.649049,101.499962 270.641844,101.499962 270.634639,101.499958 L237.710848,101.482058 C226.71697,101.476081 217.806163,92.5652736 217.800186,81.5713949 L217.800186,81.5713949 C217.794217,70.5929588 226.689159,61.6883393 237.667595,61.6823705 C237.6748,61.6823666 237.682005,61.6823666 237.68921,61.6823705 Z" id="Rectangle-2" fill="#000000" transform="translate(254.161925, 81.591164) rotate(-45.000000) translate(-254.161925, -81.591164) "></path>
                        <ellipse id="Oval" fill="#D8D8D8" cx="262" cy="159.5" rx="21" ry="20.5"></ellipse>
                        <ellipse id="Oval" fill="#283583" cx="53" cy="326.5" rx="21" ry="20.5"></ellipse>
                        <circle id="Oval" fill="#000000" cx="219" cy="11" r="11"></circle>
                        <circle id="Oval" fill="#000000" cx="53" cy="149" r="11"></circle>
                        <path d="M87.8053319,55.8380879 L172.309253,55.8840313 C183.303132,55.8900085 192.213939,64.8008155 192.219916,75.7946942 L192.219916,75.7946942 C192.225885,86.7731302 183.330943,95.6777498 172.352507,95.6837186 C172.345302,95.6837225 172.338097,95.6837225 172.330892,95.6837186 L87.8269704,95.6377752 C76.8330917,95.631798 67.9222847,86.720991 67.9163075,75.7271123 L67.9163075,75.7271123 C67.9103387,64.7486763 76.8052809,55.8440567 87.783717,55.8380879 C87.790922,55.838084 87.798127,55.838084 87.8053319,55.8380879 Z" id="Rectangle-2" fill="#FF9D33" transform="translate(130.068112, 75.760903) rotate(-45.000000) translate(-130.068112, -75.760903) "></path>
                    </g>
                </g>
            </g>
        </g>
    </g>
</svg>