<?xml version="1.0" encoding="UTF-8"?>
<svg width="285px" height="355px" viewBox="0 0 285 355" version="1.1" xmlns="http://www.w3.org/2000/svg" xmlns:xlink="http://www.w3.org/1999/xlink">
    <!-- Generator: Sketch 53.2 (72643) - https://sketchapp.com -->
    <title>Form</title>
    <desc>Created with Sketch.</desc>
    <g id="Page-1" stroke="none" stroke-width="1" fill="none" fill-rule="evenodd">
        <g id="homepage" transform="translate(-108.000000, -1403.000000)" fill-rule="nonzero">
            <g id="top" transform="translate(-452.000000, -265.000000)">
                <g id="Form" transform="translate(702.500000, 1845.500000) scale(-1, 1) translate(-702.500000, -1845.500000) translate(552.000000, 1668.000000)">
                    <path d="M-2.34306679,188.387556 L210.851458,188.58208 C222.105375,188.592349 231.225916,197.712889 231.236184,208.966806 L231.236184,208.966806 C231.246428,220.19421 222.153124,229.304123 210.92572,229.314367 C210.913355,229.314379 210.900989,229.314379 210.888623,229.314367 L-2.30590154,229.119843 C-13.5598189,229.109575 -22.6803594,219.989034 -22.6906278,208.735117 L-22.6906278,208.735117 C-22.700872,197.507713 -13.6075677,188.3978 -2.38016428,188.387556 C-2.36779846,188.387544 -2.35543262,188.387544 -2.34306679,188.387556 Z" id="Rectangle-2" fill="#FF9D33" transform="translate(104.272778, 208.850962) rotate(-45.000000) translate(-104.272778, -208.850962) "></path>
                    <path d="M130.673818,223.679016 L217.157865,223.757926 C228.411782,223.768195 237.532323,232.888735 237.542591,244.142653 L237.542591,244.142653 C237.552835,255.370056 228.459531,264.479969 217.232127,264.490214 C217.219762,264.490225 217.207396,264.490225 217.19503,264.490214 L130.710984,264.411303 C119.457066,264.401035 110.336526,255.280494 110.326257,244.026577 L110.326257,244.026577 C110.316013,232.799173 119.409317,223.68926 130.636721,223.679016 C130.649087,223.679005 130.661452,223.679005 130.673818,223.679016 Z" id="Rectangle-2" fill="#283583" transform="translate(173.934424, 244.084615) rotate(-45.000000) translate(-173.934424, -244.084615) "></path>
                    <path d="M243.34718,63.0907126 L277.042453,63.1214571 C288.29637,63.1317255 297.41691,72.252266 297.427179,83.5061833 L297.427179,83.5061833 C297.437423,94.7335868 288.344119,103.8435 277.116715,103.853744 C277.104349,103.853756 277.091984,103.853756 277.079618,103.853744 L243.384345,103.823 C232.130428,103.812731 223.009888,94.692191 222.999619,83.4382736 L222.999619,83.4382736 C222.989375,72.2108702 232.082679,63.1009568 243.310083,63.0907126 C243.322449,63.0907014 243.334814,63.0907014 243.34718,63.0907126 Z" id="Rectangle-2" fill="#000000" transform="translate(260.213399, 83.472228) rotate(-45.000000) translate(-260.213399, -83.472228) "></path>
                    <ellipse id="Oval" fill="#283583" cx="268.5" cy="163" rx="21.5" ry="21"></ellipse>
                    <ellipse id="Oval" fill="#283583" cx="54.5" cy="334" rx="21.5" ry="21"></ellipse>
                    <circle id="Oval" fill="#000000" cx="223.5" cy="11.5" r="11.5"></circle>
                    <circle id="Oval" fill="#000000" cx="54.5" cy="152.5" r="11.5"></circle>
                    <path d="M89.9043658,57.1019535 L176.388412,57.1808639 C187.64233,57.1911323 196.76287,66.3116728 196.773138,77.5655901 L196.773138,77.5655901 C196.783383,88.7929936 187.690078,97.9029069 176.462675,97.9131511 C176.450309,97.9131624 176.437943,97.9131624 176.425577,97.9131511 L89.9415311,97.8342407 C78.6876137,97.8239723 69.5670732,88.7034319 69.5568048,77.4495145 L69.5568048,77.4495145 C69.5465607,66.2221111 78.6398649,57.1121977 89.8672683,57.1019535 C89.8796342,57.1019422 89.892,57.1019422 89.9043658,57.1019535 Z" id="Rectangle-2" fill="#FF9D33" transform="translate(133.164972, 77.507552) rotate(-45.000000) translate(-133.164972, -77.507552) "></path>
                </g>
            </g>
        </g>
    </g>
</svg>