<?xml version="1.0" encoding="UTF-8"?>
<svg width="420px" height="465px" viewBox="0 0 420 465" version="1.1" xmlns="http://www.w3.org/2000/svg" xmlns:xlink="http://www.w3.org/1999/xlink">
    <!-- Generator: Sketch 53.2 (72643) - https://sketchapp.com -->
    <title>4</title>
    <desc>Created with Sketch.</desc>
    <defs>
        <linearGradient x1="30.5272325%" y1="52.7297202%" x2="56.140369%" y2="49.1394973%" id="linearGradient-1">
            <stop stop-color="#6E8BF0" offset="0%"></stop>
            <stop stop-color="#6473E1" offset="100%"></stop>
        </linearGradient>
        <linearGradient x1="0.0287984111%" y1="50%" x2="99.9528302%" y2="50%" id="linearGradient-2">
            <stop stop-color="#6E8BF0" offset="0%"></stop>
            <stop stop-color="#6473E1" offset="100%"></stop>
        </linearGradient>
        <linearGradient x1="0.0895833333%" y1="50%" x2="100.089583%" y2="50%" id="linearGradient-3">
            <stop stop-color="#6E8BF0" offset="0%"></stop>
            <stop stop-color="#6473E1" offset="100%"></stop>
        </linearGradient>
        <linearGradient x1="1.81974519%" y1="49.6906925%" x2="99.9947395%" y2="49.6906925%" id="linearGradient-4">
            <stop stop-color="#F7B500" offset="0%"></stop>
            <stop stop-color="#FF9D33" offset="100%"></stop>
        </linearGradient>
        <linearGradient x1="0.0472371034%" y1="50%" x2="99.9772784%" y2="50%" id="linearGradient-5">
            <stop stop-color="#6E8BF0" offset="0%"></stop>
            <stop stop-color="#6473E1" offset="100%"></stop>
        </linearGradient>
        <linearGradient x1="1.81974519%" y1="49.6906925%" x2="99.9947395%" y2="49.6906925%" id="linearGradient-6">
            <stop stop-color="#F7B500" offset="0%"></stop>
            <stop stop-color="#FF9D33" offset="100%"></stop>
        </linearGradient>
        <linearGradient x1="1.81974519%" y1="49.6906925%" x2="99.9947395%" y2="49.6906925%" id="linearGradient-7">
            <stop stop-color="#F7B500" offset="0%"></stop>
            <stop stop-color="#FF9D33" offset="100%"></stop>
        </linearGradient>
        <linearGradient x1="76.6742398%" y1="16.8288698%" x2="37.1025246%" y2="66.1164488%" id="linearGradient-8">
            <stop stop-color="#6E8BF0" offset="0%"></stop>
            <stop stop-color="#6473E1" offset="100%"></stop>
        </linearGradient>
        <linearGradient x1="5.15377551%" y1="50.0191348%" x2="94.8557346%" y2="50.0191348%" id="linearGradient-9">
            <stop stop-color="#6E8BF0" offset="0%"></stop>
            <stop stop-color="#6473E1" offset="100%"></stop>
        </linearGradient>
        <linearGradient x1="18.5925756%" y1="93.8917057%" x2="67.7420549%" y2="25.2321423%" id="linearGradient-10">
            <stop stop-color="#E1EEF9" offset="0%"></stop>
            <stop stop-color="#E1EEF9" stop-opacity="0" offset="100%"></stop>
        </linearGradient>
        <linearGradient x1="1.81974519%" y1="49.6906925%" x2="99.9947395%" y2="49.6906925%" id="linearGradient-11">
            <stop stop-color="#F7B500" offset="0%"></stop>
            <stop stop-color="#FF9D33" offset="100%"></stop>
        </linearGradient>
        <linearGradient x1="1.81974519%" y1="49.6906925%" x2="99.9947395%" y2="49.6906925%" id="linearGradient-12">
            <stop stop-color="#F7B500" offset="0%"></stop>
            <stop stop-color="#F38916" offset="100%"></stop>
        </linearGradient>
        <linearGradient x1="88.0661004%" y1="46.9075215%" x2="27.6372026%" y2="51.819835%" id="linearGradient-13">
            <stop stop-color="#0C0982" offset="1.813472%"></stop>
            <stop stop-color="#4F5AE0" offset="100%"></stop>
        </linearGradient>
        <linearGradient x1="1.81974519%" y1="49.6906925%" x2="99.9947395%" y2="49.6906925%" id="linearGradient-14">
            <stop stop-color="#F7B500" offset="0%"></stop>
            <stop stop-color="#FF9D33" offset="100%"></stop>
        </linearGradient>
        <linearGradient x1="1.81974519%" y1="49.6906925%" x2="99.9947395%" y2="49.6906925%" id="linearGradient-15">
            <stop stop-color="#F7B500" offset="0%"></stop>
            <stop stop-color="#FF9D33" offset="100%"></stop>
        </linearGradient>
        <linearGradient x1="95.9048898%" y1="40.6272888%" x2="23.8429249%" y2="55.5155513%" id="linearGradient-16">
            <stop stop-color="#6E8BF0" offset="0%"></stop>
            <stop stop-color="#6473E1" offset="100%"></stop>
        </linearGradient>
        <linearGradient x1="95.8985461%" y1="40.6272888%" x2="23.8359468%" y2="55.5155513%" id="linearGradient-17">
            <stop stop-color="#0C0982" offset="1.813472%"></stop>
            <stop stop-color="#4F5AE0" offset="100%"></stop>
        </linearGradient>
        <linearGradient x1="1.81974519%" y1="49.6906925%" x2="99.9947395%" y2="49.6906925%" id="linearGradient-18">
            <stop stop-color="#F7B500" offset="0%"></stop>
            <stop stop-color="#FF9D33" offset="100%"></stop>
        </linearGradient>
        <linearGradient x1="95.9042554%" y1="40.6272888%" x2="23.8416562%" y2="55.5155513%" id="linearGradient-19">
            <stop stop-color="#0C0982" offset="1.813472%"></stop>
            <stop stop-color="#4F5AE0" offset="100%"></stop>
        </linearGradient>
        <linearGradient x1="50.1622222%" y1="-16.4163697%" x2="50.1622222%" y2="104.791555%" id="linearGradient-20">
            <stop stop-color="#0C0982" offset="1.813472%"></stop>
            <stop stop-color="#4F5AE0" offset="100%"></stop>
        </linearGradient>
        <linearGradient x1="99.9369871%" y1="49.5747374%" x2="0.0144579%" y2="49.5747374%" id="linearGradient-21">
            <stop stop-color="#0C0982" offset="1.813472%"></stop>
            <stop stop-color="#171691" offset="100%"></stop>
        </linearGradient>
        <linearGradient x1="49.8814496%" y1="-16.9006901%" x2="49.8814496%" y2="105.185851%" id="linearGradient-22">
            <stop stop-color="#0C0982" offset="1.813472%"></stop>
            <stop stop-color="#4F5AE0" offset="100%"></stop>
        </linearGradient>
        <linearGradient x1="100.174904%" y1="49.8275443%" x2="-0.00758618712%" y2="49.8275443%" id="linearGradient-23">
            <stop stop-color="#0C0982" offset="1.813472%"></stop>
            <stop stop-color="#171691" offset="100%"></stop>
        </linearGradient>
        <linearGradient x1="50.1691391%" y1="19.4266297%" x2="48.4746308%" y2="117.809557%" id="linearGradient-24">
            <stop stop-color="#4639A3" offset="0%"></stop>
            <stop stop-color="#5A68CF" offset="100%"></stop>
        </linearGradient>
        <linearGradient x1="98.1527628%" y1="49.9666536%" x2="-0.0293888686%" y2="49.9666536%" id="linearGradient-25">
            <stop stop-color="#4C45AD" offset="0%"></stop>
            <stop stop-color="#5665C9" offset="100%"></stop>
        </linearGradient>
        <linearGradient x1="55.9887528%" y1="2.70227412%" x2="41.0059814%" y2="143.043346%" id="linearGradient-26">
            <stop stop-color="#0C0982" offset="1.813472%"></stop>
            <stop stop-color="#4F5AE0" offset="100%"></stop>
        </linearGradient>
        <linearGradient x1="8.07566572%" y1="57.1184692%" x2="117.326779%" y2="32.4858514%" id="linearGradient-27">
            <stop stop-color="#B23696" stop-opacity="0" offset="0%"></stop>
            <stop stop-color="#B83F9B" stop-opacity="0.05362695" offset="49.48%"></stop>
            <stop stop-color="#D367B1" stop-opacity="0.3" offset="100%"></stop>
        </linearGradient>
    </defs>
    <g id="Page-1" stroke="none" stroke-width="1" fill="none" fill-rule="evenodd">
        <g id="homepage" transform="translate(-210.000000, -1788.000000)">
            <rect fill="#FFFFFF" x="0" y="0" width="1400" height="4650"></rect>
            <g id="2" transform="translate(210.000000, 1788.000000)">
                <g id="4" transform="translate(3.000000, 0.000000)">
                    <path d="M338.977738,352.204531 C311.136086,374.128155 240.819031,302.200647 181.758707,328.704207 C176.955835,330.806472 173.053501,333.284142 169.751526,335.836893 C160.145781,343.344984 155.643088,352.279612 150.164811,359.412298 C145.737163,365.118447 140.709156,369.698382 131.778815,371.575405 C116.844883,374.728803 98.9091562,368.572168 81.1235189,356.559223 C72.9436266,351.078317 64.8387792,344.321036 57.0341113,336.737864 C18.8362657,299.347573 -10.956553,240.559223 4.27755835,199.940453 C12.4574506,178.16699 26.5658887,180.344337 52.081149,141.67767 C84.9508079,91.8990291 73.2438061,70.6511327 96.7328546,54.8090615 C130.878276,31.6841424 163.072531,71.7022654 224.234111,56.836246 C281.493357,42.8711974 287.797127,-0.675728155 329.447038,0.600647249 C366.219031,1.72686084 408.61939,37.1650485 416.574147,77.2582524 C429.556912,142.578641 340.928905,170.283495 336.876481,266.311974 C334.850269,313.612945 354.962298,339.590939 338.977738,352.204531 Z" id="Path" fill="#F6F8FF" fill-rule="nonzero"></path>
                    <polygon id="Path" fill="url(#linearGradient-1)" fill-rule="nonzero" points="301.305206 239.508091 234.365171 239.508091 269.110952 229.146926 336.050987 229.146926"></polygon>
                    <g id="Group" transform="translate(177.856373, 139.650485)" fill-rule="nonzero">
                        <polygon id="Path" fill="url(#linearGradient-2)" points="54.7077199 31.5339806 0.375224417 31.5339806 21.6129264 0 75.9454219 0"></polygon>
                        <polygon id="Path" fill="#FFFFFF" points="36.8470377 8.78446602 29.0423698 22.2990291 44.2014363 15.5417476"></polygon>
                    </g>
                    <polygon id="Path" fill="url(#linearGradient-3)" fill-rule="nonzero" points="214.253142 179.443366 209.900539 185.449838 241.644524 185.449838 245.922083 179.443366"></polygon>
                    <g id="Group" transform="translate(176.603232, 41.294498)" fill="url(#linearGradient-4)" fill-rule="nonzero">
                        <path d="M90.556553,41.2944984 C77.2736086,64.1190939 47.9310592,82.5889968 24.967325,82.5889968 C2.00359066,82.5889968 -5.87612208,64.1190939 7.40682226,41.2944984 C20.6897666,18.4699029 50.032316,0 72.9960503,0 C95.9597846,0 103.764452,18.4699029 90.556553,41.2944984 Z" id="Path"></path>
                    </g>
                    <g id="Group" transform="translate(177.105925, 21.022654)">
                        <path d="M48.7791741,61.566343 L1.42585278,61.566343 C0.4502693,61.566343 0.150089767,60.815534 0.67540395,59.8394822 L33.7701975,2.4776699 C34.2955117,1.50161812 35.5712747,0.750809061 36.5468582,0.750809061 L83.9001795,0.750809061 C84.875763,0.750809061 85.1759425,1.50161812 84.6506284,2.4776699 L51.5558348,59.8394822 C50.9554758,60.815534 49.7547576,61.566343 48.7791741,61.566343 Z" id="Path" fill="url(#linearGradient-5)" fill-rule="nonzero"></path>
                        <path d="M34.1454219,9.7605178 L60.4111311,9.7605178" id="Path" stroke="#FFFFFF" stroke-width="1.74435" stroke-linecap="round"></path>
                        <path d="M30.3931777,17.2686084 L68.6660682,17.2686084" id="Path" stroke="#FFFFFF" stroke-width="1.74435" stroke-linecap="round"></path>
                        <path d="M26.6409336,23.2750809 L65.6642729,23.2750809" id="Path" stroke="#FFFFFF" stroke-width="1.74435" stroke-linecap="round"></path>
                        <path d="M22.8886894,29.2815534 L61.9120287,29.2815534" id="Path" stroke="#FFFFFF" stroke-width="1.74435" stroke-linecap="round"></path>
                        <path d="M19.1364452,36.789644 L39.3985637,36.789644" id="Path" stroke="#FFFFFF" stroke-width="1.74435" stroke-linecap="round"></path>
                        <path d="M15.3842011,42.7961165 L36.3967684,42.7961165" id="Path" stroke="#FFFFFF" stroke-width="1.74435" stroke-linecap="round"></path>
                        <path d="M11.6319569,49.5533981 L32.6445242,49.5533981" id="Path" stroke="#FFFFFF" stroke-width="1.74435" stroke-linecap="round"></path>
                        <path d="M7.87971275,55.5598706 L28.8922801,55.5598706" id="Path" stroke="#FFFFFF" stroke-width="1.74435" stroke-linecap="round"></path>
                        <path d="M49.1543986,36.789644 L59.6606822,36.789644" id="Path" stroke="#FFFFFF" stroke-width="1.74435" stroke-linecap="round"></path>
                        <path d="M46.1526032,42.7961165 L55.9084381,42.7961165" id="Path" stroke="#FFFFFF" stroke-width="1.74435" stroke-linecap="round"></path>
                        <path d="M42.4003591,49.5533981 L52.1561939,49.5533981" id="Path" stroke="#FFFFFF" stroke-width="1.74435" stroke-linecap="round"></path>
                        <path d="M38.6481149,55.5598706 L49.1543986,55.5598706" id="Path" stroke="#FFFFFF" stroke-width="1.74435" stroke-linecap="round"></path>
                        <polygon id="Path" fill="url(#linearGradient-6)" fill-rule="nonzero" points="49.4545781 47.1508091 49.3044883 43.2466019 44.6517056 47.1508091 71.8929982 0 76.6958707 0"></polygon>
                    </g>
                    <path d="M343.180251,178.767638 C330.197487,201.291909 301.305206,219.53657 278.791741,219.53657 C256.278276,219.53657 248.473609,201.291909 261.456373,178.767638 C274.439138,156.243366 303.331418,137.998706 325.844883,137.998706 C348.358348,137.998706 356.163016,156.168285 343.180251,178.767638 Z" id="Path" fill="url(#linearGradient-7)" fill-rule="nonzero"></path>
                    <path d="M306.183124,178.692557 L258.604668,178.692557 C257.629084,178.692557 257.328905,177.941748 257.854219,176.965696 L290.949013,119.603883 C291.474327,118.627832 292.75009,117.877023 293.725673,117.877023 L341.304129,117.877023 C342.279713,117.877023 342.579892,118.627832 341.604309,120.354693 L308.509515,177.716505 C308.359425,177.941748 307.158707,178.692557 306.183124,178.692557 Z" id="Path" fill="url(#linearGradient-8)" fill-rule="nonzero"></path>
                    <polygon id="Path" fill="url(#linearGradient-9)" fill-rule="nonzero" points="336.050987 229.071845 269.110952 229.071845 286.521364 183.94822 353.386355 183.94822"></polygon>
                    <g id="Group" transform="translate(262.657092, 114.122977)">
                        <path d="M48.7791741,61.566343 L1.42585278,61.566343 C0.4502693,61.566343 0.150089767,60.815534 0.67540395,59.8394822 L33.7701975,2.4776699 C34.2955117,1.50161812 35.5712747,0.750809061 36.5468582,0.750809061 L83.9001795,0.750809061 C84.875763,0.750809061 85.1759425,1.50161812 84.6506284,2.4776699 L51.5558348,59.8394822 C50.9554758,60.815534 49.7547576,61.566343 48.7791741,61.566343 Z" id="Path" fill="url(#linearGradient-10)" fill-rule="nonzero"></path>
                        <path d="M34.1454219,9.7605178 L60.4111311,9.7605178" id="Path" stroke="#FFFFFF" stroke-width="1.74435" stroke-linecap="round"></path>
                        <path d="M30.3931777,17.2686084 L68.6660682,17.2686084" id="Path" stroke="#FFFFFF" stroke-width="1.74435" stroke-linecap="round"></path>
                        <path d="M26.6409336,23.2750809 L65.6642729,23.2750809" id="Path" stroke="#FFFFFF" stroke-width="1.74435" stroke-linecap="round"></path>
                        <path d="M22.8886894,29.2815534 L61.9120287,29.2815534" id="Path" stroke="#FFFFFF" stroke-width="1.74435" stroke-linecap="round"></path>
                        <path d="M19.1364452,36.789644 L39.3985637,36.789644" id="Path" stroke="#FFFFFF" stroke-width="1.74435" stroke-linecap="round"></path>
                        <path d="M15.3842011,42.7961165 L36.3967684,42.7961165" id="Path" stroke="#FFFFFF" stroke-width="1.74435" stroke-linecap="round"></path>
                        <path d="M11.6319569,49.5533981 L32.6445242,49.5533981" id="Path" stroke="#FFFFFF" stroke-width="1.74435" stroke-linecap="round"></path>
                        <path d="M7.87971275,55.5598706 L28.8922801,55.5598706" id="Path" stroke="#FFFFFF" stroke-width="1.74435" stroke-linecap="round"></path>
                        <path d="M49.1543986,36.789644 L59.6606822,36.789644" id="Path" stroke="#FFFFFF" stroke-width="1.74435" stroke-linecap="round"></path>
                        <path d="M46.1526032,42.7961165 L55.9084381,42.7961165" id="Path" stroke="#FFFFFF" stroke-width="1.74435" stroke-linecap="round"></path>
                        <path d="M42.4003591,49.5533981 L52.1561939,49.5533981" id="Path" stroke="#FFFFFF" stroke-width="1.74435" stroke-linecap="round"></path>
                        <path d="M38.6481149,55.5598706 L49.1543986,55.5598706" id="Path" stroke="#FFFFFF" stroke-width="1.74435" stroke-linecap="round"></path>
                        <polygon id="Path" fill="url(#linearGradient-6)" fill-rule="nonzero" points="49.4545781 47.1508091 49.3044883 43.2466019 44.6517056 47.1508091 71.8929982 0 76.6958707 0"></polygon>
                    </g>
                    <g id="Group" transform="translate(288.172352, 52.556634)" fill-rule="nonzero">
                        <path d="M97.7084381,3.75404531 L60.1859964,3.75404531 C59.135368,3.75404531 58.7601436,2.92815534 59.3605027,1.87702265 L59.3605027,1.87702265 C59.9608618,0.825889968 61.3116697,0 62.2872531,0 L99.8096948,0 C100.860323,0 101.235548,0.825889968 100.635189,1.87702265 L100.635189,1.87702265 C100.034829,2.92815534 98.7590664,3.75404531 97.7084381,3.75404531 Z" id="Path" fill="url(#linearGradient-11)"></path>
                        <path d="M72.9436266,17.2686084 L35.4211849,17.2686084 C34.3705566,17.2686084 33.9953321,16.4427184 34.5956912,15.3915858 L34.5956912,15.3915858 C35.1960503,14.3404531 36.5468582,13.5145631 37.5224417,13.5145631 L75.0448833,13.5145631 C76.0955117,13.5145631 76.4707361,14.3404531 75.870377,15.3915858 L75.870377,15.3915858 C75.270018,16.4427184 73.9192101,17.2686084 72.9436266,17.2686084 Z" id="Path" fill="url(#linearGradient-12)"></path>
                        <path d="M100.785278,30.7831715 L63.2628366,30.7831715 C62.2122083,30.7831715 61.8369838,29.9572816 62.4373429,28.9061489 L62.4373429,28.9061489 C63.037702,27.8550162 64.3885099,27.0291262 65.3640934,27.0291262 L102.886535,27.0291262 C103.937163,27.0291262 104.312388,27.8550162 103.712029,28.9061489 L103.712029,28.9061489 C103.11167,29.9572816 101.835907,30.7831715 100.785278,30.7831715 Z" id="Path" fill="url(#linearGradient-11)"></path>
                        <path d="M108.890126,17.2686084 L83.2247756,17.2686084 C82.1741472,17.2686084 81.7989228,16.4427184 82.3992819,15.3915858 L82.3992819,15.3915858 C82.9996409,14.3404531 84.3504488,13.5145631 85.3260323,13.5145631 L111.066427,13.5145631 C112.117056,13.5145631 112.49228,14.3404531 111.891921,15.3915858 L111.891921,15.3915858 C111.216517,16.4427184 109.940754,17.2686084 108.890126,17.2686084 Z" id="Path" fill="url(#linearGradient-13)"></path>
                        <path d="M76.2456014,44.2977346 L50.5802513,44.2977346 C49.529623,44.2977346 49.1543986,43.4718447 49.7547576,42.420712 L49.7547576,42.420712 C50.3551167,41.3695793 51.7059246,40.5436893 52.6815081,40.5436893 L78.3468582,40.5436893 C79.3974865,40.5436893 79.772711,41.3695793 79.1723519,42.420712 L79.1723519,42.420712 C78.5719928,43.4718447 77.2962298,44.2977346 76.2456014,44.2977346 Z" id="Path" fill="url(#linearGradient-14)"></path>
                        <path d="M39.6236984,44.2977346 L1.50089767,44.2977346 C0.4502693,44.2977346 0.0750448833,43.4718447 0.67540395,42.420712 L0.67540395,42.420712 C1.27576302,41.3695793 2.62657092,40.5436893 3.6021544,40.5436893 L41.7249551,40.5436893 C42.7755835,40.5436893 43.1508079,41.3695793 42.5504488,42.420712 L42.5504488,42.420712 C41.9500898,43.4718447 40.5992819,44.2977346 39.6236984,44.2977346 Z" id="Path" fill="url(#linearGradient-15)"></path>
                        <path d="M115.794255,3.75404531 L108.289767,3.75404531 C107.239138,3.75404531 106.863914,2.92815534 107.464273,1.87702265 L107.464273,1.87702265 C108.064632,0.825889968 109.41544,0 110.391023,0 L117.895512,0 C118.94614,0 119.321364,0.825889968 118.721005,1.87702265 L118.721005,1.87702265 C118.195691,2.92815534 116.844883,3.75404531 115.794255,3.75404531 Z" id="Path" fill="url(#linearGradient-16)"></path>
                        <path d="M48.854219,3.75404531 L41.3497307,3.75404531 C40.2991023,3.75404531 39.9238779,2.92815534 40.524237,1.87702265 L40.524237,1.87702265 C41.1245961,0.825889968 42.4754039,0 43.4509874,0 L50.9554758,0 C52.0061041,0 52.3813285,0.825889968 51.7809695,1.87702265 L51.7809695,1.87702265 C51.2556553,2.92815534 49.9048474,3.75404531 48.854219,3.75404531 Z" id="Path" fill="url(#linearGradient-17)"></path>
                        <path d="M51.3307002,30.7831715 L43.8262118,30.7831715 C42.7755835,30.7831715 42.4003591,29.9572816 43.0007181,28.9061489 L43.0007181,28.9061489 C43.6010772,27.8550162 44.9518851,27.0291262 45.9274686,27.0291262 L53.4319569,27.0291262 C54.4825853,27.0291262 54.8578097,27.8550162 54.2574506,28.9061489 L54.2574506,28.9061489 C53.6570916,29.9572816 52.3813285,30.7831715 51.3307002,30.7831715 Z" id="Path" fill="url(#linearGradient-18)"></path>
                        <path d="M92.1551167,44.2977346 L84.6506284,44.2977346 C83.6,44.2977346 83.2247756,43.4718447 83.8251346,42.420712 L83.8251346,42.420712 C84.4254937,41.3695793 85.7763016,40.5436893 86.7518851,40.5436893 L94.2563734,40.5436893 C95.3070018,40.5436893 95.6822262,41.3695793 95.0818671,42.420712 L95.0818671,42.420712 C94.556553,43.4718447 93.2057451,44.2977346 92.1551167,44.2977346 Z" id="Path" fill="url(#linearGradient-19)"></path>
                    </g>
                    <g id="Group" transform="translate(86.301616, 66.071197)" fill-rule="nonzero">
                        <g transform="translate(1.500898, 349.126214)" id="Path">
                            <path d="M17.7856373,1.42653722 C17.7856373,1.42653722 17.7105925,7.95857605 19.4366248,13.3644013 C20.6373429,17.1184466 0.300179533,22.5993528 1.42585278,17.4938511 C3.30197487,9.15987055 3.00179533,6.00647249 3.37701975,2.62783172 C3.75224417,-0.825889968 17.7856373,1.42653722 17.7856373,1.42653722 Z" fill="#F7D7C6"></path>
                            <g transform="translate(0.000000, 6.006472)">
                                <path d="M0.825493716,18.0944984 C0.9005386,18.1695793 0.9005386,18.2446602 0.975583483,18.394822 C0.975583483,18.394822 0.975583483,18.394822 0.975583483,18.394822 C1.05062837,18.4699029 1.12567325,18.6200647 1.27576302,18.7702265 C1.8010772,19.2957929 2.85170557,19.7462783 4.80287253,20.0466019 C10.1310592,20.8724919 20.3371634,17.1935275 27.6165171,15.166343 L27.6165171,2.85307443 C26.7910233,2.92815534 25.9655296,2.92815534 25.1400359,2.85307443 C20.7123878,2.70291262 18.0858169,0.225242718 18.0858169,0.225242718 C15.9845601,10.436246 12.832675,9.68543689 9.4556553,8.78446602 C7.87971275,8.33398058 4.20251346,6.1566343 2.47648115,6.30679612 C2.10125673,6.30679612 1.8010772,6.45695793 1.65098743,6.75728155 C0.825493716,8.40906149 1.12567325,15.166343 0.975583483,15.9171521 C0.9005386,16.2174757 0.67540395,16.6679612 0.600359066,17.1935275 C0.67540395,17.4938511 0.67540395,17.7941748 0.825493716,18.0944984 Z" fill="url(#linearGradient-20)"></path>
                                <path d="M0.825493716,18.0944984 C0.9005386,18.1695793 0.9005386,18.2446602 0.975583483,18.394822 C0.975583483,18.394822 0.975583483,18.394822 0.975583483,18.394822 C1.05062837,18.4699029 1.12567325,18.6200647 1.27576302,18.7702265 C1.8010772,19.2957929 2.85170557,19.7462783 4.80287253,20.0466019 C10.1310592,20.8724919 20.3371634,17.1935275 27.6165171,15.166343 L27.6165171,12.763754 C27.5414722,12.763754 27.4664273,12.838835 27.3913824,12.838835 C20.0369838,14.7158576 8.93034111,18.9203883 3.30197487,18.0194175 C2.17630162,17.8692557 1.3508079,17.568932 0.750448833,17.2686084 C0.67540395,17.4938511 0.67540395,17.7941748 0.825493716,18.0944984 Z" fill="url(#linearGradient-21)"></path>
                            </g>
                        </g>
                        <path d="M27.6915619,372.85178 C27.6915619,372.85178 27.6165171,379.383819 29.3425494,384.789644 C30.5432675,388.543689 10.2061041,394.024595 11.3317774,388.919094 C13.2078995,380.585113 12.9077199,377.431715 13.2829443,374.053074 C13.6581688,370.599353 27.6915619,372.85178 27.6915619,372.85178 Z" id="Path" fill="#F7D7C6"></path>
                        <g transform="translate(10.506284, 377.656958)" id="Path">
                            <path d="M17.4854578,0.0750809061 C17.4854578,0.0750809061 20.1120287,2.55275081 24.5396768,2.70291262 C28.967325,2.85307443 33.8452424,1.42653722 34.5206463,4.57993528 C35.1210054,7.73333333 35.5712747,12.6135922 28.291921,14.5656958 C20.9375224,16.4427184 9.83087971,20.6472492 4.20251346,19.7462783 C-1.42585278,18.8453074 0.375224417,16.4427184 0.525314183,15.6919094 C0.600359066,14.9411003 0.300179533,8.18381877 1.12567325,6.53203883 C1.95116697,4.8802589 6.90412926,8.03365696 8.85529623,8.5592233 C12.232316,9.53527508 15.3842011,10.2860841 17.4854578,0.0750809061 Z" fill="url(#linearGradient-22)"></path>
                            <path d="M2.62657092,17.7941748 C8.25493716,18.6951456 19.3615799,14.4906149 26.7159785,12.6135922 C33.7701975,10.7365696 33.6201077,6.1566343 33.0197487,2.92815534 C33.7701975,3.22847896 34.2955117,3.75404531 34.4456014,4.65501618 C35.0459605,7.80841424 35.4962298,12.6886731 28.2168761,14.6407767 C20.8624776,16.5177994 9.75583483,20.7223301 4.12746858,19.8213592 C0.525314183,19.220712 -2.13024043e-14,18.0194175 0.0750448833,17.0433657 C0.67540395,17.3436893 1.50089767,17.568932 2.62657092,17.7941748 Z" fill="url(#linearGradient-23)"></path>
                        </g>
                        <path d="M54.9328546,155.567638 C60.1859964,155.867961 87.9526032,132.667961 91.2545781,129.965049 C94.556553,127.262136 95.9824057,126.886731 98.9091562,126.661489 C101.835907,126.361165 110.466068,118.552751 113.242729,117.65178 C116.01939,116.750809 117.745422,113.146926 117.745422,113.146926 C119.24632,110.744337 116.694794,108.792233 116.694794,108.792233 C116.694794,108.792233 123.749013,108.717152 117.220108,104.587702 C110.691203,100.458252 102.886535,104.43754 99.5845601,106.314563 C98.6089767,106.840129 97.2581688,107.966343 95.7572711,109.317799 C91.929982,112.771521 87.2771993,117.65178 87.2771993,117.65178 C86.5267504,118.627832 85.2509874,119.754045 83.6750449,120.880259 C75.1949731,127.036893 57.259246,134.394822 57.259246,134.394822 L54.9328546,155.567638 Z" id="Path" fill="#F7D7C6"></path>
                        <path d="M40.9745063,80.8621359 C40.1490126,80.4867314 39.6987433,79.8110032 39.6236984,78.7598706 C39.4736086,77.4834951 40.0739677,75.6064725 41.2746858,73.2789644 C41.5748654,72.6783172 41.9500898,72.002589 42.3253142,71.3268608 L42.3253142,71.3268608 C43.4509874,69.4498382 44.8768402,67.3475728 46.6028725,64.9449838 C26.2657092,55.7100324 16.5849192,54.0582524 17.335368,59.8394822 C17.4104129,60.2899676 17.4104129,60.6653722 17.4854578,61.1158576 C17.7105925,63.7436893 17.4854578,66.2964401 16.735009,68.8491909 C16.1346499,70.8763754 15.2341113,72.9035599 13.8833034,74.8556634 C13.8833034,74.8556634 13.8833034,74.8556634 13.8833034,74.8556634 C13.8833034,74.8556634 13.8833034,74.8556634 13.8833034,74.8556634 C13.8833034,74.8556634 13.8833034,74.8556634 13.8833034,74.8556634 C13.8833034,74.8556634 13.8082585,74.9307443 13.8082585,74.9307443 C13.508079,75.3812298 13.1328546,75.9067961 12.7576302,76.3572816 C12.7576302,76.4323625 12.6825853,76.4323625 12.6825853,76.4323625 C11.4818671,78.0841424 9.53070018,80.8621359 7.35439856,84.1656958 L41.1996409,81.0873786 L40.9745063,80.8621359 Z" id="Path" fill="#F7D7C6"></path>
                        <path d="M64.8387792,67.5728155 C56.3587074,58.6381877 57.3342908,46.3249191 67.7655296,30.7831715 C83.4499102,7.3579288 47.578456,-5.03042071 30.6183124,1.95210356 C13.6581688,8.93462783 1.95116697,39.7928803 10.0560144,53.0822006 C18.2359066,66.371521 20.3371634,54.2834951 25.2901257,59.7644013 C30.3181329,65.2453074 50.5802513,74.7805825 64.8387792,67.5728155 Z" id="Path" fill-opacity="0.85" fill="#000000"></path>
                        <path d="M14.6337522,191.681553 L8.63016158,183.647896 C8.63016158,183.647896 -0.22513465,204.595469 4.57773788,216.758576 C9.38061041,228.921683 28.0667864,267.888673 27.2412926,274.645955 C26.4157989,281.403236 14.4836625,295.968932 11.7820467,312.111327 C9.08043088,328.253722 3.00179533,352.204531 4.12746858,353.78123 C5.25314183,355.357929 11.7820467,357.460194 13.7332136,356.333981 C15.6843806,355.207767 36.3967684,268.339159 36.3967684,262.783172 C36.3967684,257.227184 14.6337522,191.681553 14.6337522,191.681553 Z" id="Path" fill="url(#linearGradient-24)"></path>
                        <path d="M28.6671454,373.602589 C32.8696589,359.712621 42.9256732,326.677023 44.2764811,318.493204 C46.0025135,307.831715 47.9536804,294.99288 53.0567325,282.904854 C58.1597846,270.816828 68.5159785,241.835599 69.2664273,232.300324 C70.0168761,222.689968 71.0675045,214.130744 69.6416517,205.346278 C68.2157989,196.561812 69.9418312,190.930744 69.9418312,190.930744 L17.1102334,182.221359 C17.1102334,182.221359 17.1102334,182.221359 13.1328546,194.834951 C11.1066427,201.216828 10.7314183,208.049191 12.6075404,214.431068 C14.3335727,220.36246 18.3859964,224.56699 21.0125673,229.972816 C26.340754,241.009709 24.3895871,253.923625 24.5396768,265.711327 C24.6897666,278.475081 15.8344704,308.807767 13.8833034,323.298382 C12.1572711,335.911974 12.6075404,361.439482 12.9077199,374.053074 L28.6671454,373.602589 Z" id="Path" fill="url(#linearGradient-25)"></path>
                        <path d="M57.0341113,105.864078 C57.0341113,105.864078 63.2628366,113.372168 64.6886894,118.252427 C66.864991,125.760518 62.4373429,132.818123 62.0621185,140.176052 C61.086535,157.069256 72.2682226,190.480259 70.3921005,195.285437 C68.4409336,200.090615 42.4754039,195.735922 33.0947935,196.111327 C26.4157989,196.41165 10.5062837,200.991586 6.07863555,198.814239 C1.57594255,196.561812 9.08043088,185.750162 12.6075404,170.208414 C16.1346499,154.741748 5.92854578,121.78123 1.8010772,110.969579 C-0.825493716,104.212298 1.50089767,93.7009709 7.50448833,84.4660194 C9.68078995,81.1624595 11.6319569,78.384466 12.832675,76.7326861 C12.832675,76.6576052 12.9077199,76.6576052 12.9077199,76.6576052 C13.508079,75.8317152 13.8833034,75.3061489 14.0333932,75.1559871 C13.6581688,75.8317152 9.83087971,83.7902913 21.3877917,80.2614887 C30.7684022,77.4084142 35.9464991,77.5585761 39.6987433,78.9100324 L57.0341113,105.864078 Z" id="Path" fill="url(#linearGradient-26)"></path>
                        <path d="M73.4689408,232.225243 C74.0692998,230.34822 73.6190305,227.344984 73.8441652,225.693204 C74.0692998,223.966343 74.3694794,222.990291 73.8441652,221.26343 C72.4183124,216.608414 69.1913824,212.704207 67.8405745,208.049191 C66.864991,204.820712 63.5630162,190.705502 63.5630162,190.705502 C63.5630162,190.705502 59.0603232,172.535922 58.535009,167.430421 C58.0096948,162.324919 55.7583483,154.066019 53.8071813,147.909385 C51.8560144,141.752751 51.4057451,135.220712 51.3307002,126.211003 C51.2556553,121.856311 51.0305206,114.498382 50.805386,108.041424 C50.5802513,101.434304 44.4265709,96.6291262 37.972711,97.9805825 C32.1942549,99.181877 28.2168761,104.662783 28.8922801,110.519094 C29.567684,116.300324 30.3931777,123.207767 31.2186715,127.412298 C32.794614,135.746278 32.6445242,152.864725 35.4962298,158.570874 C38.3479354,164.352104 48.0287253,186.726214 48.0287253,186.726214 C48.0287253,186.726214 56.8089767,203.469256 56.8089767,207.298382 C56.8089767,210.827184 57.1091562,214.355987 58.1597846,217.734628 C58.9102334,220.287379 60.1109515,222.765049 60.7863555,225.39288 C61.1615799,226.819417 62.4373429,231.023948 60.8614004,232.150162 C59.5856373,233.051133 57.4093357,235.904207 58.0847397,236.12945 C58.7601436,236.354693 60.1859964,235.603883 60.1109515,236.354693 C60.0359066,237.105502 61.4617594,238.60712 62.9626571,237.78123 C65.7393178,236.354693 68.816158,235.829126 71.5177738,234.177346 C72.043088,233.877023 72.5684022,233.501618 72.9436266,232.976052 C73.2438061,232.82589 73.3938959,232.525566 73.4689408,232.225243 Z" id="Path" fill="#F7D7C6"></path>
                        <polygon id="Path" fill="#283583" points="122.773429 82.6640777 111.966966 123.958576 95.2319569 122.231715 105.663196 80.8621359"></polygon>
                        <g transform="translate(83.299820, 108.867314)" id="Path">
                            <path d="M0.300179533,12.012945 C3.30197487,12.9889968 6.45385996,13.4394822 7.80466786,12.9889968 C10.6563734,11.9378641 12.1572711,7.95857605 13.7332136,5.55598706 C15.3091562,3.15339806 19.7368043,5.18058252 22.7385996,4.8802589 C25.740395,4.57993528 26.5658887,1.65177994 21.838061,0.675728155 C18.9863555,0.150161812 15.0840215,0.225242718 12.3824057,0.375404531 C8.5551167,3.82912621 3.90233393,8.70938511 3.90233393,8.70938511 C3.1518851,9.7605178 1.87612208,10.8867314 0.300179533,12.012945 Z" fill="#FED2F5"></path>
                            <path d="M0.300179533,12.012945 C3.30197487,12.9889968 6.45385996,13.4394822 7.80466786,12.9889968 C10.6563734,11.9378641 12.1572711,7.95857605 13.7332136,5.55598706 C15.3091562,3.15339806 19.7368043,5.18058252 22.7385996,4.8802589 C25.740395,4.57993528 26.5658887,1.65177994 21.838061,0.675728155 C18.9863555,0.150161812 15.0840215,0.225242718 12.3824057,0.375404531 C8.5551167,3.82912621 3.90233393,8.70938511 3.90233393,8.70938511 C3.1518851,9.7605178 1.87612208,10.8867314 0.300179533,12.012945 Z" fill="url(#linearGradient-27)"></path>
                        </g>
                    </g>
                </g>
            </g>
        </g>
    </g>
</svg>