<?xml version="1.0" encoding="UTF-8"?>
<svg width="470px" height="520px" viewBox="0 0 470 520" version="1.1" xmlns="http://www.w3.org/2000/svg" xmlns:xlink="http://www.w3.org/1999/xlink">
    <!-- Generator: Sketch 53.2 (72643) - https://sketchapp.com -->
    <title>3</title>
    <desc>Created with Sketch.</desc>
    <defs>
        <linearGradient x1="49.9851371%" y1="-43.6240741%" x2="49.9851371%" y2="157.523045%" id="linearGradient-1">
            <stop stop-color="#ECECEC" offset="0%"></stop>
            <stop stop-color="#E7E7E7" offset="100%"></stop>
        </linearGradient>
        <linearGradient x1="49.965756%" y1="5.4768125%" x2="49.965756%" y2="94.2000474%" id="linearGradient-2">
            <stop stop-color="#0C0982" offset="1.813472%"></stop>
            <stop stop-color="#4F5AE0" offset="100%"></stop>
        </linearGradient>
        <linearGradient x1="1.81974519%" y1="49.6906925%" x2="99.9947395%" y2="49.6906925%" id="linearGradient-3">
            <stop stop-color="#F7B500" offset="0%"></stop>
            <stop stop-color="#FF9D33" offset="100%"></stop>
        </linearGradient>
        <linearGradient x1="51.8%" y1="91.6789289%" x2="51.8%" y2="17.6877878%" id="linearGradient-4">
            <stop stop-color="#BFD1FF" offset="1.813472%"></stop>
            <stop stop-color="#FFFFFF" offset="100%"></stop>
        </linearGradient>
        <linearGradient x1="46.85%" y1="47.94%" x2="51.42%" y2="47.94%" id="linearGradient-5">
            <stop stop-color="#2575EC" offset="1.813472%"></stop>
            <stop stop-color="#6A11BB" offset="100%"></stop>
        </linearGradient>
        <linearGradient x1="49.9766339%" y1="121.566436%" x2="49.9766339%" y2="20.6028686%" id="linearGradient-6">
            <stop stop-color="#FFFFFF" offset="0%"></stop>
            <stop stop-color="#E3E3E3" offset="100%"></stop>
        </linearGradient>
        <linearGradient x1="44.0320014%" y1="34.6561337%" x2="60.8723945%" y2="81.3316119%" id="linearGradient-7">
            <stop stop-color="#3E4C9C" offset="0%"></stop>
            <stop stop-color="#6272CB" offset="100%"></stop>
        </linearGradient>
        <linearGradient x1="46.8431507%" y1="33.4157192%" x2="55.7510924%" y2="83.8644928%" id="linearGradient-8">
            <stop stop-color="#3E4C9C" offset="0%"></stop>
            <stop stop-color="#6272CB" offset="100%"></stop>
        </linearGradient>
        <linearGradient x1="-2.99673566%" y1="24.5638929%" x2="104.989691%" y2="76.3506511%" id="linearGradient-9">
            <stop stop-color="#FFDB8D" offset="0%"></stop>
            <stop stop-color="#FFCE9F" offset="51.04%"></stop>
            <stop stop-color="#FFC99F" offset="100%"></stop>
        </linearGradient>
        <linearGradient x1="52.5129693%" y1="62.4465898%" x2="45.4755939%" y2="-15.3812043%" id="linearGradient-10">
            <stop stop-color="#FF8DE5" offset="1.813472%"></stop>
            <stop stop-color="#FFAA9F" offset="51.04%"></stop>
            <stop stop-color="#FFC99F" offset="100%"></stop>
        </linearGradient>
        <linearGradient x1="64.8008409%" y1="24.1943778%" x2="51.8550833%" y2="43.3248759%" id="linearGradient-11">
            <stop stop-color="#FF8DE5" offset="1.813472%"></stop>
            <stop stop-color="#FFAA9F" offset="51.04%"></stop>
            <stop stop-color="#FFC99F" offset="100%"></stop>
        </linearGradient>
        <linearGradient x1="61.8648217%" y1="36.1974624%" x2="49.5599592%" y2="55.9815929%" id="linearGradient-12">
            <stop stop-color="#FF8DE5" offset="1.813472%"></stop>
            <stop stop-color="#FFAA9F" offset="51.04%"></stop>
            <stop stop-color="#FFC99F" offset="100%"></stop>
        </linearGradient>
        <linearGradient x1="39.0801733%" y1="35.2565542%" x2="60.8631201%" y2="62.1417312%" id="linearGradient-13">
            <stop stop-color="#FF8DE5" offset="1.813472%"></stop>
            <stop stop-color="#FFAA9F" offset="51.04%"></stop>
            <stop stop-color="#FFC99F" offset="100%"></stop>
        </linearGradient>
        <linearGradient x1="39.20746%" y1="35.1424467%" x2="60.8404246%" y2="61.9143493%" id="linearGradient-14">
            <stop stop-color="#FF8DE5" offset="1.813472%"></stop>
            <stop stop-color="#FFAA9F" offset="51.04%"></stop>
            <stop stop-color="#FFC99F" offset="100%"></stop>
        </linearGradient>
        <linearGradient x1="34.3394811%" y1="34.5485034%" x2="65.6416944%" y2="66.7724882%" id="linearGradient-15">
            <stop stop-color="#FF8DE5" offset="1.813472%"></stop>
            <stop stop-color="#FFAA9F" offset="51.04%"></stop>
            <stop stop-color="#FFC99F" offset="100%"></stop>
        </linearGradient>
        <linearGradient x1="0.00331528662%" y1="31.447895%" x2="99.9697771%" y2="68.6248974%" id="linearGradient-16">
            <stop stop-color="#FF8DE5" offset="1.813472%"></stop>
            <stop stop-color="#FFAA9F" offset="51.04%"></stop>
            <stop stop-color="#FFC99F" offset="100%"></stop>
        </linearGradient>
        <linearGradient x1="0.00929464286%" y1="27.7783724%" x2="100.116575%" y2="71.996439%" id="linearGradient-17">
            <stop stop-color="#FF8DE5" offset="1.813472%"></stop>
            <stop stop-color="#FFAA9F" offset="51.04%"></stop>
            <stop stop-color="#FFC99F" offset="100%"></stop>
        </linearGradient>
        <linearGradient x1="25.0746161%" y1="26.7191205%" x2="74.5631509%" y2="73.3398094%" id="linearGradient-18">
            <stop stop-color="#FF8DE5" offset="1.813472%"></stop>
            <stop stop-color="#FFAA9F" offset="51.04%"></stop>
            <stop stop-color="#FFC99F" offset="100%"></stop>
        </linearGradient>
        <linearGradient x1="49.7381658%" y1="48.1101183%" x2="50.2486407%" y2="52.2579059%" id="linearGradient-19">
            <stop stop-color="#FF8DE5" offset="1.813472%"></stop>
            <stop stop-color="#FFAA9F" offset="51.04%"></stop>
            <stop stop-color="#FFC99F" offset="100%"></stop>
        </linearGradient>
        <linearGradient x1="49.4086851%" y1="47.014561%" x2="50.5224881%" y2="53.1413584%" id="linearGradient-20">
            <stop stop-color="#FF8DE5" offset="1.813472%"></stop>
            <stop stop-color="#FFAA9F" offset="51.04%"></stop>
            <stop stop-color="#FFC99F" offset="100%"></stop>
        </linearGradient>
        <linearGradient x1="49.4247119%" y1="46.9475833%" x2="50.524097%" y2="53.0345963%" id="linearGradient-21">
            <stop stop-color="#FF8DE5" offset="1.813472%"></stop>
            <stop stop-color="#FFAA9F" offset="51.04%"></stop>
            <stop stop-color="#FFC99F" offset="100%"></stop>
        </linearGradient>
        <linearGradient x1="49.7512289%" y1="47.7758263%" x2="50.2617038%" y2="51.9236139%" id="linearGradient-22">
            <stop stop-color="#FF8DE5" offset="1.813472%"></stop>
            <stop stop-color="#FFAA9F" offset="51.04%"></stop>
            <stop stop-color="#FFC99F" offset="100%"></stop>
        </linearGradient>
        <linearGradient x1="46.3403105%" y1="41.8030783%" x2="53.582815%" y2="57.4264117%" id="linearGradient-23">
            <stop stop-color="#FF8DE5" offset="1.813472%"></stop>
            <stop stop-color="#FFAA9F" offset="51.04%"></stop>
            <stop stop-color="#FFC99F" offset="100%"></stop>
        </linearGradient>
        <linearGradient x1="49.723108%" y1="47.9382157%" x2="50.2655165%" y2="52.0862245%" id="linearGradient-24">
            <stop stop-color="#FF8DE5" offset="1.813472%"></stop>
            <stop stop-color="#FFAA9F" offset="51.04%"></stop>
            <stop stop-color="#FFC99F" offset="100%"></stop>
        </linearGradient>
        <linearGradient x1="46.3954661%" y1="42.414745%" x2="53.6379706%" y2="58.0380783%" id="linearGradient-25">
            <stop stop-color="#FF8DE5" offset="1.813472%"></stop>
            <stop stop-color="#FFAA9F" offset="51.04%"></stop>
            <stop stop-color="#FFC99F" offset="100%"></stop>
        </linearGradient>
        <linearGradient x1="50.2%" y1="13.152079%" x2="50.2%" y2="137.341261%" id="linearGradient-26">
            <stop stop-color="#C9C9C9" offset="0%"></stop>
            <stop stop-color="#E9E9E9" stop-opacity="0" offset="100%"></stop>
        </linearGradient>
        <linearGradient x1="49.9971014%" y1="13.1909768%" x2="49.9971014%" y2="137.264053%" id="linearGradient-27">
            <stop stop-color="#B6B6B6" offset="0%"></stop>
            <stop stop-color="#F4F4F4" stop-opacity="0" offset="100%"></stop>
        </linearGradient>
        <linearGradient x1="47.1056429%" y1="33.4157192%" x2="55.2728888%" y2="83.8644928%" id="linearGradient-28">
            <stop stop-color="#3E4C9C" offset="0%"></stop>
            <stop stop-color="#6272CB" offset="100%"></stop>
        </linearGradient>
        <linearGradient x1="44.5231594%" y1="33.4157192%" x2="59.9776116%" y2="83.8644928%" id="linearGradient-29">
            <stop stop-color="#3E4C9C" offset="0%"></stop>
            <stop stop-color="#6272CB" offset="100%"></stop>
        </linearGradient>
        <linearGradient x1="44.5255561%" y1="33.4157192%" x2="59.9732453%" y2="83.8644928%" id="linearGradient-30">
            <stop stop-color="#3E4C9C" offset="0%"></stop>
            <stop stop-color="#6272CB" offset="100%"></stop>
        </linearGradient>
    </defs>
    <g id="Page-1" stroke="none" stroke-width="1" fill="none" fill-rule="evenodd">
        <g id="homepage" transform="translate(-210.000000, -2905.000000)">
            <rect fill="#FFFFFF" x="0" y="0" width="1400" height="4650"></rect>
            <g id="3" transform="translate(210.000000, 2907.000000)">
                <path d="M10.2409824,280.51064 C-14.9664695,159.182635 43.6193756,65.6744166 83.0000807,44 C122.380786,22.3255834 216.052907,-55.4102455 289.316883,70.5726996 C362.580859,196.555645 505.301803,215.857695 458.5625,317.819534 C411.823197,419.781373 313.021809,495.244122 236.14026,506.698925 C105.805147,526.117928 35.4484343,401.838645 10.2409824,280.51064 Z" id="Rectangle" fill="#F6F8FF" transform="translate(235.956817, 254.553349) scale(-1, -1) rotate(-180.000000) translate(-235.956817, -254.553349) "></path>
                <g id="pic" transform="translate(0.000000, 28.000000)">
                    <ellipse id="Oval" fill="url(#linearGradient-1)" fill-rule="nonzero" cx="121.314805" cy="465.294624" rx="62.46" ry="21.8612903"></ellipse>
                    <g id="Group" transform="translate(57.683117, 62.075269)" fill-rule="nonzero">
                        <path d="M100.134286,388.735125 C100.134286,388.735125 101.576364,395.392473 110.318961,407.087814 C113.473506,411.316129 110.048571,413.295341 107.705195,413.745161 C105.361818,414.194982 102.117143,413.025448 100.314545,411.76595 C98.6020779,410.506452 95.5376623,408.347312 95.3574026,407.267742 C95.1771429,406.188172 94.2758442,401.420072 92.3831169,400.880287 C90.4903896,400.340502 87.1555844,398.721147 86.7049351,397.551613 C86.2542857,396.472043 86.7049351,388.915054 86.7049351,388.915054 L100.134286,388.735125 Z" id="Path" fill="#322A9A"></path>
                        <path d="M36.772987,387.74552 C36.772987,387.74552 35.3309091,394.402867 26.5883117,406.098208 C23.4337662,410.326523 26.8587013,412.305735 29.2020779,412.755556 C31.5454545,413.205376 34.7901299,412.035842 36.5927273,410.776344 C38.3051948,409.516846 41.3696104,407.357706 41.5498701,406.278136 C41.7301299,405.198566 42.6314286,400.430466 44.5241558,399.890681 C46.4168831,399.350896 49.7516883,397.731541 50.2023377,396.562007 C50.652987,395.482437 50.2023377,387.925448 50.2023377,387.925448 L36.772987,387.74552 Z" id="Path" fill="#322A9A"></path>
                        <path d="M52.0049351,112.365233 C53.2667532,105.977778 52.3654545,103.278853 51.9148052,102.199283 C49.301039,100.130108 46.507013,97.0713262 43.6228571,93.562724 C37.6742857,86.3655914 39.2966234,77.8189964 39.4768831,72.6010753 C39.6571429,66.753405 44.7945455,61.9853047 49.7516883,60.1860215 C54.7088312,58.3867384 62.5501299,63.334767 64.4428571,65.9437276 C66.4257143,68.5526882 69.7605195,82.4971326 70.0309091,86.725448 C70.3012987,90.9537634 69.4,95.0021505 68.678961,98.6007168 C68.4085714,99.9501792 67.9579221,101.029749 67.1467532,101.929391 C66.605974,108.766667 74.0867532,128.648746 74.0867532,128.648746 L49.2109091,130.178136 C49.3911688,130.178136 51.1937662,116.773477 52.0049351,112.365233 Z" id="Path" fill="#F7D7C6"></path>
                        <path d="M44.9748052,83.3967742 C42.8116883,80.5179211 42.0005195,79.0784946 42.2709091,77.2792115 C42.6314286,75.2100358 45.1550649,73.9505376 45.9662338,73.590681 C50.652987,71.4315412 53.1766234,74.8501792 58.0436364,72.9609319 C61.3784416,71.7014337 64.532987,68.3727599 64.6231169,68.2827957 L67.9579221,75.8397849 C69.4901299,70.9817204 69.1296104,67.1132616 68.678961,64.9541219 C68.5888312,64.5942652 67.2368831,57.4870968 64.532987,57.3071685 C63.2711688,57.2172043 62.1896104,58.6566308 61.2883117,58.1168459 C60.7475325,57.8469534 60.8376623,57.1272401 60.6574026,56.4075269 C60.1166234,54.0684588 57.592987,51.9992832 55.9706494,51.909319 C53.6272727,51.7293907 52.8161039,55.1480287 49.7516883,58.0268817 C43.4425974,63.7845878 36.0519481,59.7362007 32.4467532,64.2344086 C29.4724675,68.0129032 31.8158442,74.4003584 33.4381818,78.8086022 C33.4381818,78.8086022 29.832987,90.8637993 46.5971429,98.5107527 C46.9576623,98.690681 48.0392208,98.5107527 48.0392208,98.5107527 C48.0392208,98.5107527 44.6142857,90.9537634 46.1464935,88.6146953 C46.8675325,87.4451613 45.785974,84.4763441 44.9748052,83.3967742 Z" id="Path" fill-opacity="0.85" fill="#000000"></path>
                        <path d="M10.9057143,244.972401 C10.9057143,244.972401 9.82415584,252.169534 9.6438961,254.598566 C9.46363636,256.307885 10.1846753,259.906452 9.28337662,261.345878 C8.92285714,261.975627 6.75974026,262.695341 6.48935065,260.626165 C6.21896104,258.556989 6.84987013,253.698925 5.49792208,254.508602 C4.14597403,255.31828 2.25324675,259.096774 3.42493506,261.795699 C4.59662338,264.494624 5.31766234,267.553405 4.05584416,267.193548 C2.7038961,266.833692 0,263.684946 0,260.08638 C0,256.487814 1.35194805,245.872043 3.60519481,243.982796 L10.9057143,244.972401 Z" id="Path" fill="#F7D7C6"></path>
                        <path d="M117.439221,53.3487455 C117.439221,53.3487455 121.945714,38.234767 121.404935,34.816129 C120.954286,31.397491 115.636623,24.3802867 115.366234,21.8612903 C115.095844,18.7125448 112.031429,12.2351254 111.04,11.1555556 C110.228831,10.255914 111.490649,8.54659498 112.662338,9.71612903 C113.834026,10.8856631 116.537922,15.9236559 116.537922,15.9236559 C116.537922,15.9236559 117.349091,15.1139785 117.258961,12.9548387 C117.168831,10.7956989 116.808312,0.899641577 117.98,0.539784946 C121.495065,-0.539784946 129.246234,9.80609319 129.426494,11.1555556 C129.606753,12.5050179 130.598182,20.4218638 130.598182,22.3111111 C130.598182,24.2003584 130.327792,32.0272401 129.336364,34.5462366 C128.344935,37.065233 127.173247,39.4043011 127.083117,41.8333333 C126.992987,44.2623656 126.812727,56.6774194 126.812727,56.6774194 L117.439221,53.3487455 Z" id="Path" fill="#F7D7C6"></path>
                        <path d="M40.1979221,221.491756 C38.7558442,230.128315 36.9532468,243.173118 36.0519481,259.186738 C34.7901299,281.587814 35.9618182,297.421505 36.5927273,311.275986 C37.494026,329.268817 20.82,364.894624 36.6828571,387.835484 C38.5755844,390.624373 50.1122078,388.015412 50.1122078,388.015412 C51.8246753,379.648746 54.6187013,365.794265 56.0607792,349.24086 C58.0436364,326.210036 56.6015584,316.493907 59.2153247,297.241577 C60.4771429,287.795341 63.0909091,273.850896 68.8592208,257.027599 C70.8420779,262.335484 73.2755844,269.442652 75.7090909,278.079211 C78.1425974,286.895699 82.1083117,301.020072 83.7306494,317.843369 C86.2542857,345.462366 80.0353247,355.628315 86.074026,385.316487 C86.4345455,386.935842 86.7049351,388.285305 86.8851948,389.184946 C86.8851948,389.184946 98.1514286,390.894265 100.494805,388.465233 C114.104416,374.250896 102.387532,348.701075 102.027013,328.189247 C101.666494,307.587455 100.945455,287.435484 100.044156,267.733333 C100.044156,267.733333 99.3231169,244.432616 97.9711688,237.14552 C96.6192208,229.768459 95.6277922,219.602509 95.6277922,217.443369 L40.1979221,221.491756 Z" id="Path" fill="url(#linearGradient-2)"></path>
                        <path d="M50.9233766,119.022581 C50.9233766,119.022581 32.627013,129.008602 27.4896104,132.247312 C22.3522078,135.486022 22.2620779,142.773118 22.1719481,145.8319 C22.0818182,148.890681 15.7727273,173.54086 15.7727273,173.54086 C15.7727273,173.54086 8.20181818,203.948746 6.75974026,209.346595 C5.22753247,214.744444 -2.34337662,237.505376 3.24467532,244.252688 C4.50649351,245.782079 10.9057143,245.15233 10.9057143,245.15233 L23.9745455,208.80681 C28.6612987,196.0319 32.3566234,170.9319 32.4467532,169.672401 C32.5368831,168.322939 32.7171429,168.232975 33.978961,168.862724 C35.2407792,169.492473 38.3953247,181.277778 39.1163636,187.845161 C39.8374026,194.412545 38.0348052,225.090323 38.0348052,225.090323 C38.0348052,225.090323 38.3953247,218.882796 60.1166234,223.560932 C81.8379221,228.239068 95.5376623,217.353405 95.5376623,217.353405 C94.9968831,207.997133 86.6148052,154.468459 91.2114286,134.58638 C92.6535065,128.468817 101.846753,115.783871 105.091429,111.285663 C108.336104,106.787455 119.962857,80.0681004 122.396364,74.4003584 C124.82987,68.7326165 131.229091,55.7777778 128.615325,50.0200717 C127.353506,47.4111111 121.044416,43.1827957 118.430649,44.3523297 C108.606494,48.6706093 104.28026,73.3207885 100.945455,83.3967742 C98.8724675,89.6043011 92.6535065,101.749462 88.5976623,106.337634 C84.5418182,110.925806 69.6703896,115.064158 70.3914286,117.313262 C74.8077922,131.977419 50.9233766,119.022581 50.9233766,119.022581 Z" id="Path" fill="url(#linearGradient-3)"></path>
                    </g>
                    <path d="M183.594545,0.629749104 L183.594545,180.378136" id="Path" fill="url(#linearGradient-4)" fill-rule="nonzero"></path>
                    <path d="M0.721038961,335.746237 C0.721038961,335.836201 0.721038961,335.836201 0.721038961,335.746237 L0.721038961,335.746237 C0.721038961,335.746237 0.721038961,335.746237 0.721038961,335.746237 Z" id="Path" fill="url(#linearGradient-5)" fill-rule="nonzero"></path>
                    <g id="Group" transform="translate(173.049351, 2.698925)">
                        <polygon id="Path" fill="url(#linearGradient-6)" fill-rule="nonzero" points="165.658701 475.460573 17.8457143 390.264516 17.8457143 3.68853047 165.658701 88.8845878"></polygon>
                        <path d="M156.465455,437.765591 L26.6784416,362.915412 C23.3436364,361.026165 20.6397403,355.898208 20.6397403,351.4 L20.6397403,45.1620072 C20.6397403,40.7537634 23.3436364,38.6845878 26.6784416,40.6637993 L156.465455,115.513978 C159.80026,117.403226 162.504156,122.531183 162.504156,127.029391 L162.504156,433.267384 C162.504156,437.585663 159.80026,439.654839 156.465455,437.765591 Z" id="Path" fill="#FFFFFF" fill-rule="nonzero"></path>
                        <ellipse id="Oval" fill="#FFFFFF" fill-rule="nonzero" transform="translate(70.426165, 49.622322) rotate(-23.052647) translate(-70.426165, -49.622322) " cx="70.4261646" cy="49.6223222" rx="2.61318613" ry="4.58974039"></ellipse>
                        <path d="M112.842597,78.0888889 L82.1984416,60.3659498 C80.6662338,59.4663082 79.4044156,57.037276 79.4044156,54.9681004 L79.4044156,54.5182796 C79.4044156,52.4491039 80.6662338,51.4594982 82.1984416,52.3591398 L112.842597,70.0820789 C114.374805,70.9817204 115.636623,73.4107527 115.636623,75.4799283 L115.636623,75.9297491 C115.726753,78.0888889 114.464935,78.9885305 112.842597,78.0888889 Z" id="Path" fill="#FFFFFF" fill-rule="nonzero"></path>
                        <path d="M162.504156,176.329749 L20.6397403,94.5523297 L20.6397403,45.1620072 C20.6397403,40.7537634 23.3436364,38.6845878 26.6784416,40.5738351 L156.465455,115.33405 C159.80026,117.223297 162.504156,122.441219 162.504156,126.849462 L162.504156,176.329749 Z" id="Path" fill="url(#linearGradient-7)" fill-rule="nonzero"></path>
                        <path d="M159.259481,242.633333 L159.259481,340.424373 C159.259481,344.832616 156.555584,346.901792 153.220779,344.922581 L29.7428571,279.518638 C26.4080519,277.629391 23.7041558,272.501434 23.7041558,268.09319 L23.7041558,164.544444 C23.7041558,160.136201 26.4080519,158.067025 29.7428571,160.046237 L153.220779,231.207885 C156.555584,233.097133 159.259481,238.22509 159.259481,242.633333 Z" id="Path" fill="url(#linearGradient-8)" fill-rule="nonzero"></path>
                        <g transform="translate(27.940260, 112.455197)" fill-rule="nonzero" id="Path">
                            <g>
                                <path d="M104.19013,88.434767 L3.42493506,30.3179211 C1.89272727,29.4182796 0.630909091,27.0792115 0.630909091,25.0100358 L0.630909091,2.69892473 C0.630909091,0.629749104 1.89272727,-0.269892473 3.42493506,0.629749104 L104.19013,58.746595 C105.722338,59.6462366 106.984156,61.9853047 106.984156,64.0544803 L106.984156,86.3655914 C106.984156,88.434767 105.812468,89.3344086 104.19013,88.434767 Z" fill="url(#linearGradient-9)"></path>
                                <g transform="translate(9.012987, 13.494624)" fill="#FFFFFF">
                                    <g transform="translate(14.420779, 8.096774)">
                                        <polygon points="32.627013 30.1379928 0.18025974 11.425448 0.18025974 9.17634409 32.627013 27.8888889"></polygon>
                                        <polygon points="11.7168831 9.17634409 0.18025974 2.51899642 0.18025974 0.269892473 11.7168831 6.92724014"></polygon>
                                    </g>
                                    <path d="M6.12883117,14.6641577 L2.79402597,12.6849462 C1.26181818,11.7853047 0,9.44623656 0,7.37706093 L0,2.87885305 C0,0.809677419 1.26181818,-0.0899641577 2.79402597,0.809677419 L6.12883117,2.78888889 C7.66103896,3.68853047 8.92285714,6.02759857 8.92285714,8.09677419 L8.92285714,12.5949821 C8.92285714,14.6641577 7.75116883,15.5637993 6.12883117,14.6641577 Z"></path>
                                </g>
                            </g>
                            <g transform="translate(63.090909, 38.684588)" fill="#FFFFFF">
                                <polygon points="2.52363636 1.16953405 0.811168831 0.179928315 0.811168831 22.5810036 2.52363636 23.5706093"></polygon>
                                <polygon points="7.57090909 11.5154122 5.85844156 10.5258065 5.85844156 25.4598566 7.57090909 26.4494624"></polygon>
                                <polygon points="22.6225974 20.2419355 21.0002597 19.2523297 21.0002597 34.1863799 22.6225974 35.1759857"></polygon>
                                <polygon points="12.5280519 7.0172043 10.9057143 6.02759857 10.9057143 28.3387097 12.5280519 29.3283154"></polygon>
                                <polygon points="17.5753247 26.9892473 15.952987 26.0896057 15.952987 31.3075269 17.5753247 32.2071685"></polygon>
                                <polygon points="27.6698701 15.6537634 26.0475325 14.7541219 26.0475325 37.065233 27.6698701 38.0548387"></polygon>
                                <polygon points="32.7171429 35.7157706 31.0948052 34.7261649 31.0948052 39.944086 32.7171429 40.9336918"></polygon>
                            </g>
                        </g>
                        <g transform="translate(26.137662, 298.681004)" fill-rule="nonzero" id="Path">
                            <path d="M46.2366234,46.9612903 C46.2366234,56.1376344 43.1722078,62.8849462 37.8545455,65.583871 C37.4038961,65.8537634 36.8631169,66.0336918 36.3223377,66.2136201 C35.9618182,65.583871 35.6012987,64.8641577 35.3309091,63.9645161 C35.0605195,63.1548387 34.9703896,62.4351254 34.7901299,61.7154122 C33.3480519,52.8989247 39.9275325,49.4802867 41.4597403,47.8609319 C43.1722078,46.1516129 42.1807792,40.0340502 41.0992208,36.7053763 C40.1077922,33.3767025 36.3223377,29.4182796 32.1763636,21.5014337 C28.0303896,13.5845878 23.614026,14.7541219 20.1890909,15.0240143 C17.3950649,15.2939068 14.4207792,11.425448 13.3392208,9.98602151 C13.0688312,9.62616487 12.9787013,9.44623656 12.9787013,9.44623656 C12.9787013,9.44623656 11.7168831,7.19713262 10.9057143,5.48781362 C10.5451948,4.58817204 10.2748052,3.86845878 10.3649351,3.59856631 C10.5451948,3.23870968 10.8155844,2.06917563 11.1761039,0.899641577 C14.7812987,0 18.9272727,0.809677419 23.2535065,3.23870968 C35.9618182,10.7956989 46.2366234,30.227957 46.2366234,46.9612903 Z" fill="url(#linearGradient-10)" opacity="0.4"></path>
                            <path d="M46.2366234,46.9612903 C46.2366234,56.1376344 43.1722078,62.8849462 37.8545455,65.583871 C37.2236364,64.9541219 36.6828571,64.1444444 36.2322078,63.334767 C35.9618182,62.7050179 35.6914286,62.0752688 35.5111688,61.4455197 C33.7987013,56.0476703 34.9703896,51.4594982 35.8716883,50.3799283 C36.8631169,49.1204301 41.7301299,46.8713262 42.361039,44.0824373 C43.0820779,41.2935484 36.8631169,34.5462366 33.0776623,30.0480287 C29.2922078,25.5498208 30.6441558,21.8612903 30.3737662,19.3422939 C30.0132468,16.8232975 26.9488312,17.3630824 23.5238961,17.6329749 C20.098961,17.9028674 15.952987,10.9756272 15.952987,10.9756272 C15.952987,10.9756272 13.5194805,8.63655914 11.807013,7.19713262 C11.2662338,6.74731183 10.8155844,6.02759857 10.3649351,5.03799283 C10.0044156,4.22831541 9.73402597,3.32867384 9.46363636,2.42903226 C9.46363636,1.88924731 9.73402597,1.43942652 10.0945455,1.34946237 C13.9701299,-0.0899641577 18.5667532,0.629749104 23.2535065,3.32867384 C35.9618182,10.7956989 46.2366234,30.227957 46.2366234,46.9612903 Z" fill="url(#linearGradient-11)" opacity="0.3"></path>
                            <path d="M29.3823377,63.0648746 C29.1119481,63.1548387 28.8415584,63.1548387 28.5711688,63.1548387 C24.965974,63.6046595 20.9101299,62.165233 16.9444156,59.1964158 C7.48077922,50.0200717 0.630909091,34.4562724 0.630909091,20.6917563 L0.630909091,20.4218638 C0.811168831,18.9824373 1.08155844,17.5430108 1.53220779,16.1935484 C2.79402597,12.4150538 4.86701299,9.71612903 7.66103896,8.45663082 C8.02155844,8.27670251 8.29194805,8.18673835 8.65246753,8.00681004 C9.01298701,7.91684588 9.37350649,8.00681004 9.73402597,8.36666667 C10.0945455,9.08637993 10.4550649,9.80609319 10.7254545,10.5258065 C10.9958442,11.3354839 11.1761039,12.0551971 11.085974,12.5949821 C10.9057143,14.3942652 10.7254545,17.09319 10.7254545,17.09319 C10.7254545,17.09319 12.2576623,23.6605735 9.91428571,25.1899642 C7.57090909,26.809319 5.31766234,28.0688172 6.57948052,29.8681004 C7.8412987,31.5774194 10.9057143,33.2867384 11.1761039,38.0548387 C11.3563636,41.2935484 11.4464935,45.8817204 12.1675325,48.8505376 C12.5280519,50.2 12.9787013,51.2795699 13.6096104,51.7293907 C13.88,51.909319 14.2405195,52.0892473 14.601039,52.1792115 C16.8542857,52.8989247 20.2792208,52.0892473 21.4509091,52.2691756 C22.7127273,52.4491039 26.2277922,54.788172 28.3007792,59.1064516 C28.5711688,59.5562724 28.7514286,60.0960573 28.9316883,60.6358423 C29.2922078,61.5354839 29.3823377,62.2551971 29.3823377,63.0648746 Z" fill="url(#linearGradient-12)" opacity="0.3"></path>
                            <path d="M29.1119481,59.7362007 C29.1119481,61.3555556 29.0218182,62.6150538 28.8415584,63.7845878 C28.6612987,64.7741935 28.3909091,65.583871 28.1205195,66.2136201 C28.0303896,66.2136201 27.9402597,66.2136201 27.76,66.1236559 C26.3179221,65.6738351 24.8758442,65.044086 23.4337662,64.2344086 C10.9057143,56.9473118 0.630909091,37.5150538 0.630909091,20.7817204 C0.630909091,14.3942652 2.07298701,9.17634409 4.86701299,5.57777778 C5.04727273,5.3078853 5.31766234,5.21792115 5.58805195,5.21792115 L7.66103896,8.45663082 L9.19324675,10.7956989 C9.19324675,10.7956989 11.8971429,14.2143369 10.9057143,15.4738351 C9.91428571,16.7333333 6.12883117,22.7609319 9.55376623,25.1899642 C12.9787013,27.6189964 16.4036364,30.9476703 16.0431169,33.4666667 C15.6825974,35.9856631 12.2576623,44.5322581 16.7641558,47.0512545 C21.2706494,49.5702509 29.1119481,52.8989247 29.1119481,59.7362007 Z" fill="url(#linearGradient-13)" opacity="0.3"></path>
                            <path d="M28.0303896,66.2136201 C27.9402597,66.2136201 27.8501299,66.2136201 27.6698701,66.1236559 C26.2277922,65.6738351 24.7857143,65.044086 23.3436364,64.2344086 C21.0903896,62.9749104 18.9272727,61.2655914 16.8542857,59.2863799 C7.39064935,50.1100358 0.540779221,34.5462366 0.540779221,20.7817204 L0.540779221,20.511828 C0.540779221,14.2143369 2.07298701,9.08637993 4.77688312,5.57777778 C4.95714286,5.3078853 5.22753247,5.21792115 5.49792208,5.21792115 C5.94857143,5.21792115 6.48935065,5.66774194 6.94,6.29749104 C7.39064935,7.0172043 7.57090909,7.82688172 7.57090909,8.45663082 C7.57090909,8.45663082 7.57090909,8.54659498 7.57090909,8.54659498 C7.57090909,8.90645161 7.48077922,9.17634409 7.30051948,9.3562724 C4.86701299,12.4150538 3.60519481,17.0032258 3.60519481,22.4910394 C3.60519481,31.397491 6.94,41.2935484 12.1675325,49.0304659 C12.9787013,50.2 13.7898701,51.2795699 14.601039,52.3591398 C17.2148052,55.5978495 20.1890909,58.2967742 23.3436364,60.0960573 C24.6054545,60.8157706 25.8672727,61.3555556 27.038961,61.8053763 C27.5797403,61.9853047 28.1205195,62.5250896 28.481039,63.2448029 C28.5711688,63.4247312 28.6612987,63.6046595 28.7514286,63.7845878 C28.8415584,64.0544803 28.8415584,64.2344086 28.9316883,64.5043011 C29.0218182,65.4939068 28.6612987,66.2136201 28.0303896,66.2136201 Z" fill="url(#linearGradient-14)"></path>
                            <path d="M46.2366234,46.9612903 C46.2366234,56.1376344 43.1722078,62.8849462 37.8545455,65.583871 C37.4038961,65.8537634 36.8631169,66.0336918 36.3223377,66.2136201 C36.2322078,66.2136201 36.2322078,66.2136201 36.1420779,66.3035842 C35.8716883,66.3935484 35.6012987,66.3035842 35.2407792,66.1236559 C34.7901299,65.8537634 34.2493506,65.2240143 33.978961,64.5043011 C33.5283117,63.2448029 33.7085714,62.0752688 34.4296104,61.8953405 C34.6098701,61.8053763 34.7,61.8053763 34.8802597,61.7154122 C35.0605195,61.625448 35.3309091,61.5354839 35.5111688,61.4455197 C40.2880519,59.1964158 43.0820779,53.2587814 43.0820779,45.1620072 C43.0820779,30.6777778 34.2493506,13.8544803 23.3436364,7.55698925 C19.1976623,5.21792115 15.3220779,4.58817204 11.8971429,5.84767025 C11.6267532,5.93763441 11.2662338,5.84767025 10.9958442,5.66774194 C10.8155844,5.57777778 10.6353247,5.39784946 10.4550649,5.21792115 C10.1846753,4.94802867 10.0044156,4.58817204 9.82415584,4.13835125 C9.6438961,3.59856631 9.55376623,3.05878136 9.55376623,2.60896057 C9.55376623,2.06917563 9.82415584,1.61935484 10.1846753,1.52939068 C10.5451948,1.34946237 10.9057143,1.25949821 11.3563636,1.16953405 C14.9615584,0.269892473 19.1075325,1.07956989 23.4337662,3.50860215 C35.9618182,10.7956989 46.2366234,30.227957 46.2366234,46.9612903 Z" fill="url(#linearGradient-15)"></path>
                        </g>
                        <g transform="translate(61.288312, 192.523297)" fill-rule="nonzero" id="Path">
                            <g>
                                <path d="M90.6706494,76.9193548 L2.88415584,26.3594982 C1.53220779,25.5498208 0.450649351,23.4806452 0.450649351,21.681362 L0.450649351,2.24910394 C0.450649351,0.449820789 1.53220779,-0.359856631 2.88415584,0.449820789 L90.6706494,51.0096774 C92.0225974,51.8193548 93.1041558,53.8885305 93.1041558,55.6878136 L93.1041558,75.1200717 C93.1942857,76.9193548 92.0225974,77.7290323 90.6706494,76.9193548 Z" fill="#FFFFFF"></path>
                                <g transform="translate(7.210390, 11.695341)">
                                    <g transform="translate(12.618182, 7.197133)">
                                        <polygon fill="url(#linearGradient-16)" points="28.9316883 26.0896057 0.630909091 9.80609319 0.630909091 7.82688172 28.9316883 24.1103943"></polygon>
                                        <polygon fill="url(#linearGradient-17)" points="10.7254545 7.82688172 0.630909091 1.97921147 0.630909091 0.0899641577 10.7254545 5.84767025"></polygon>
                                    </g>
                                    <path d="M5.94857143,12.7749104 L3.06441558,11.0655914 C1.71246753,10.255914 0.630909091,8.18673835 0.630909091,6.3874552 L0.630909091,2.51899642 C0.630909091,0.719713262 1.71246753,-0.0899641577 3.06441558,0.719713262 L5.94857143,2.42903226 C7.30051948,3.23870968 8.38207792,5.3078853 8.38207792,7.10716846 L8.38207792,10.9756272 C8.38207792,12.6849462 7.30051948,13.5845878 5.94857143,12.7749104 Z" fill="url(#linearGradient-18)"></path>
                                </g>
                            </g>
                            <g transform="translate(54.979221, 33.286738)">
                                <polygon fill="url(#linearGradient-19)" points="2.07298701 1.34946237 0.630909091 0.449820789 0.630909091 19.972043 2.07298701 20.7817204"></polygon>
                                <polygon fill="url(#linearGradient-20)" points="6.48935065 10.3458781 5.04727273 9.53620072 5.04727273 22.4910394 6.48935065 23.3007168"></polygon>
                                <polygon fill="url(#linearGradient-21)" points="19.6483117 17.9928315 18.2062338 17.09319 18.2062338 30.0480287 19.6483117 30.9476703"></polygon>
                                <polygon fill="url(#linearGradient-22)" points="10.8155844 6.3874552 9.37350649 5.57777778 9.37350649 25.0100358 10.8155844 25.9096774"></polygon>
                                <polygon fill="url(#linearGradient-23)" points="15.2319481 23.8405018 13.7898701 23.0308244 13.7898701 27.5290323 15.2319481 28.4286738"></polygon>
                                <polygon fill="url(#linearGradient-24)" points="24.0646753 13.9444444 22.5324675 13.134767 22.5324675 32.6569892 24.0646753 33.4666667"></polygon>
                                <polygon fill="url(#linearGradient-25)" points="28.3909091 31.4874552 26.9488312 30.5878136 26.9488312 35.1759857 28.3909091 35.9856631"></polygon>
                            </g>
                        </g>
                        <polygon id="Path" fill="url(#linearGradient-26)" fill-rule="nonzero" points="173.31974 85.8258065 165.658701 88.8845878 165.658701 475.460573 173.31974 472.401792"></polygon>
                        <polygon id="Path" fill="url(#linearGradient-27)" fill-rule="nonzero" points="25.5067532 0.539784946 17.8457143 3.68853047 165.658701 88.8845878 173.31974 85.8258065"></polygon>
                        <g transform="translate(0.000000, 46.781362)">
                            <ellipse id="Oval" fill="#FFFFFF" fill-rule="nonzero" transform="translate(17.836161, 21.924715) rotate(-22.885625) translate(-17.836161, -21.924715) " cx="17.8361605" cy="21.9247151" rx="10.6325709" ry="18.8080952"></ellipse>
                            <path d="M28.0303896,27.978853 C28.0303896,35.6258065 23.3436364,39.2243728 17.4851948,35.8956989 C11.6267532,32.5670251 6.94,23.6605735 6.94,16.0136201 C6.94,8.36666667 11.6267532,4.76810036 17.4851948,8.09677419 C23.3436364,11.425448 28.0303896,20.3318996 28.0303896,27.978853 Z" id="Path" fill="url(#linearGradient-28)" fill-rule="nonzero"></path>
                            <polyline id="Path" stroke="#FFFFFF" stroke-width="2.63502" stroke-linecap="round" stroke-linejoin="round" points="11.9872727 20.0620072 16.1332468 27.2591398 22.7127273 19.2523297"></polyline>
                        </g>
                        <g transform="translate(23.433766, 206.917563)" fill="#FFFFFF" fill-rule="nonzero" id="Path">
                            <path d="M135.825714,97.4311828 L135.825714,125.230108 L14.8714286,59.8261649 L11.2662338,57.8469534 L6.0387013,55.0580645 L0.360519481,51.9992832 L0.360519481,0.0899641577 C4.68675325,0.809677419 11.5366234,2.60896057 19.8285714,7.19713262 C22.0818182,8.45663082 24.1548052,9.71612903 26.2277922,11.1555556 C38.3051948,19.4322581 47.9490909,30.5878136 56.6916883,42.0132616 C61.8290909,48.7605735 66.6961039,55.5978495 71.472987,61.9853047 C80.3958442,73.8605735 89.3187013,84.1164875 100.224416,89.0645161 C101.035584,89.4243728 101.936883,89.7842294 102.748052,90.144086 L120.593766,94.102509 L135.825714,97.4311828 Z" opacity="0.5"></path>
                            <path d="M135.825714,125.320072 L14.8714286,59.916129 L51.6444156,79.888172 L11.2662338,57.9369176 L0.901298701,52.2691756 L0.360519481,51.9992832 L0.360519481,32.3870968 C0.540779221,32.2971326 0.721038961,32.1172043 0.901298701,31.937276 C4.68675325,28.4286738 15.5023377,17.1831541 26.2277922,11.2455197 C26.2277922,11.2455197 26.3179221,11.2455197 26.3179221,11.2455197 C33.0776623,7.46702509 39.8374026,5.93763441 44.6142857,9.89605735 C51.1036364,15.2939068 60.6574026,30.227957 70.0309091,45.5218638 C73.6361039,51.3695341 77.2412987,57.3071685 80.5761039,62.7949821 C87.425974,73.9505376 93.4646753,83.30681 97.16,86.5455197 C98.1514286,87.4451613 99.1428571,88.2548387 100.134286,89.1544803 C100.224416,89.2444444 100.224416,89.2444444 100.314545,89.3344086 L100.314545,89.3344086 C110.679481,98.1508961 122.125974,105.887814 135.735584,99.3204301 L135.735584,125.320072 L135.825714,125.320072 Z" opacity="0.6"></path>
                            <path d="M135.825714,97.521147 L135.825714,125.320072 L14.8714286,59.916129 L0.901298701,52.3591398 L0.360519481,52.0892473 L0.360519481,32.5670251 C0.540779221,32.5670251 0.721038961,32.6569892 0.901298701,32.6569892 C7.75116883,33.5566308 34.3394805,37.1551971 56.6916883,42.19319 C56.8719481,42.19319 57.0522078,42.2831541 57.3225974,42.2831541 C61.8290909,43.2727599 66.2454545,44.4422939 70.121039,45.5218638 C78.9537662,48.0408602 85.8937662,50.8297491 88.4174026,53.7086022 C91.2114286,56.8573477 93.2844156,60.455914 95.087013,64.2344086 C99.8638961,74.0405018 102.657922,84.5663082 111.580779,89.8741935 C114.645195,91.6734767 117.70961,93.1129032 120.593766,94.102509 C121.855584,94.5523297 123.117403,95.0021505 124.379221,95.3620072 C124.379221,95.3620072 124.379221,95.3620072 124.379221,95.3620072 C127.353506,96.2616487 129.967273,96.8014337 132.04026,97.0713262 C132.04026,97.0713262 132.04026,97.0713262 132.04026,97.0713262 L132.04026,97.0713262 C133.752727,97.3412186 135.104675,97.4311828 135.825714,97.521147 Z" opacity="0.7"></path>
                            <path d="M135.825714,97.2512545 L135.825714,125.320072 L14.8714286,59.916129 L51.6444156,79.888172 L11.2662338,57.9369176 L6.0387013,55.1480287 L0.901298701,52.3591398 L0.360519481,52.0892473 L0.360519481,35.0860215 C0.540779221,35.1759857 0.721038961,35.2659498 0.901298701,35.4458781 C9.55376623,40.6637993 41.3696104,59.3763441 56.241039,60.9057348 C60.5672727,61.3555556 65.8849351,61.7154122 71.472987,62.165233 C71.6532468,62.165233 71.8335065,62.165233 72.0137662,62.165233 L72.0137662,62.165233 C74.8979221,62.3451613 77.7820779,62.6150538 80.6662338,62.7949821 C85.7135065,63.1548387 90.6706494,63.6046595 95.1771429,64.2344086 C103.198701,65.2240143 109.688052,66.5734767 112.301818,68.462724 C118.971429,73.4107527 135.825714,97.2512545 135.825714,97.2512545 Z" opacity="0.4"></path>
                        </g>
                        <g transform="translate(89.228571, 322.071685)" fill-rule="nonzero" id="Path">
                            <path d="M55.4298701,60.9956989 L2.79402597,30.6777778 C1.26181818,29.7781362 0,27.4390681 0,25.3698925 L0,2.9688172 C0,0.899641577 1.26181818,5.11812814e-14 2.79402597,0.899641577 L55.4298701,31.2175627 C56.9620779,32.1172043 58.2238961,34.4562724 58.2238961,36.525448 L58.2238961,58.9265233 C58.2238961,60.9057348 56.9620779,61.8953405 55.4298701,60.9956989 Z" fill="url(#linearGradient-29)"></path>
                            <g transform="translate(5.407792, 12.594982)" fill="#FFFFFF">
                                <g transform="translate(14.420779, 7.197133)">
                                    <polygon points="32.8072727 30.6777778 0.360519481 11.8752688 0.360519481 9.71612903 32.8072727 28.4286738"></polygon>
                                    <polygon points="11.8971429 9.62616487 0.360519481 2.9688172 0.360519481 0.719713262 11.8971429 7.46702509"></polygon>
                                </g>
                                <path d="M6.30909091,14.3043011 L2.97428571,12.3250896 C1.44207792,11.425448 0.18025974,9.08637993 0.18025974,7.0172043 L0.18025974,2.51899642 C0.18025974,0.449820789 1.44207792,-0.449820789 2.97428571,0.449820789 L6.30909091,2.42903226 C7.8412987,3.32867384 9.10311688,5.66774194 9.10311688,7.73691756 L9.10311688,12.2351254 C9.19324675,14.2143369 7.93142857,15.2039427 6.30909091,14.3043011 Z"></path>
                            </g>
                        </g>
                        <g transform="translate(85.623377, 358.057348)" fill-rule="nonzero" id="Path">
                            <path d="M55.8805195,61.0856631 L3.24467532,30.7677419 C1.71246753,29.8681004 0.450649351,27.5290323 0.450649351,25.4598566 L0.450649351,3.05878136 C0.450649351,0.989605735 1.71246753,0.0899641577 3.24467532,0.989605735 L55.8805195,31.3075269 C57.4127273,32.2071685 58.6745455,34.5462366 58.6745455,36.6154122 L58.6745455,59.0164875 C58.6745455,61.0856631 57.4127273,61.9853047 55.8805195,61.0856631 Z" fill="url(#linearGradient-30)"></path>
                            <g transform="translate(5.407792, 12.594982)" fill="#FFFFFF">
                                <g transform="translate(14.420779, 8.096774)">
                                    <polygon points="33.2579221 29.8681004 0.811168831 11.1555556 0.811168831 8.90645161 33.2579221 27.6189964"></polygon>
                                    <polygon points="12.3477922 8.90645161 0.811168831 2.24910394 0.811168831 0 12.3477922 6.65734767"></polygon>
                                </g>
                                <path d="M6.75974026,14.3942652 L3.42493506,12.4150538 C1.89272727,11.5154122 0.630909091,9.17634409 0.630909091,7.10716846 L0.630909091,2.60896057 C0.630909091,0.539784946 1.89272727,-0.359856631 3.42493506,0.539784946 L6.75974026,2.51899642 C8.29194805,3.41863799 9.55376623,5.75770609 9.55376623,7.82688172 L9.55376623,12.3250896 C9.55376623,14.3043011 8.38207792,15.2939068 6.75974026,14.3942652 Z"></path>
                            </g>
                        </g>
                    </g>
                </g>
            </g>
        </g>
    </g>
</svg>