<?xml version="1.0" encoding="UTF-8"?>
<svg width="501px" height="456px" viewBox="0 0 501 456" version="1.1" xmlns="http://www.w3.org/2000/svg" xmlns:xlink="http://www.w3.org/1999/xlink">
    <!-- Generator: Sketch 53.2 (72643) - https://sketchapp.com -->
    <title>1</title>
    <desc>Created with Sketch.</desc>
    <defs>
        <linearGradient x1="1.81974519%" y1="49.6906925%" x2="99.9947395%" y2="49.6906925%" id="linearGradient-1">
            <stop stop-color="#F7B500" offset="0%"></stop>
            <stop stop-color="#FF9D33" offset="100%"></stop>
        </linearGradient>
        <linearGradient x1="1.8150835%" y1="49.9528509%" x2="100.071053%" y2="49.9528509%" id="linearGradient-2">
            <stop stop-color="#F4D177" offset="0%"></stop>
            <stop stop-color="#F6E195" offset="100%"></stop>
        </linearGradient>
        <linearGradient x1="45.4625934%" y1="122.151026%" x2="49.8105266%" y2="38.6154262%" id="linearGradient-3">
            <stop stop-color="#B23696" stop-opacity="0" offset="0%"></stop>
            <stop stop-color="#B83F9B" stop-opacity="0.05362695" offset="49.48%"></stop>
            <stop stop-color="#D367B1" stop-opacity="0.3" offset="100%"></stop>
        </linearGradient>
        <linearGradient x1="62.8943374%" y1="34.6911813%" x2="40.7379898%" y2="60.4897888%" id="linearGradient-4">
            <stop stop-color="#F7B500" offset="0%"></stop>
            <stop stop-color="#FF8F00" offset="100%"></stop>
        </linearGradient>
        <linearGradient x1="52.1574273%" y1="34.6911813%" x2="48.4503187%" y2="60.4897888%" id="linearGradient-5">
            <stop stop-color="#F7B500" offset="0%"></stop>
            <stop stop-color="#FF8F00" offset="100%"></stop>
        </linearGradient>
        <linearGradient x1="0.831471295%" y1="50.0871595%" x2="99.3772727%" y2="50.0871595%" id="linearGradient-6">
            <stop stop-color="#FFFFFF" offset="0%"></stop>
            <stop stop-color="#DEDEDE" offset="100%"></stop>
        </linearGradient>
        <linearGradient x1="1.87066976%" y1="49.3328767%" x2="100.072245%" y2="49.3328767%" id="linearGradient-7">
            <stop stop-color="#F4B977" offset="0%"></stop>
            <stop stop-color="#F6CE95" offset="100%"></stop>
        </linearGradient>
        <linearGradient x1="1.87066976%" y1="49.3328767%" x2="100.072245%" y2="49.3328767%" id="linearGradient-8">
            <stop stop-color="#F4B977" offset="0%"></stop>
            <stop stop-color="#F6CE95" offset="100%"></stop>
        </linearGradient>
        <linearGradient x1="1.81974519%" y1="49.6906925%" x2="99.9947395%" y2="49.6906925%" id="linearGradient-9">
            <stop stop-color="#000000" stop-opacity="0.1" offset="0%"></stop>
            <stop stop-color="#000000" stop-opacity="0.25" offset="100%"></stop>
        </linearGradient>
        <linearGradient x1="1.80357566%" y1="50.6013514%" x2="99.9818486%" y2="50.6013514%" id="linearGradient-10">
            <stop stop-color="#000000" stop-opacity="0.25" offset="0%"></stop>
            <stop stop-color="#000000" stop-opacity="0.25" offset="100%"></stop>
        </linearGradient>
        <linearGradient x1="1.80357566%" y1="50.6013514%" x2="99.9818486%" y2="50.6013514%" id="linearGradient-11">
            <stop stop-color="#000000" stop-opacity="0.25" offset="0%"></stop>
            <stop stop-color="#000000" stop-opacity="0.25" offset="100%"></stop>
        </linearGradient>
        <linearGradient x1="0.831471295%" y1="50.0871595%" x2="99.3772727%" y2="50.0871595%" id="linearGradient-12">
            <stop stop-color="#FFFFFF" offset="0%"></stop>
            <stop stop-color="#DEDEDE" offset="100%"></stop>
        </linearGradient>
        <linearGradient x1="0.0211663984%" y1="49.7659886%" x2="99.2789398%" y2="49.7659886%" id="linearGradient-13">
            <stop stop-color="#6E8BF0" offset="0%"></stop>
            <stop stop-color="#384BD9" offset="100%"></stop>
        </linearGradient>
        <linearGradient x1="-0.167638286%" y1="50.187478%" x2="100.00113%" y2="50.187478%" id="linearGradient-14">
            <stop stop-color="#395CD8" offset="0%"></stop>
            <stop stop-color="#6473E1" offset="100%"></stop>
        </linearGradient>
        <linearGradient x1="0.0388710183%" y1="50.0711306%" x2="100.005847%" y2="50.0711306%" id="linearGradient-15">
            <stop stop-color="#3E4C9C" offset="0%"></stop>
            <stop stop-color="#6473E1" offset="100%"></stop>
        </linearGradient>
        <linearGradient x1="100.080388%" y1="49.7547845%" x2="0.097527631%" y2="49.7547845%" id="linearGradient-16">
            <stop stop-color="#3E0A99" offset="1.813472%"></stop>
            <stop stop-color="#773CBD" offset="100%"></stop>
        </linearGradient>
        <linearGradient x1="-0.0474875468%" y1="50.0724359%" x2="99.8617692%" y2="50.0724359%" id="linearGradient-17">
            <stop stop-color="#3E0A99" stop-opacity="0.5" offset="1.813472%"></stop>
            <stop stop-color="#773CBD" stop-opacity="0" offset="100%"></stop>
        </linearGradient>
        <linearGradient x1="66.6582956%" y1="27.2088106%" x2="30.9193842%" y2="72.4532973%" id="linearGradient-18">
            <stop stop-color="#0C0982" offset="1.813472%"></stop>
            <stop stop-color="#4F5AE0" offset="100%"></stop>
        </linearGradient>
        <linearGradient x1="78.9232299%" y1="29.6712132%" x2="37.3246962%" y2="59.7456495%" id="linearGradient-19">
            <stop stop-color="#0C0982" offset="1.813472%"></stop>
            <stop stop-color="#4F5AE0" offset="100%"></stop>
        </linearGradient>
        <linearGradient x1="-3.12443439%" y1="50.142233%" x2="103.446154%" y2="50.142233%" id="linearGradient-20">
            <stop stop-color="#F477BB" offset="1.813472%"></stop>
            <stop stop-color="#F695CC" offset="100%"></stop>
        </linearGradient>
        <linearGradient x1="-3.34162896%" y1="49.7927184%" x2="103.228959%" y2="49.7927184%" id="linearGradient-21">
            <stop stop-color="#F477BB" offset="1.813472%"></stop>
            <stop stop-color="#F695CC" offset="100%"></stop>
        </linearGradient>
        <linearGradient x1="-3.23393665%" y1="49.8509709%" x2="103.337104%" y2="49.8509709%" id="linearGradient-22">
            <stop stop-color="#F477BB" offset="1.813472%"></stop>
            <stop stop-color="#F695CC" offset="100%"></stop>
        </linearGradient>
        <linearGradient x1="-3.10678733%" y1="49.9669903%" x2="103.463348%" y2="49.9669903%" id="linearGradient-23">
            <stop stop-color="#F477BB" offset="1.813472%"></stop>
            <stop stop-color="#F695CC" offset="100%"></stop>
        </linearGradient>
    </defs>
    <g id="Page-1" stroke="none" stroke-width="1" fill="none" fill-rule="evenodd">
        <g id="homepage" transform="translate(-680.000000, -2336.000000)">
            <rect fill="#FFFFFF" x="0" y="0" width="1400" height="4650"></rect>
            <g id="1" transform="translate(168.000000, 2336.000000)">
                <path d="M557.71791,220.192875 C535.02627,106.756122 599.668108,31.4947001 635.118449,11.2300017 C670.56879,-9.03469678 790.826624,-3.8832038 877.77012,43.2932186 C964.713616,90.469641 1013,136.247631 1013,216.876426 C1013,238.052114 1008.87879,261.648214 1000.29179,285.618439 C976.182824,352.91752 916.871452,423.165714 814.731606,451.075629 C699.947272,482.440675 580.409549,333.629628 557.71791,220.192875 Z" id="Rectangle" fill="#F6F8FF" transform="translate(783.000000, 227.662602) scale(-1, 1) rotate(-180.000000) translate(-783.000000, -227.662602) "></path>
                <g id="Examples-illustrations-marketing-for-your-website7" transform="translate(524.000000, 54.000000)">
                    <polygon id="Path" fill="#E8E8E8" fill-rule="nonzero" points="380.927963 378.400316 0.95966736 378.400316 48.6431393 326.587658 340.322037 326.587658"></polygon>
                    <g id="Group" transform="translate(22.192308, 0.000000)">
                        <path d="M352.677755,8.39556962 L352.677755,272.256329 C352.677755,276.634019 349.079002,280.23212 344.70052,280.23212 L8.33711019,280.23212 C3.89864865,280.23212 0.35987526,276.634019 0.35987526,272.256329 L0.35987526,8.33560127 C0.35987526,3.95791139 3.89864865,0.359810127 8.33711019,0.359810127 L344.640541,0.359810127 C349.079002,0.359810127 352.677755,3.95791139 352.677755,8.39556962 Z" id="Path" fill="#F7F7F7" fill-rule="nonzero"></path>
                        <path d="M334.80395,43.2371835 L334.80395,262.061709 L19.7331601,262.061709 L19.7331601,43.2371835 C19.7331601,39.6990506 22.6121622,36.7606013 26.2109148,36.7606013 L328.386175,36.7606013 C331.864969,36.8205696 334.80395,39.6990506 334.80395,43.2371835 Z" id="Path" fill-opacity="0.05" fill="#000000" fill-rule="nonzero"></path>
                        <path d="M352.677755,8.39556962 L352.677755,23.3876582 L0.35987526,23.3876582 L0.35987526,8.33560127 C0.35987526,3.95791139 3.89864865,0.479746835 8.33711019,0.479746835 L344.640541,0.479746835 C349.079002,0.359810127 352.677755,3.95791139 352.677755,8.39556962 Z" id="Path" fill="url(#linearGradient-1)" fill-rule="nonzero"></path>
                        <g transform="translate(263.308732, 154.718354)">
                            <g transform="translate(5.997921, 13.193038)" fill-rule="nonzero">
                                <ellipse id="Oval" fill="url(#linearGradient-2)" cx="27.710395" cy="27.585443" rx="27.3505198" ry="27.3455696"></ellipse>
                                <g transform="translate(10.196466, 17.390823)" id="Path">
                                    <path d="M18.5935551,24.8868671 C18.5935551,24.8868671 16.7941788,23.7474684 15.1147609,20.6890823 C13.435343,17.6306962 14.9948025,11.3939873 17.5139293,8.21566456 C18.293659,7.25617089 19.4932432,6.47658228 20.9327443,5.87689873 C24.1716216,4.49762658 28.4901247,4.13781646 30.6493763,5.03734177 C31.0092516,5.15727848 31.429106,5.75696203 31.7290021,6.17674051 C32.1488565,6.83639241 32.5087318,7.55601266 32.8686071,8.21566456 C33.4683992,9.41503165 33.8882536,10.7343354 34.0681913,12.0536392 C34.3081081,13.6727848 34.6080042,15.231962 34.7279626,16.8511076 C34.847921,18.110443 34.847921,19.4897152 34.5480249,20.7490506 C34.1281705,22.4281646 32.3287942,23.0278481 31.3091476,24.1672468 C30.4694387,25.1267405 29.6297297,26.6259494 29.5697505,27.585443 C29.5097713,28.9047468 30.3494802,32.2030063 30.5893971,33.5822785 C30.6493763,33.9420886 30.6493763,34.181962 30.5893971,34.181962 C30.5294179,34.2419304 30.2295218,34.3018987 29.7496881,34.4218354 C29.5697505,34.4818038 29.3898129,34.4818038 29.2098753,34.5417722 C26.1509356,35.2014241 19.6731809,41.2582278 18.293659,40.3587025 L18.5935551,24.8868671" fill="#F7D7C6"></path>
                                    <path d="M29.5697505,27.6454114 C29.5097713,28.9647152 30.3494802,32.2629747 30.5893971,33.6422468 C30.2295218,34.002057 29.989605,34.3018987 29.7496881,34.4818038 C29.5697505,34.6017405 29.3898129,34.6617089 29.2098753,34.6017405 L29.149896,34.6017405 C27.8303534,34.2419304 26.5108108,29.5643987 28.2502079,25.9662975 C29.989605,22.3082278 33.708316,22.7879747 34.0681913,20.3892405 C35.6276507,10.314557 16.3743243,15.1120253 20.1530146,6.17674051 C23.3918919,4.79746835 28.4301455,4.19778481 30.5893971,5.03734177 C30.9492723,5.15727848 31.3691268,5.75696203 31.6690229,6.17674051 C32.0888773,6.83639241 32.4487526,7.55601266 32.8086279,8.21566456 C33.40842,9.41503165 33.8282744,10.7343354 34.0082121,12.0536392 C34.2481289,13.6727848 34.5480249,15.231962 34.6679834,16.8511076 C34.7879418,18.110443 34.7879418,19.4897152 34.4880457,20.7490506 C34.0681913,22.4281646 32.268815,23.0278481 31.2491684,24.1672468 C30.4094595,25.1867089 29.6297297,26.6859177 29.5697505,27.6454114 Z" fill="url(#linearGradient-3)" opacity="0.3"></path>
                                    <g>
                                        <path d="M35.7476091,1.85901899 C38.5066528,4.79746835 35.2077963,14.0925633 31.0692308,15.052057 C28.6100832,15.6517405 27.2305613,13.0131329 24.8913721,13.6128165 C20.3929314,14.8121835 21.3525988,25.4865506 18.4735967,26.0262658 C15.9544699,26.5060127 10.6163202,19.3098101 11.8159044,12.9531646 C13.7952183,2.93844937 31.9089397,-2.27879747 35.7476091,1.85901899 Z" fill="#FFFFFF"></path>
                                        <path d="M24.7114345,19.1898734 C25.131289,20.1493671 25.3112266,20.9289557 25.3112266,21.6485759 C25.3112266,25.0667722 24.4715177,26.9257911 24.29158,28.6049051 C23.7517672,33.6422468 33.5883576,35.2014241 35.3277547,41.8579114 C36.9471933,47.9147152 31.2491684,56.0704114 26.9306653,56.1303797 C23.5118503,56.1903481 21.5925156,51.1530063 18.9534304,51.9325949 C16.554262,52.6522152 17.0940748,57.0898734 14.6949064,57.7495253 C12.4156965,58.4091772 8.9968815,55.1708861 7.37744283,51.8126582 C7.07754678,51.2129747 7.01756757,50.9131329 6.77765073,50.3134494 C4.55841996,44.2566456 1.49948025,42.8773734 0.65977131,39.4591772 C-0.23991684,36.040981 2.51912682,36.040981 3.83866944,28.7848101 C4.55841996,24.706962 3.83866944,23.9273734 4.55841996,15.6517405 C4.85831601,11.7537975 4.97827443,9.77484177 5.45810811,8.8153481 C9.35675676,1.49920886 25.0713098,-4.13781646 28.550104,6.53655063 C30.5893971,12.9531646 23.0919958,9.17515823 21.3525988,11.8137658 C20.1530146,13.6727848 23.7517672,17.1509494 24.7114345,19.1898734 Z" fill="#FFFFFF"></path>
                                        <path d="M23.2719335,12.0536392 C22.9720374,14.2125 27.7703742,15.7716772 29.4497921,17.1509494 C32.8686071,20.0294304 30.5294179,22.3082278 33.1685031,25.7863924 L31.0092516,26.0262658 C28.3701663,22.6080696 30.7093555,20.2693038 27.2905405,17.3908228 C25.6111227,16.0115506 20.8127859,14.3924051 21.1126819,12.2935127 L23.2719335,12.0536392 Z" fill="url(#linearGradient-4)"></path>
                                        <path d="M24.2316008,28.4849684 C23.3918919,24.2272152 26.4508316,23.1477848 24.6514553,19.1299051 C23.7517672,17.1509494 20.1530146,13.6128165 21.3525988,11.8137658 C23.1519751,9.17515823 30.6493763,12.9531646 28.550104,6.53655063 C27.7703742,4.0778481 26.3308732,2.51867089 24.5314969,1.55917722 C27.2305613,2.15886076 29.4497921,3.89794304 30.5294179,7.25617089 C32.568711,13.6727848 25.0713098,9.89477848 23.3319127,12.5333861 C22.1323285,14.3324367 25.7310811,17.8106013 26.6307692,19.8495253 C28.4901247,23.9273734 25.3712058,25.0068038 26.2109148,29.2045886 L24.2316008,28.4849684 Z" fill="url(#linearGradient-5)"></path>
                                    </g>
                                </g>
                            </g>
                            <g transform="translate(1.799376, 0.000000)" id="Path">
                                <path d="M32.568711,40.778481 L1.31954262,40.778481 C0.65977131,40.778481 0.17993763,40.2387658 0.17993763,39.6390823 L0.17993763,1.3193038 C0.17993763,0.659651899 0.71975052,0.179905063 1.31954262,0.179905063 L32.568711,0.179905063 C33.2284823,0.179905063 33.708316,0.719620253 33.708316,1.3193038 L33.708316,39.5791139 C33.708316,40.2387658 33.1685031,40.778481 32.568711,40.778481 Z" fill="#3E4C9C" fill-rule="nonzero"></path>
                                <path d="M3.23887734,5.87689873 L20.0330561,5.87689873" stroke="#FFFFFF" stroke-width="1.15476" stroke-linecap="round"></path>
                                <path d="M3.23887734,11.1541139 L28.85,11.1541139" stroke="#FFFFFF" stroke-width="1.15476" stroke-linecap="round"></path>
                                <path d="M3.23887734,14.6922468 L28.85,14.6922468" stroke="#FFFFFF" stroke-width="1.15476" stroke-linecap="round"></path>
                                <path d="M3.23887734,19.1299051 L28.85,19.1299051" stroke="#FFFFFF" stroke-width="1.15476" stroke-linecap="round"></path>
                                <path d="M3.23887734,24.4071203 L16.4942827,24.4071203" stroke="#FFFFFF" stroke-width="1.15476" stroke-linecap="round"></path>
                                <path d="M3.23887734,27.9452532 L16.4942827,27.9452532" stroke="#FFFFFF" stroke-width="1.15476" stroke-linecap="round"></path>
                                <path d="M3.23887734,32.3829114 L16.4942827,32.3829114" stroke="#FFFFFF" stroke-width="1.15476" stroke-linecap="round"></path>
                                <path d="M3.23887734,35.9210443 L16.4942827,35.9210443" stroke="#FFFFFF" stroke-width="1.15476" stroke-linecap="round"></path>
                                <path d="M23.5118503,24.4071203 L29.7496881,24.4071203" stroke="#FFFFFF" stroke-width="1.15476" stroke-linecap="round"></path>
                                <path d="M23.5118503,27.9452532 L29.7496881,27.9452532" stroke="#FFFFFF" stroke-width="1.15476" stroke-linecap="round"></path>
                                <path d="M23.5118503,32.3829114 L29.7496881,32.3829114" stroke="#FFFFFF" stroke-width="1.15476" stroke-linecap="round"></path>
                                <path d="M23.5118503,35.9210443 L29.7496881,35.9210443" stroke="#FFFFFF" stroke-width="1.15476" stroke-linecap="round"></path>
                                <polygon fill="url(#linearGradient-6)" fill-rule="nonzero" points="27.5304574 30.9436709 26.0309771 28.3650316 24.8913721 30.9436709 24.8913721 0.119936709 27.5304574 0.119936709"></polygon>
                            </g>
                            <path d="M52.7817048,77.8389241 L10.1964657,77.8389241 C8.9968815,77.8389241 8.09719335,76.8794304 8.09719335,75.7400316 L8.09719335,75.5601266 C8.09719335,74.3607595 9.05686071,73.4612342 10.1964657,73.4612342 L52.7817048,73.4612342 C53.981289,73.4612342 54.8809771,74.4207278 54.8809771,75.5601266 L54.8809771,75.7400316 C54.9409563,76.8794304 53.981289,77.8389241 52.7817048,77.8389241 Z" id="Path" fill="url(#linearGradient-7)" fill-rule="nonzero"></path>
                            <path d="M59.8592516,86.6542722 L2.27920998,86.6542722 C1.13960499,86.6542722 0.17993763,85.6947785 0.17993763,84.5553797 L0.17993763,84.3754747 C0.17993763,83.2360759 1.13960499,82.2765823 2.27920998,82.2765823 L59.8592516,82.2765823 C60.9988565,82.2765823 61.9585239,83.2360759 61.9585239,84.3754747 L61.9585239,84.5553797 C61.9585239,85.6947785 61.0588358,86.6542722 59.8592516,86.6542722 Z" id="Path" fill="url(#linearGradient-8)" fill-rule="nonzero"></path>
                        </g>
                        <ellipse id="Oval" fill="#F4F9FF" fill-rule="nonzero" cx="24.2316008" cy="11.8737342" rx="4.43846154" ry="4.43765823"></ellipse>
                        <ellipse id="Oval" fill="#F4F9FF" fill-rule="nonzero" cx="41.8654886" cy="11.8737342" rx="4.43846154" ry="4.43765823"></ellipse>
                        <ellipse id="Oval" fill="#F4F9FF" fill-rule="nonzero" cx="59.5593555" cy="11.8737342" rx="4.43846154" ry="4.43765823"></ellipse>
                        <g transform="translate(28.190229, 46.175633)" fill-rule="nonzero">
                            <path d="M221.143347,4.61756329 L221.143347,201.313766 C221.143347,203.772468 219.104054,205.811392 216.644906,205.811392 L4.91829522,205.811392 C2.45914761,205.811392 0.41985447,203.772468 0.41985447,201.313766 L0.41985447,4.61756329 C0.41985447,2.15886076 2.45914761,0.119936709 4.91829522,0.119936709 L216.644906,0.119936709 C219.164033,0.119936709 221.143347,2.09889241 221.143347,4.61756329 Z" id="Path" fill="#CBCBCB" opacity="0.46"></path>
                            <path d="M213.226091,162.514241 L7.49740125,162.514241 L7.49740125,38.0799051 C7.49740125,35.1414557 9.89656965,32.8026899 12.7755717,32.8026899 L207.887942,32.8026899 C210.826923,32.8026899 213.166112,35.2014241 213.166112,38.0799051 L213.166112,162.514241 L213.226091,162.514241 Z" id="Path" fill="#FFFFFF"></path>
                            <path d="M221.143347,4.61756329 L221.143347,25.7264241 L0.41985447,25.7264241 L0.41985447,4.61756329 C0.41985447,2.15886076 2.45914761,0.119936709 4.91829522,0.119936709 L216.644906,0.119936709 C219.164033,0.119936709 221.143347,2.09889241 221.143347,4.61756329 Z" id="Path" fill="url(#linearGradient-9)"></path>
                            <path d="M121.277963,82.2166139 L22.6121622,82.2166139 C20.0930353,82.2166139 18.1137214,80.1776899 18.1137214,77.7189873 L18.1137214,48.8142405 C18.1137214,46.2955696 20.1530146,44.3166139 22.6121622,44.3166139 L121.277963,44.3166139 C123.797089,44.3166139 125.776403,46.355538 125.776403,48.8142405 L125.776403,77.7189873 C125.836383,80.1776899 123.797089,82.2166139 121.277963,82.2166139 Z" id="Path" fill-opacity="0.1" fill="#000000" opacity="0.5"></path>
                            <path d="M139.931497,148.301741 L139.931497,49.6537975 C139.931497,47.1950949 141.97079,45.1561709 144.429938,45.1561709 L195.472245,45.1561709 C197.931393,45.1561709 199.970686,47.1950949 199.970686,49.6537975 L199.970686,148.361709 C199.970686,150.820411 197.931393,152.859335 195.472245,152.859335 L144.429938,152.859335 C141.97079,152.799367 139.931497,150.820411 139.931497,148.301741 Z" id="Path" fill-opacity="0.1" fill="#000000" opacity="0.5"></path>
                            <path d="M123.617152,99.8473101 L20.3329522,99.8473101 C19.133368,99.8473101 18.1137214,98.8878165 18.1137214,97.628481 L18.1137214,97.628481 C18.1137214,96.4291139 19.0733888,95.4096519 20.3329522,95.4096519 L123.617152,95.4096519 C124.816736,95.4096519 125.836383,96.3691456 125.836383,97.628481 L125.836383,97.628481 C125.836383,98.8878165 124.816736,99.8473101 123.617152,99.8473101 Z" id="Path" fill="url(#linearGradient-10)" opacity="0.5"></path>
                            <path d="M123.617152,111.361234 L20.3329522,111.361234 C19.133368,111.361234 18.1137214,110.401741 18.1137214,109.142405 L18.1137214,109.142405 C18.1137214,107.943038 19.0733888,106.923576 20.3329522,106.923576 L123.617152,106.923576 C124.816736,106.923576 125.836383,107.88307 125.836383,109.142405 L125.836383,109.142405 C125.836383,110.341772 124.816736,111.361234 123.617152,111.361234 Z" id="Path" fill="url(#linearGradient-10)" opacity="0.5"></path>
                            <path d="M123.617152,123.714715 L20.3329522,123.714715 C19.133368,123.714715 18.1137214,122.755222 18.1137214,121.495886 L18.1137214,121.495886 C18.1137214,120.296519 19.0733888,119.277057 20.3329522,119.277057 L123.617152,119.277057 C124.816736,119.277057 125.836383,120.236551 125.836383,121.495886 L125.836383,121.495886 C125.836383,122.695253 124.816736,123.714715 123.617152,123.714715 Z" id="Path" fill="url(#linearGradient-10)" opacity="0.5"></path>
                            <path d="M123.617152,136.068196 L20.3329522,136.068196 C19.133368,136.068196 18.1137214,135.108703 18.1137214,133.849367 L18.1137214,133.849367 C18.1137214,132.65 19.0733888,131.630538 20.3329522,131.630538 L123.617152,131.630538 C124.816736,131.630538 125.836383,132.590032 125.836383,133.849367 L125.836383,133.849367 C125.836383,135.048734 124.816736,136.068196 123.617152,136.068196 Z" id="Path" fill="url(#linearGradient-10)" opacity="0.5"></path>
                            <rect id="Rectangle" fill="url(#linearGradient-11)" opacity="0.5" x="85.2304574" y="142.244937" width="41.5056133" height="10.6143987"></rect>
                        </g>
                        <g transform="translate(258.510395, 46.775316)">
                            <ellipse id="Oval" fill="#C2C3C4" fill-rule="nonzero" cx="39.406341" cy="42.7574367" rx="28.2502079" ry="28.2450949"></ellipse>
                            <path d="M58.4797297,80.7174051 L15.0547817,80.7174051 C13.8551975,80.7174051 12.8955301,79.7579114 12.8955301,78.5585443 L12.8955301,78.4386076 C12.8955301,77.2392405 13.8551975,76.2797468 15.0547817,76.2797468 L58.4797297,76.2797468 C59.6793139,76.2797468 60.6389813,77.2392405 60.6389813,78.4386076 L60.6389813,78.5585443 C60.5790021,79.7579114 59.6193347,80.7174051 58.4797297,80.7174051 Z" id="Path" fill="#2F9BFF" fill-rule="nonzero"></path>
                            <path d="M66.3969854,90.4322785 L7.13752599,90.4322785 C5.93794179,90.4322785 4.97827443,89.4727848 4.97827443,88.2734177 L4.97827443,88.153481 C4.97827443,86.9541139 5.93794179,85.9946203 7.13752599,85.9946203 L66.3969854,85.9946203 C67.5965696,85.9946203 68.556237,86.9541139 68.556237,88.153481 L68.556237,88.2734177 C68.556237,89.4727848 67.5965696,90.4322785 66.3969854,90.4322785 Z" id="Path" fill="#2F9BFF" fill-rule="nonzero"></path>
                            <g transform="translate(19.793139, 27.585443)" fill-rule="nonzero" id="Path">
                                <path d="M28.6700624,16.3713608 C28.6700624,16.3713608 30.2295218,21.8884494 32.7486486,24.9468354 C35.2677755,28.0052215 30.7693347,26.6859177 29.5697505,30.8237342 C28.3701663,34.9615506 17.5139293,35.6811709 11.4560291,45.0362342 L0.05997921,35.7411392 C0.05997921,35.7411392 9.53669439,27.1656646 10.0165281,21.828481 C10.6163202,16.4912975 28.6700624,16.3713608 28.6700624,16.3713608 Z" fill-opacity="0.25" fill="#000000"></path>
                                <path d="M31.9089397,0.419778481 C31.9089397,0.419778481 35.5676715,2.39873418 34.4280665,7.97579114 C33.2884615,13.5528481 31.7290021,16.7911392 26.2109148,17.9905063 C20.6928274,19.1898734 19.0134096,22.1283228 20.9927235,26.4460443 C22.9720374,30.7637658 26.4508316,36.4007911 30.289501,29.444462 C30.289501,29.444462 31.9089397,28.9047468 32.6286902,32.322943 C33.3484407,35.7411392 34.4880457,42.4575949 22.3122661,39.0993671 C21.3525988,38.8594937 19.3133056,38.7995253 18.3536383,39.0993671 C16.6742204,39.6390823 12.7155925,43.4170886 12.7155925,43.4170886 C12.7155925,43.4170886 16.7341996,38.3797468 18.6535343,35.3813291 C20.3329522,32.7427215 20.572869,21.4087025 14.8148649,22.1283228 C11.3360707,22.5481013 13.9151767,27.405538 13.9151767,27.405538 C13.9151767,27.405538 6.89760915,29.0846519 3.77869023,32.2030063 C0.65977131,35.3213608 6.23783784,28.0052215 5.69802495,27.7053797 C4.49844075,26.9857595 -0.5997921,22.7879747 0.29989605,18.4702532 C1.1995842,14.2125 3.05893971,14.9321203 3.05893971,14.9321203 C3.05893971,14.9321203 2.75904366,3.83797468 13.8551975,4.01787975 C25.0713098,4.25775316 28.4301455,5.57705696 31.9089397,0.419778481 Z" fill="#FFFFFF"></path>
                            </g>
                            <g id="Path">
                                <path d="M34.6679834,41.8579114 L1.73939709,41.8579114 C1.07962578,41.8579114 0.53981289,41.3181962 0.53981289,40.6585443 L0.53981289,1.55917722 C0.53981289,0.899525316 1.07962578,0.359810127 1.73939709,0.359810127 L34.6679834,0.359810127 C35.3277547,0.359810127 35.8675676,0.899525316 35.8675676,1.55917722 L35.8675676,40.6585443 C35.8675676,41.3781646 35.3277547,41.8579114 34.6679834,41.8579114 Z" fill="#3E4C9C" fill-rule="nonzero"></path>
                                <path d="M4.55841996,6.11677215 L22.1923077,6.11677215" stroke="#FFFFFF" stroke-width="1.19208" stroke-linecap="round"></path>
                                <path d="M4.55841996,11.4539557 L31.0092516,11.4539557" stroke="#FFFFFF" stroke-width="1.19208" stroke-linecap="round"></path>
                                <path d="M4.55841996,15.8316456 L31.0092516,15.8316456" stroke="#FFFFFF" stroke-width="1.19208" stroke-linecap="round"></path>
                                <path d="M4.55841996,20.2693038 L31.0092516,20.2693038" stroke="#FFFFFF" stroke-width="1.19208" stroke-linecap="round"></path>
                                <path d="M4.55841996,25.546519 L18.6535343,25.546519" stroke="#FFFFFF" stroke-width="1.19208" stroke-linecap="round"></path>
                                <path d="M4.55841996,29.0846519 L18.6535343,29.0846519" stroke="#FFFFFF" stroke-width="1.19208" stroke-linecap="round"></path>
                                <path d="M4.55841996,33.5223101 L18.6535343,33.5223101" stroke="#FFFFFF" stroke-width="1.19208" stroke-linecap="round"></path>
                                <path d="M4.55841996,37.0004747 L18.6535343,37.0004747" stroke="#FFFFFF" stroke-width="1.19208" stroke-linecap="round"></path>
                                <path d="M24.8313929,25.546519 L31.9089397,25.546519" stroke="#FFFFFF" stroke-width="1.19208" stroke-linecap="round"></path>
                                <path d="M24.8313929,29.0846519 L31.9089397,29.0846519" stroke="#FFFFFF" stroke-width="1.19208" stroke-linecap="round"></path>
                                <path d="M24.8313929,33.5223101 L31.9089397,33.5223101" stroke="#FFFFFF" stroke-width="1.19208" stroke-linecap="round"></path>
                                <path d="M24.8313929,37.0004747 L31.9089397,37.0004747" stroke="#FFFFFF" stroke-width="1.19208" stroke-linecap="round"></path>
                                <polygon fill="url(#linearGradient-12)" fill-rule="nonzero" points="29.6897089 32.2629747 27.7703742 29.5643987 26.1509356 32.2629747 26.1509356 0.419778481 29.6897089 0.419778481"></polygon>
                            </g>
                        </g>
                        <path d="M236.13815,247.549367 L41.0257796,247.549367 C38.0867983,247.549367 35.7476091,245.150633 35.7476091,242.272152 L35.7476091,217.56519 L241.476299,217.56519 L241.476299,242.272152 C241.41632,245.210601 239.017152,247.549367 236.13815,247.549367 Z" id="Path" fill="#FFFFFF" fill-rule="nonzero"></path>
                    </g>
                    <g id="Group" transform="translate(0.000000, 72.561709)" fill-rule="nonzero">
                        <path d="M58.9595634,50.0735759 C58.9595634,50.0735759 62.9781705,53.8515823 66.0970894,52.5322785 C67.4766112,51.9925633 68.1363825,50.6732595 68.3762994,50.0735759 C69.695842,47.4949367 68.9161123,45.0962025 68.7961538,43.1772152 C68.4362786,38.0799051 72.6948025,37.7800633 76.2335759,28.7248418 C76.9533264,26.8058544 77.6730769,22.1882911 77.8530146,16.4313291 C78.272869,4.49762658 51.9419958,15.1719937 52.7817048,30.8237342 C53.2615385,39.2193038 58.9595634,50.0735759 58.9595634,50.0735759 L58.9595634,50.0735759 Z" id="Path" fill="#F7D7C6"></path>
                        <g transform="translate(40.785863, 197.895570)" id="Path">
                            <path d="M7.61735967,57.5696203 C7.43742204,63.9262658 7.25748441,72.2618671 2.93898129,82.7563291 L14.8748441,82.1566456 C19.6132017,68.0640823 23.1519751,56.85 25.3712058,49.8936709 C27.0506237,44.6164557 27.8903326,41.6780063 27.8903326,41.6780063 C30.3494802,33.4023734 32.1488565,26.8658228 33.40842,21.7685127 C33.6483368,20.7490506 33.8882536,19.7295886 34.0681913,18.8300633 C37.0071726,5.81693038 35.8675676,3.47816456 34.4280665,2.15886076 C32.8686071,0.719620253 30.9492723,-3.23829114 11.1561331,6.11677215 C11.1561331,6.0568038 8.03721414,44.6164557 7.61735967,57.5696203 Z" fill="#F7D7C6"></path>
                            <path d="M28.9699584,97.0287975 C27.5304574,98.647943 17.6338877,100.686867 15.2347193,99.2476266 C13.6152807,98.2881329 12.6556133,96.9088608 8.9968815,94.9898734 C8.57702703,96.0693038 8.09719335,97.0287975 8.09719335,97.0287975 C8.09719335,97.0287975 6.17785863,97.9283228 2.9989605,96.9088608 C0.17993763,96.0093354 0.23991684,91.3917722 0.29989605,90.2523734 C0.29989605,90.2523734 0.29989605,90.2523734 0.29989605,90.2523734 C0.23991684,89.9525316 0.23991684,89.6526899 0.17993763,89.2928797 C3.4139358e-14,86.2344937 3.53877339,81.1371835 3.53877339,81.1371835 L15.2946985,80.8973101 C15.2946985,80.8973101 16.7341996,90.4322785 23.6917879,91.6316456 C30.7093555,92.7110759 30.4694387,95.4096519 28.9699584,97.0287975 Z" fill="url(#linearGradient-13)"></path>
                        </g>
                        <g transform="translate(0.000000, 191.299051)" id="Path">
                            <path d="M11.5759875,54.5712025 C10.6163202,60.8079114 9.41673597,69.1435127 3.83866944,78.9783228 L15.7745322,79.8178797 C22.1923077,66.3849684 27.1106029,55.7106013 30.1095634,49.0541139 C32.3887734,44.0167722 33.5883576,41.1982595 33.5883576,41.1982595 C37.0671518,33.2824367 39.6462578,27.0457278 41.4456341,22.1283228 C41.8055094,21.1088608 42.1653846,20.2093354 42.4652807,19.3098101 C46.9637214,6.7164557 46.1240125,4.31772152 44.8644491,2.7585443 C43.5449064,1.13939873 42.1054054,-2.99841772 21.2926195,3.83797468 C21.412578,3.89794304 13.5553015,41.797943 11.5759875,54.5712025 Z" fill="#F7D7C6"></path>
                            <path d="M27.9503119,96.3091772 C26.3308732,97.7484177 16.2543659,98.5280063 14.0351351,96.8488924 C12.5356549,95.7094937 11.8159044,94.2102848 8.3970894,91.8115506 C7.85727651,92.8310127 7.25748441,93.730538 7.25748441,93.730538 C7.25748441,93.730538 5.21819127,94.3901899 2.21923077,92.9509494 C-0.41985447,91.7515823 0.11995842,87.134019 0.35987526,85.9946203 C0.35987526,85.9946203 0.35987526,85.9946203 0.35987526,85.9946203 C0.35987526,85.6947785 0.35987526,85.3949367 0.35987526,85.0351266 C0.5997921,81.9767405 4.73835759,77.3591772 4.73835759,77.3591772 L16.4343035,78.5585443 C16.4343035,78.5585443 16.6742204,88.2134494 23.4518711,90.1924051 C30.1695426,92.2912975 29.5697505,94.9299051 27.9503119,96.3091772 Z" fill="url(#linearGradient-14)"></path>
                        </g>
                        <path d="M124.51684,33.2824367 C124.51684,33.2824367 127.5158,27.585443 128.595426,27.1656646 C129.675052,26.7458861 130.694699,26.3261076 131.294491,25.6064873 C131.894283,24.8868671 132.913929,24.6469937 133.153846,25.0068038 C133.393763,25.3666139 132.314137,27.1056962 131.954262,27.5254747 C131.594387,27.9452532 128.355509,30.5238924 127.635759,31.7232595 C126.916008,32.9226266 126.556133,33.8221519 126.076299,34.3018987 C125.536486,34.6617089 124.51684,33.2824367 124.51684,33.2824367 Z" id="Path" fill="#7B7AC2"></path>
                        <g transform="translate(22.792100, 49.773734)" id="Path">
                            <path d="M26.5108108,10.6143987 C27.410499,7.79588608 26.6907484,2.63860759 20.7528067,0.239873418 C14.8148649,-2.15886076 8.93690229,14.7522152 8.93690229,14.7522152 C8.93690229,14.7522152 0.41985447,34.002057 0.05997921,37.060443 C-0.29989605,40.1188291 1.07962578,64.4060127 1.07962578,64.4060127 L7.91725572,64.2860759 C7.91725572,64.2860759 7.55738046,45.0362342 9.05686071,38.8594937 C10.9761954,30.7037975 23.9317048,18.6501582 26.5108108,10.6143987 Z" fill="#F7D7C6"></path>
                            <path d="M7.97723493,64.1661392 C7.97723493,64.1661392 9.89656965,69.2634494 9.71663202,73.4612342 C9.53669439,77.659019 8.75696466,78.7384494 8.3970894,77.3591772 C7.25748441,73.4012658 8.3970894,80.5974684 7.55738046,81.2571203 C6.71767152,81.9167722 6.05790021,78.7984177 6.35779626,76.1598101 C6.5977131,73.5212025 5.27817048,76.8794304 5.3981289,77.8988924 C5.51808732,78.9183544 6.35779626,82.3365506 4.97827443,81.7968354 C3.5987526,81.2571203 3.83866944,76.7594937 4.25852391,75.4401899 C4.67837838,74.0609177 3.71871102,76.1598101 3.65873181,76.4596519 C3.53877339,77.4791139 4.07858628,80.1776899 3.17889813,80.5375 C2.27920998,80.9572785 2.15925156,76.9993671 2.27920998,75.8 C2.33918919,75.2602848 2.63908524,73.5212025 2.27920998,73.5811709 C1.91933472,73.6411392 1.61943867,77.2392405 1.49948025,78.1387658 C1.43950104,79.0382911 1.25956341,79.3381329 0.5997921,77.7789557 C-0.05997921,76.2197785 2.77555756e-17,74.0009494 0.65977131,71.3023734 C1.31954262,68.6637658 1.31954262,65.8452532 1.13960499,64.2860759 L7.97723493,64.1661392 Z" fill="#FED2F5"></path>
                        </g>
                        <path d="M72.274948,56.7900316 C74.0743243,60.9278481 80.9719335,64.9457278 81.7516632,66.9846519 C81.8716216,67.2245253 81.99158,67.5243671 82.1115385,67.8242089 C83.7309771,71.9620253 86.7299376,80.1177215 77.7330561,90.1924051 C77.3731809,90.5522152 77.0133056,90.9719937 76.6534304,91.3318038 C71.5551975,96.609019 68.3762994,104.045095 66.7568607,111.601108 C66.6968815,111.840981 66.6369023,112.020886 66.6369023,112.260759 L66.3370062,113.7 C66.277027,113.879905 66.277027,114.05981 66.2170478,114.179747 C64.837526,122.035601 65.0174636,129.711551 66.1570686,135.048734 C68.4962578,145.962975 77.133264,160.535285 79.5924116,177.746203 C82.0515593,194.95712 87.2097713,201.793513 83.3711019,208.509968 C81.7516632,211.328481 77.7330561,213.607278 72.9347193,215.106487 L72.9347193,215.106487 C65.5572765,217.385285 56.260499,217.685127 50.8023909,215.106487 C49.422869,214.446835 48.1033264,213.54731 46.7837838,212.46788 L46.7837838,212.46788 C45.4642412,211.448418 44.2046778,210.249051 42.8851351,208.989715 C42.2253638,208.390032 41.6255717,207.73038 40.9658004,207.130696 C40.9658004,207.130696 40.9058212,207.070728 40.9058212,207.070728 C37.3670478,203.592563 33.6483368,199.994462 29.2698545,197.955538 C27.1705821,196.996044 24.8913721,196.396361 22.3722453,196.336392 C19.9730769,196.336392 17.8138254,196.396361 15.8944906,196.516297 C15.5945946,196.516297 15.2946985,196.576266 15.0547817,196.576266 C14.9948025,196.576266 14.9348233,196.576266 14.8148649,196.576266 C7.55738046,197.056013 4.1985447,197.89557 3.17889813,194.297468 C1.73939709,189.200158 12.6556133,183.982911 19.0134096,180.144937 C25.3112266,176.306962 28.6100832,168.870886 24.3515593,157.476899 C20.6328482,147.462184 17.1540541,133.249684 23.2119543,121.855696 C23.2119543,121.795728 23.2719335,121.795728 23.2719335,121.735759 C24.0516632,120.236551 25.0113306,118.79731 26.1509356,117.418038 C27.1106029,116.218671 28.0102911,115.139241 28.9099792,113.999842 L28.9099792,113.999842 C28.9699584,113.939873 29.0299376,113.879905 29.0299376,113.819937 C29.6297297,113.100316 30.1695426,112.380696 30.7093555,111.721044 C30.7093555,111.721044 30.7093555,111.721044 30.7093555,111.721044 C31.3091476,110.941456 31.9089397,110.161867 32.4487526,109.382278 C33.40842,108.122943 34.2481289,106.923576 35.0278586,105.724209 C38.8665281,99.9672468 40.7258836,95.4696203 40.6659044,91.5117089 C40.6059252,88.0335443 39.7662162,81.6768987 39.1664241,75.9199367 C38.6865904,71.4822785 38.3267152,67.4044304 38.6266112,65.3655063 C39.2264033,60.6879747 41.3856549,53.0719937 43.0050936,51.3928797 C43.0650728,51.3329114 43.125052,51.272943 43.1850312,51.2129747 C43.5449064,50.8531646 43.9647609,50.5533228 44.4445946,50.253481 C46.2439709,49.1140823 48.7630977,48.394462 50.1426195,48.5743671 C50.5024948,48.6343354 51.5221414,48.5143987 52.841684,48.2745253 C54.4611227,47.9746835 56.6803534,47.6148734 59.0195426,47.2550633 C62.4383576,46.7753165 63.3980249,45.9357595 66.1570686,46.2955696 C67.2966736,46.4155063 68.3163202,46.6553797 69.0360707,47.0751582 C71.0153846,48.1545886 70.1156965,51.9925633 71.6751559,55.2908228 L72.274948,56.7900316 Z" id="Path" fill="url(#linearGradient-15)"></path>
                        <g transform="translate(119.958420, 20.988924)" id="Path">
                            <path d="M19.8531185,3.29825949 L2.63908524,14.0325949 C1.91933472,14.5123418 0.95966736,14.2724684 0.47983368,13.5528481 C-6.81676937e-14,12.8332278 0.23991684,11.8737342 0.95966736,11.3939873 L18.1737006,0.659651899 L19.8531185,3.29825949 Z" fill="url(#linearGradient-16)"></path>
                            <path d="M3.95862786,13.193038 L2.63908524,14.0325949 C1.91933472,14.5123418 0.95966736,14.2724684 0.47983368,13.5528481 C-6.81399381e-14,12.8332278 0.23991684,11.8737342 0.95966736,11.3939873 L2.27920998,10.5544304 L3.95862786,13.193038 Z" fill="#341278"></path>
                            <polygon fill="#341278" points="21.712474 0.299841772 21.712474 0.299841772 18.2336798 0.659651899 19.8531185 3.29825949"></polygon>
                        </g>
                        <path d="M137.112474,25.546519 C137.232432,25.0667722 136.69262,23.6275316 135.433056,24.4071203 C134.173493,25.1267405 128.535447,31.3634494 128.535447,31.3634494 C128.535447,31.3634494 125.356549,32.6227848 124.876715,33.2824367 C124.396881,33.9420886 120.73815,38.7995253 120.73815,38.7995253 L126.256237,44.8563291 C126.256237,44.8563291 129.255198,44.6764241 132.1342,42.3976266 C135.013202,40.0588608 136.872557,37.7200949 136.392723,35.8011076 C136.332744,35.6811709 135.972869,35.3813291 135.972869,35.3813291 C135.972869,35.3813291 137.772245,33.5822785 136.152807,32.2629747 C136.152807,32.2629747 138.1921,29.7443038 137.232432,28.6648734 C136.212786,27.5254747 132.793971,31.7232595 132.793971,31.7232595 C132.793971,31.7232595 132.254158,31.7232595 133.213825,30.7637658 C134.053534,29.6843354 136.812578,27.1056962 137.112474,25.546519 Z" id="Path" fill="#F7D7C6"></path>
                        <path d="M68.4962578,56.1303797 C65.6772349,57.0898734 61.9585239,60.6879747 63.5779626,66.9246835 C65.1974012,73.1613924 82.2914761,67.8242089 82.2914761,67.8242089 C82.2914761,67.8242089 103.2842,63.6863924 105.983264,62.1871835 C108.622349,60.6280063 127.275884,44.496519 127.275884,44.496519 L121.397921,37.8400316 C121.397921,37.8400316 106.103222,49.5338608 100.285239,52.0525316 C92.4879418,55.3507911 76.5334719,53.4318038 68.4962578,56.1303797 Z" id="Path" fill="#F7D7C6"></path>
                        <path d="M31.9689189,132.709968 C27.4704782,157.296994 46.1839917,169.230696 38.4466736,186.501582 C36.5273389,190.759335 33.2884615,194.717247 29.3298337,197.955538 C27.2305613,196.996044 24.9513514,196.396361 22.4322245,196.336392 C20.0330561,196.336392 17.8738046,196.396361 15.9544699,196.516297 C7.97723493,196.996044 4.31850312,198.075475 3.23887734,194.297468 C1.7993763,189.200158 12.7155925,183.982911 19.0733888,180.144937 C25.3712058,176.306962 28.6700624,168.870886 24.4115385,157.476899 C20.6928274,147.402215 17.2140333,133.129747 23.3319127,121.735759 C24.1116424,120.236551 25.0713098,118.79731 26.2109148,117.418038 C27.1705821,116.218671 28.0702703,115.139241 28.9699584,113.999842 C29.5697505,113.220253 30.1695426,112.440665 30.7693347,111.721044 C31.3691268,110.941456 31.9689189,110.161867 32.5087318,109.382278 C33.4683992,108.122943 34.3081081,106.923576 35.0878378,105.724209 C38.9265073,99.9672468 40.7858628,95.4696203 40.7258836,91.5117089 C40.6659044,87.9735759 39.8261954,81.6768987 39.2264033,75.9199367 C38.7465696,71.4822785 38.3866944,67.4044304 38.6865904,65.3655063 C39.2863825,60.6879747 41.4456341,53.0719937 43.0650728,51.3928797 C43.125052,51.3329114 43.1850312,51.272943 43.2450104,51.2129747 C43.6048857,50.8531646 44.0247401,50.5533228 44.5045738,50.253481 C46.3039501,49.1140823 48.8230769,48.394462 50.2025988,48.5743671 C50.562474,48.6343354 51.5821206,48.5143987 52.9016632,48.2745253 C58.6596674,59.9683544 61.2387734,74.780538 58.5996881,87.3738924 C53.8013514,109.742089 36.0475052,110.161867 31.9689189,132.709968 Z" id="Path" fill="url(#linearGradient-17)"></path>
                        <g transform="translate(28.190229, 0.000000)" fill="#000000" fill-opacity="0.85" id="Path">
                            <path d="M61.0588358,5.57705696 C64.4176715,11.1541139 56.1405405,24.706962 49.2429314,24.8268987 C45.1643451,24.8868671 43.9047817,20.2693038 40.0061331,20.4492089 C32.568711,20.809019 30.4094595,38.0199367 25.6711019,37.8400316 C21.5925156,37.7200949 15.5346154,24.5870253 19.6132017,15.052057 C26.0909563,-0.119936709 56.3804574,-2.21882911 61.0588358,5.57705696 Z"></path>
                            <path d="M39.1664241,31.303481 C40.6659044,38.3197785 35.4477131,38.9794304 35.3877339,45.9357595 C35.2677755,57.5096519 46.2439709,59.9083861 46.4239085,70.4628165 C46.6038462,80.7174051 36.5273389,91.2118671 30.289501,90.1924051 C25.0713098,89.3528481 23.6318087,80.5974684 19.133368,80.8973101 C15.1147609,81.1971519 14.4549896,88.3933544 10.4963617,88.6332278 C6.71767152,88.9330696 2.3991684,82.6963608 0.95966736,76.819462 C-0.17993763,72.081962 1.01964657,69.6832278 3.35883576,57.4496835 C4.25852391,52.8321203 5.21819127,47.5549051 5.997921,41.1382911 C7.31746362,30.3439873 6.65769231,27.0457278 8.69698545,18.95 C10.0765073,13.3129747 10.7962578,10.494462 12.4756757,8.51550633 C21.0527027,-1.73908228 47.7434511,-5.27721519 49.5428274,12.7732595 C50.6224532,23.5675633 40.0661123,15.052057 36.4073805,18.6501582 C33.8882536,21.1088608 38.3866944,27.8852848 39.1664241,31.303481 Z"></path>
                        </g>
                    </g>
                    <g id="Group" transform="translate(356.276507, 255.465190)" fill="#000000" fill-rule="nonzero">
                        <rect id="Rectangle" fill-opacity="0.25" x="34.4880457" y="8.87531646" width="19.433264" height="6.17674051"></rect>
                        <rect id="Rectangle" fill-opacity="0.25" x="31.8489605" y="62.7268987" width="25.6111227" height="11.4539557"></rect>
                        <rect id="Rectangle" fill-opacity="0.25" x="42.4652807" y="15.052057" width="4.43846154" height="10.6143987"></rect>
                        <rect id="Rectangle" fill-opacity="0.25" x="38.9265073" y="25.6064873" width="11.4560291" height="37.060443"></rect>
                        <path d="M81.0319127,0.0599683544 L9.17681913,0.0599683544 C7.07754678,0.0599683544 5.3981289,1.73908228 5.3981289,3.83797468 L5.3981289,8.87531646 L84.8705821,8.87531646 L84.8705821,3.83797468 C84.8106029,1.73908228 83.131185,0.0599683544 81.0319127,0.0599683544 Z" id="Path" fill-opacity="0.1"></path>
                        <g transform="translate(0.000000, 68.363924)" fill-opacity="0.25">
                            <polygon id="Path" points="33.2884615 4.79746835 4.61839917 8.51550633 4.61839917 4.7375 33.2884615 0.419778481"></polygon>
                            <ellipse id="Oval" cx="4.31850312" cy="13.4329114" rx="4.25852391" ry="4.25775316"></ellipse>
                            <path d="M1.01964657,11.334019 C1.01964657,7.31613924 2.87900208,4.43765823 6.53773389,4.43765823 L8.9968815,7.91582278 C7.37744283,7.91582278 6.11787942,10.314557 6.11787942,13.4928797 L1.01964657,11.334019 Z" id="Path"></path>
                        </g>
                        <g transform="translate(8.996881, 70.762658)" fill-opacity="0.25">
                            <polygon id="Path" points="30.7693347 3.29825949 5.03825364 19.3697785 3.17889813 15.231962 27.4704782 0.359810127"></polygon>
                            <ellipse id="Oval" cx="4.43846154" cy="24.0473101" rx="4.25852391" ry="4.25775316"></ellipse>
                            <path d="M1.97931393,23.8074367 C0.35987526,20.1493671 1.01964657,16.1314873 3.5987526,14.9920886 L7.7972973,17.2708861 C6.35779626,17.930538 6.23783784,20.809019 7.55738046,23.7474684 L1.97931393,23.8074367 Z" id="Path"></path>
                        </g>
                        <g transform="translate(55.780665, 68.363924)" fill-opacity="0.25">
                            <polygon id="Path" points="0.29989605 4.79746835 28.9099792 8.51550633 28.9099792 4.7375 0.29989605 0.419778481"></polygon>
                            <ellipse id="Oval" cx="29.2698545" cy="13.4329114" rx="4.25852391" ry="4.25775316"></ellipse>
                            <path d="M32.5087318,11.334019 C32.5087318,7.31613924 30.6493763,4.43765823 26.9906445,4.43765823 L24.5314969,7.91582278 C26.1509356,7.91582278 27.410499,10.314557 27.410499,13.4928797 L32.5087318,11.334019 Z" id="Path"></path>
                        </g>
                        <g transform="translate(49.182952, 70.762658)" fill-opacity="0.25">
                            <polygon id="Path" points="0.35987526 3.29825949 26.1509356 19.3697785 27.9503119 15.231962 3.65873181 0.359810127"></polygon>
                            <ellipse id="Oval" cx="26.7507277" cy="24.0473101" rx="4.25852391" ry="4.25775316"></ellipse>
                            <path d="M29.2098753,23.8074367 C30.8293139,20.1493671 30.1695426,16.1314873 27.5904366,14.9920886 L23.3918919,17.2708861 C24.8313929,17.930538 24.9513514,20.809019 23.6318087,23.7474684 L29.2098753,23.8074367 Z" id="Path"></path>
                        </g>
                    </g>
                    <g id="Group" transform="translate(368.872141, 111.541139)" fill-rule="nonzero">
                        <path d="M19.3732848,223.202215 C18.8334719,226.440506 16.4343035,229.738766 15.2347193,232.797152 C14.5149688,234.656171 14.275052,236.035443 14.3350312,238.014399 C14.3950104,241.492563 15.5346154,246.35 14.2150728,249.648259 C13.1954262,252.226899 11.0961538,262.661392 14.2150728,263.680854 C17.3339917,264.700316 25.131289,256.90443 25.6711019,254.865506 C26.4508316,251.627215 26.57079,248.268987 26.5108108,244.970728 C26.4508316,241.912342 25.8510395,238.674051 26.3308732,235.675633 C26.5108108,234.716139 27.3505198,223.202215 27.2305613,223.202215 C27.1705821,223.202215 19.3732848,223.202215 19.3732848,223.202215 Z" id="Path" fill="#F7D7C6"></path>
                        <path d="M72.3949064,209.709335 C72.9347193,212.947627 75.3938669,216.305854 76.5934511,219.424209 C78.6927235,224.941297 75.5138254,231.118038 77.6730769,236.51519 C78.7527027,239.153797 80.8519751,249.648259 77.6730769,250.72769 C74.4941788,251.80712 66.6369023,243.891297 66.0970894,241.792405 C65.2573805,238.494146 65.0774428,235.075949 65.137422,231.657753 C65.2573805,223.322152 65.0174636,220.083861 65.3773389,222.362658 C65.1974012,221.403165 64.3576923,209.709335 64.4776507,209.709335 C64.4776507,209.709335 72.3949064,209.709335 72.3949064,209.709335 Z" id="Path" fill="#F7D7C6"></path>
                        <path d="M29.0899168,47.8547468 C29.0899168,47.8547468 17.993763,46.2955696 14.3950104,49.0541139 C10.7962578,51.8126582 4.61839917,60.5080696 2.15925156,72.5017405 C2.15925156,72.5017405 1.85935551,78.7984177 12.4756757,79.2181962 C12.4756757,79.2181962 9.05686071,90.1324367 14.9948025,95.0498418 C19.1933472,98.5280063 14.275052,122.45538 16.3743243,126.473259 C18.4735967,130.491139 60.8788981,132.470095 60.8788981,132.470095 C60.8788981,132.470095 62.3183992,114.539557 60.8788981,108.842563 C60.2191268,106.143987 57.2201663,102.126108 58.5397089,98.0482595 C59.8592516,93.9704114 67.116736,83.7757911 67.116736,81.7368671 C67.116736,79.697943 67.6565489,69.2634494 69.4559252,65.305538 C71.3152807,61.3476266 62.7982328,52.7721519 58.839605,50.4933544 C54.8809771,48.2745253 45.2843035,45.2161392 45.2843035,45.2161392 L35.9275468,63.7463608 L29.0899168,47.8547468 Z" id="Path" fill="#F79B37"></path>
                        <g transform="translate(4.798337, 0.000000)" id="Path">
                            <path d="M38.5066528,30.284019 C38.5066528,30.284019 38.9864865,42.2776899 41.0857588,43.5969937 L31.12921,73.2213608 C31.12921,73.2213608 21.5325364,63.1466772 21.1726611,60.8079114 C20.8127859,58.4691456 27.410499,47.3150316 22.552183,46.9552215 C17.6938669,46.535443 38.5066528,30.284019 38.5066528,30.284019 Z" fill="#FED2F5"></path>
                            <path d="M38.4466736,33.8821203 C38.4466736,33.8821203 39.0464657,41.6780063 40.4859667,45.2761076 L31.0692308,73.2213608 C31.0692308,73.2213608 21.4725572,63.1466772 21.1126819,60.8079114 C20.9327443,59.3686709 22.0723493,57.2098101 22.9720374,54.7511076 C22.9720374,54.7511076 25.7910603,47.9147152 23.0919958,47.0751582 L38.4466736,33.8821203" fill="#F7D7C6"></path>
                            <path d="M6.23783784,23.9873418 C6.23783784,23.9873418 10.7362786,31.9631329 11.7559252,35.021519 C12.8355509,38.0799051 13.7352391,40.8384494 20.4529106,45.9357595 C27.1705821,51.0330696 27.9503119,52.1125 31.9689189,49.1140823 C35.987526,46.1156646 41.7455301,40.6585443 40.9658004,33.7022152 C40.1260915,26.8058544 38.3866944,21.6485759 35.987526,16.1314873 C33.5883576,10.6143987 19.6132017,7.97579114 17.3939709,8.75537975 C15.1147609,9.53496835 4.13856549,15.4118671 4.37848233,18.7700949 C4.61839917,22.1283228 6.23783784,23.9873418 6.23783784,23.9873418 Z" fill="#F7D7C6"></path>
                            <path d="M11.8159044,21.2287975 C22.2522869,36.2208861 25.7910603,31.3634494 29.5097713,30.3439873 C31.9089397,29.6843354 32.8686071,27.5254747 34.4880457,27.9452532 C38.266736,28.9647152 34.6080042,40.9583861 39.8861746,51.3329114 C45.4642412,62.3071203 54.9409563,58.7689873 59.0795218,68.5438291 C64.1177755,80.3575949 53.9213098,91.3917722 60.9988565,99.7273734 C62.4383576,101.406487 65.0774428,103.565348 67.116736,102.905696 C68.3163202,102.485918 69.8158004,100.866772 70.835447,86.1745253 C71.975052,68.9636076 73.2945946,64.4060127 57.7,46.5954114 C42.1054054,28.7248418 61.118815,1.19936709 20.9927235,0.359810127 C-17.3939709,-0.419778481 8.69698545,28.3050633 8.69698545,28.3050633 L11.8159044,21.2287975 Z" fill-opacity="0.85" fill="#000000"></path>
                        </g>
                        <path d="M17.6338877,224.761392 C16.7341996,224.761392 16.0744283,223.921835 16.3143451,223.082278 C18.9534304,212.587816 23.2719335,165.872468 26.6907484,155.677848 C28.7300416,149.681013 27.2305613,131.270728 45.404262,138.526899 C63.5779626,145.78307 46.9637214,158.796203 45.404262,169.710443 C43.9647609,179.66519 32.1488565,217.385285 30.1095634,223.861867 C29.9296258,224.401582 29.3898129,224.821361 28.7900208,224.821361 L17.6338877,224.821361 L17.6338877,224.761392 Z" id="Path" fill="url(#linearGradient-18)"></path>
                        <path d="M63.997817,214.506804 C62.7382536,215.106487 61.2987526,214.26693 61.2387734,212.887658 C60.5190229,202.99288 57.8199584,170.130222 52.4218295,156.277532 C46.0040541,139.846203 47.8634096,135.108703 33.1085239,143.924051 C22.4322245,150.340665 8.93690229,143.144462 10.2564449,129.111867 C11.5160083,116.038766 26.4508316,117.71788 28.550104,118.017722 C28.7300416,118.017722 28.85,118.017722 29.0299376,118.017722 C31.12921,117.777848 46.1839917,116.158703 58.3597713,116.878323 C71.4952183,117.657911 70.3556133,127.792563 70.835447,138.047152 C71.2553015,147.762025 73.5345114,199.094937 73.5345114,208.749842 C73.5345114,209.52943 73.114657,210.189082 72.4548857,210.488924 L63.997817,214.506804 Z" id="Path" fill="url(#linearGradient-19)"></path>
                        <path d="M65.977131,79.8778481 L50.9823285,83.5958861 C50.9823285,83.5958861 47.0836798,100.866772 48.1633056,103.685285 L31.3091476,69.8031646 C30.1095634,68.8436709 28.3701663,60.6280063 27.6504158,58.3492089 C26.9306653,56.0704114 23.6917879,51.5128165 21.1726611,51.4528481 C18.7135135,51.3329114 19.3732848,54.4512658 19.3732848,54.4512658 C19.3732848,54.4512658 15.5945946,54.9310127 14.9348233,55.5906646 C14.2150728,56.2503165 14.9348233,57.0299051 14.9348233,57.0299051 C14.9348233,57.0299051 12.8355509,58.2292722 13.0154886,59.4286392 C13.1954262,60.6280063 10.7962578,59.9683544 10.9162162,61.1677215 C11.0361746,62.3670886 13.135447,65.3655063 15.1147609,67.4044304 C17.0940748,69.3833861 23.9317048,76.6995253 24.4115385,78.4386076 C24.8913721,80.1776899 37.3670478,106.443829 38.9265073,108.902532 C40.4859667,111.361234 46.3639293,124.494304 50.3225572,122.515348 C60.5190229,117.418038 65.977131,79.8778481 65.977131,79.8778481 Z" id="Path" fill="#F7D7C6"></path>
                        <path d="M10.6163202,102.246044 C8.81694387,91.7515823 11.6959459,79.2781646 11.6959459,79.2781646 C11.6959459,79.2781646 4.43846154,79.3981013 2.51912682,74.2408228 C1.55945946,71.6022152 -2.93898129,102.126108 3.35883576,108.662658 L10.6163202,102.246044 Z" id="Path" fill="#F7D7C6"></path>
                    </g>
                    <g id="Group" transform="translate(385.066528, 220.683544)">
                        <polygon id="Path" fill="#FFFFFF" fill-rule="nonzero" points="23.0320166 0.359810127 50.0826403 10.4344937 25.7310811 31.303481 0.23991684 18.5302215"></polygon>
                        <path d="M41.0257796,13.6128165 L27.7703742,25.9662975" id="Path" stroke="url(#linearGradient-20)" stroke-width="0.8832" stroke-linecap="round"></path>
                        <path d="M33.1085239,12.7732595 L19.8531185,25.1267405" id="Path" stroke="url(#linearGradient-21)" stroke-width="0.8832" stroke-linecap="round"></path>
                        <path d="M26.0309771,9.23512658 L12.7755717,21.5886076" id="Path" stroke="url(#linearGradient-22)" stroke-width="0.8832" stroke-linecap="round"></path>
                        <path d="M25.131289,2.15886076 L11.8758836,14.5123418" id="Path" stroke="url(#linearGradient-23)" stroke-width="0.8832" stroke-linecap="round"></path>
                    </g>
                    <path d="M407.498753,233.096994 C407.498753,233.096994 412.836902,234.176424 413.376715,234.956013 C413.976507,235.735601 414.576299,236.455222 415.29605,236.755063 C416.0158,237.054905 416.495634,237.834494 416.255717,238.074367 C416.0158,238.374209 414.396362,237.894462 413.976507,237.714557 C413.556653,237.534652 410.73763,235.495728 409.598025,235.255854 C408.45842,234.956013 407.618711,234.896044 407.138877,234.596203 C406.599064,234.236392 407.498753,233.096994 407.498753,233.096994 Z" id="Path" fill="#FED2F5" fill-rule="nonzero"></path>
                    <g id="Group" transform="translate(402.460499, 228.479430)" fill-rule="nonzero">
                        <path d="M12.3557173,13.372943 L0.77972973,2.7585443 C0.29989605,2.27879747 0.23991684,1.55917722 0.71975052,1.01946203 C1.1995842,0.53971519 1.91933472,0.479746835 2.45914761,0.959493671 L14.0351351,11.5738924 L12.3557173,13.372943 Z" id="Path" fill="#002A54"></path>
                        <path d="M1.61943867,3.53813291 L0.71975052,2.69857595 C0.23991684,2.21882911 0.17993763,1.49920886 0.65977131,0.959493671 C1.13960499,0.479746835 1.85935551,0.419778481 2.3991684,0.899525316 L3.29885655,1.73908228 L1.61943867,3.53813291 Z" id="Path" fill="#2F9BFF"></path>
                        <polygon id="Path" fill="#2F9BFF" points="14.9348233 14.0925633 14.9348233 14.0925633 13.9751559 11.5738924 12.3557173 13.372943"></polygon>
                    </g>
                    <path d="M414.216424,240.832911 C414.636279,240.832911 415.715904,240.053323 414.816216,239.153797 C413.916528,238.314241 407.438773,235.015981 407.438773,235.015981 C407.438773,235.015981 405.579418,233.336867 404.799688,232.617247 C404.319854,232.1375 399.34158,230.878165 399.34158,230.878165 L395.682848,236.215348 C395.682848,236.215348 396.522557,238.674051 399.101663,240.53307 C401.680769,242.392089 404.079938,243.351582 405.579418,242.571994 C405.699376,242.512025 405.819335,242.152215 405.819335,242.152215 C405.819335,242.152215 407.67869,243.231646 408.45842,241.552532 C408.45842,241.552532 411.037526,242.631962 411.697297,241.6125 C412.417048,240.53307 408.158524,238.614082 408.158524,238.614082 C408.158524,238.614082 408.038565,238.194304 409.058212,238.734019 C410.077859,239.273734 412.776923,240.952848 414.216424,240.832911 Z" id="Path" fill="#F7D7C6" fill-rule="nonzero"></path>
                    <path d="M372.170998,220.143829 C374.450208,222.362658 395.682848,236.275316 395.682848,236.275316 L399.401559,230.938133 C399.401559,230.938133 383.567048,218.944462 379.488462,213.847152 L372.170998,220.143829 Z" id="Path" fill="#F7D7C6" fill-rule="nonzero"></path>
                </g>
            </g>
        </g>
    </g>
</svg>