<?xml version="1.0" encoding="UTF-8"?>
<svg width="81px" height="81px" viewBox="0 0 81 81" version="1.1" xmlns="http://www.w3.org/2000/svg" xmlns:xlink="http://www.w3.org/1999/xlink">
    <!-- Generator: Sketch 53.2 (72643) - https://sketchapp.com -->
    <title>landscape</title>
    <desc>Created with Sketch.</desc>
    <g id="Page-1" stroke="none" stroke-width="1" fill="none" fill-rule="evenodd">
        <g id="class" transform="translate(-504.000000, -918.000000)" fill-rule="nonzero">
            <g id="path" transform="translate(100.000000, 713.000000)">
                <g id="4" transform="translate(312.000000, 167.000000)">
                    <g id="landscape" transform="translate(92.000000, 38.000000)">
                        <circle id="Oval" fill="#1274ED" cx="40.4434588" cy="40.4434588" r="40.4434588"></circle>
                        <path d="M62.6218625,14.4469059 L19.2719493,14.4469059 C17.163316,14.4469059 15.4469059,16.163316 15.4469059,18.2719493 L15.4469059,61.6218625 C15.4469059,63.7304958 17.163316,65.4469059 19.2719493,65.4469059 L62.6218625,65.4469059 C64.7304958,65.4469059 66.4469059,63.7304958 66.4469059,61.6218625 L66.4469059,18.2719493 C66.4469059,16.1631714 64.7304958,14.4469059 62.6218625,14.4469059 Z" id="Path" fill="#FCFCFD"></path>
                        <polygon id="Path" fill="#75ABF3" points="40.1715168 41.5783219 52.1419515 29.0529259 61.4469059 38.749901 61.4469059 18.4469059 20.4469059 18.4469059 20.4469059 43.4469059 31.2057326 32.2348063"></polygon>
                        <polygon id="Path" fill="#4C5365" points="52.1419515 29.4469059 40.1715168 41.2098728 31.2057326 32.4351032 20.4469059 42.9647148 20.4469059 53.4469059 61.4469059 53.4469059 61.4469059 38.5536197"></polygon>
                        <circle id="Oval" fill="#FFFFFC" cx="40.9469059" cy="26.9469059" r="3.5"></circle>
                    </g>
                </g>
            </g>
        </g>
    </g>
</svg>