<?xml version="1.0" encoding="UTF-8"?>
<svg width="81px" height="81px" viewBox="0 0 81 81" version="1.1" xmlns="http://www.w3.org/2000/svg" xmlns:xlink="http://www.w3.org/1999/xlink">
    <!-- Generator: Sketch 53.2 (72643) - https://sketchapp.com -->
    <title>sing</title>
    <desc>Created with Sketch.</desc>
    <g id="Page-1" stroke="none" stroke-width="1" fill="none" fill-rule="evenodd">
        <g id="class" transform="translate(-193.000000, -918.000000)" fill-rule="nonzero">
            <g id="path" transform="translate(100.000000, 713.000000)">
                <g id="1" transform="translate(0.000000, 167.000000)">
                    <g id="sing" transform="translate(93.000000, 38.000000)">
                        <path d="M81,40.5 C81,51.3177566 76.7872239,61.4891052 69.1378555,69.1378555 C61.4891052,76.7872239 51.3177566,81 40.5,81 C29.6822434,81 19.5108948,76.7872239 11.8621445,69.1378555 C4.21277614,61.4891052 0,51.3177566 0,40.5 C0,29.6822434 4.21277614,19.5108948 11.8621445,11.8621445 C19.5108948,4.21277614 29.6822434,0 40.5,0 C51.3177566,0 61.4891052,4.21277614 69.1378555,11.8621445 C76.7872239,19.5108948 81,29.6822434 81,40.5 Z" id="Path" fill="#7CE8DD"></path>
                        <path d="M55.3704758,30.4079666 L55.3704758,46.9247437 C55.3704758,55.124115 48.6993713,61.7952195 40.5,61.7952195 C32.3006287,61.7952195 25.6295242,55.124115 25.6295242,46.9247437 L25.6295242,30.4079666 C25.6295242,22.2085952 32.3006287,15.5374908 40.5,15.5374908 C48.6993713,15.5374908 55.3704758,22.2085952 55.3704758,30.4079666 L55.3704758,30.4079666 Z" id="Path" fill="#AEADB3"></path>
                        <path d="M40.5,61.7952195 L40.5,15.5374908 C48.6993713,15.5374908 55.3704758,22.2085952 55.3704758,30.4079666 L55.3704758,46.9247437 C55.3704758,55.124115 48.6993713,61.7952195 40.5,61.7952195 L40.5,61.7952195 Z" id="Path" fill="#8B8992"></path>
                        <path d="M62.8369217,47.1255874 C62.8369217,53.0693283 60.5071335,58.6719436 56.2770538,62.9020234 C52.0463562,67.1327209 46.4431228,69.4625092 40.5,69.4625092 C34.5568772,69.4625092 28.9536438,67.1327209 24.7229462,62.9020234 C20.4928665,58.6719436 18.1630783,53.0693283 18.1630783,47.1255874 L21.3228149,47.1255874 C21.3228149,57.6998596 29.9257278,66.3027725 40.5,66.3027725 C51.0742722,66.3027725 59.6771851,57.6998596 59.6771851,47.1255874 L62.8369217,47.1255874 Z" id="Path" fill="#00989E"></path>
                        <g id="Group" transform="translate(25.628906, 30.634766)" fill="#78777F">
                            <polygon id="Path" points="0.000617941406 0.0315170684 6.25025932 0.0315170684 6.25025932 3.19125366 0.000617941406 3.19125366"></polygon>
                            <polygon id="Path" points="0.000617941406 6.45172119 6.25025932 6.45172119 6.25025932 9.61145779 0.000617941406 9.61145779"></polygon>
                            <polygon id="Path" points="0.000617941406 12.8719253 6.25025932 12.8719253 6.25025932 16.0316621 0.000617941406 16.0316621"></polygon>
                        </g>
                        <polygon id="Path" fill="#57555C" points="49.1208344 30.6662827 55.3704758 30.6662827 55.3704758 33.8260193 49.1208344 33.8260193"></polygon>
                        <polygon id="Path" fill="#57555C" points="49.1208344 37.0864868 55.3704758 37.0864868 55.3704758 40.2462234 49.1208344 40.2462234"></polygon>
                        <polygon id="Path" fill="#57555C" points="49.1208344 43.5066909 55.3704758 43.5066909 55.3704758 46.6664277 49.1208344 46.6664277"></polygon>
                        <path d="M62.8369217,47.1255874 C62.8369217,53.0693283 60.5071335,58.6719436 56.2770538,62.9020234 C52.0463562,67.1327209 46.4431228,69.4625092 40.5,69.4625092 L40.5,66.3027725 C51.0742722,66.3027725 59.6771851,57.6998596 59.6771851,47.1255874 L62.8369217,47.1255874 Z" id="Path" fill="#006569"></path>
                    </g>
                </g>
            </g>
        </g>
    </g>
</svg>