<?xml version="1.0" encoding="UTF-8"?>
<svg width="74px" height="74px" viewBox="0 0 74 74" version="1.1" xmlns="http://www.w3.org/2000/svg" xmlns:xlink="http://www.w3.org/1999/xlink">
    <!-- Generator: Sketch 53.2 (72643) - https://sketchapp.com -->
    <title>php</title>
    <desc>Created with Sketch.</desc>
    <defs>
        <linearGradient x1="19.3080357%" y1="12.8720238%" x2="80.8673469%" y2="91.4275085%" id="linearGradient-1">
            <stop stop-color="#03ACFA" offset="0%"></stop>
            <stop stop-color="#2543E0" offset="100%"></stop>
        </linearGradient>
    </defs>
    <g id="Page-1" stroke="none" stroke-width="1" fill="none" fill-rule="evenodd">
        <g id="class" transform="translate(-819.000000, -1566.000000)" fill-rule="nonzero">
            <g id="path" transform="translate(100.000000, 1354.000000)">
                <g id="wechat" transform="translate(623.000000, 165.000000)">
                    <g id="php" transform="translate(91.000000, 42.000000)">
                        <rect id="Rectangle" fill="#000000" opacity="0" x="0" y="0" width="84" height="84"></rect>
                        <path d="M41.75,78.5 C21.4535354,78.5 5,62.0464646 5,41.75 C5,21.4535354 21.4535354,5 41.75,5 C62.0464646,5 78.5,21.4535354 78.5,41.75 C78.5,62.0464646 62.0464646,78.5 41.75,78.5 Z" id="Path" fill="url(#linearGradient-1)"></path>
                        <g transform="translate(17.000000, 28.000000)" fill="#FFFFFF" id="Shape">
                            <path d="M15.4916667,17.3220833 C14.7304167,18.05125 13.8145834,18.5995833 12.8170833,18.9291667 C11.8370833,19.2441667 10.5858333,19.4075 9.06916669,19.4075 L5.62458331,19.4075 L4.67083331,24.3104167 L0.651666689,24.3104167 L4.23916669,5.85958331 L11.9683333,5.85958331 C14.2929166,5.85958331 15.9875,6.46916662 17.055,7.69125 C18.1225,8.91041669 18.4433333,10.61375 18.0175,12.80125 C17.854396,13.6668339 17.5540855,14.5008109 17.1279167,15.2716667 C16.7108334,16.0154167 16.1654167,16.7008334 15.4916667,17.3220833 Z M10.4458333,8.77041669 L7.6925,8.77041669 L6.19041669,16.49375 L8.63458331,16.49375 C10.25625,16.49375 11.46375,16.1875 12.2570833,15.5779167 C13.0504166,14.9654167 13.5841666,13.9475 13.86125,12.5183333 C14.1295833,11.1475 14.0070833,10.1791666 13.4995833,9.61625 C12.9891666,9.05333331 11.9741666,8.77041669 10.4458333,8.77041669 Z M27.2283333,19.4075 L28.8120833,11.24375 C28.9958333,10.31625 28.9258333,9.68041669 28.61375,9.345 C28.3016667,9.00666669 27.63375,8.8375 26.61,8.8375 L23.425,8.8375 L21.3716667,19.4104167 L17.3816667,19.4104167 L20.9691667,0.956666689 L24.95625,0.956666689 L24.0025,5.8625 L27.555,5.8625 C29.7920833,5.8625 31.3320833,6.25333331 32.1808333,7.03208331 C33.0295833,7.81083331 33.2833333,9.07375 32.9479167,10.8208333 L31.2795833,19.4075 L27.2283333,19.4075 Z M49.38625,12.80125 C49.225808,13.6675568 48.9253473,14.5019511 48.4966667,15.2716667 C48.0795834,16.0154167 47.5341667,16.7008334 46.8604167,17.3220833 C46.0987482,18.0490319 45.1852668,18.5979177 44.1858333,18.9291667 C43.2058333,19.2441667 41.9545833,19.4075 40.435,19.4075 L36.9933333,19.4075 L36.0395833,24.3133333 L32.0204167,24.3133333 L35.6079167,5.8625 L43.3341667,5.8625 C45.65875,5.8625 47.3533334,6.47208331 48.4208333,7.69416669 C49.4883333,8.91041669 49.8120833,10.61375 49.38625,12.80125 Z M41.8175,8.77041669 L39.0670833,8.77041669 L37.5620833,16.49375 L40.00625,16.49375 C41.6308333,16.49375 42.8383333,16.1875 43.62875,15.5779167 C44.4220833,14.9654167 44.9558333,13.9475 45.2358333,12.5183333 C45.5041666,11.1475 45.37875,10.1791666 44.87125,9.61625 C44.36375,9.05333338 43.3429167,8.77041669 41.8175,8.77041669 Z"></path>
                        </g>
                    </g>
                </g>
            </g>
        </g>
    </g>
</svg>