<?xml version="1.0" encoding="UTF-8"?>
<svg width="352px" height="243px" viewBox="0 0 352 243" version="1.1" xmlns="http://www.w3.org/2000/svg" xmlns:xlink="http://www.w3.org/1999/xlink">
    <!-- Generator: Sketch 53.2 (72643) - https://sketchapp.com -->
    <title>pic1</title>
    <desc>Created with Sketch.</desc>
    <defs>
        <rect id="path-1" x="0.109913453" y="0.89639072" width="267" height="178" rx="4.8"></rect>
        <filter x="-3.0%" y="-3.9%" width="106.0%" height="109.0%" filterUnits="objectBoundingBox" id="filter-2">
            <feMorphology radius="0.5" operator="dilate" in="SourceAlpha" result="shadowSpreadOuter1"></feMorphology>
            <feOffset dx="0" dy="1" in="shadowSpreadOuter1" result="shadowOffsetOuter1"></feOffset>
            <feGaussianBlur stdDeviation="2" in="shadowOffsetOuter1" result="shadowBlurOuter1"></feGaussianBlur>
            <feColorMatrix values="0 0 0 0 0.180392157   0 0 0 0 0.184313725   0 0 0 0 0.333333333  0 0 0 0.1 0" type="matrix" in="shadowBlurOuter1"></feColorMatrix>
        </filter>
        <rect id="path-3" x="0.212804139" y="0.520683085" width="268" height="178" rx="4.8"></rect>
        <filter x="-3.0%" y="-3.9%" width="106.0%" height="109.0%" filterUnits="objectBoundingBox" id="filter-4">
            <feMorphology radius="0.5" operator="dilate" in="SourceAlpha" result="shadowSpreadOuter1"></feMorphology>
            <feOffset dx="0" dy="1" in="shadowSpreadOuter1" result="shadowOffsetOuter1"></feOffset>
            <feGaussianBlur stdDeviation="2" in="shadowOffsetOuter1" result="shadowBlurOuter1"></feGaussianBlur>
            <feColorMatrix values="0 0 0 0 0.180392157   0 0 0 0 0.184313725   0 0 0 0 0.333333333  0 0 0 0.1 0" type="matrix" in="shadowBlurOuter1"></feColorMatrix>
        </filter>
    </defs>
    <g id="Page-1" stroke="none" stroke-width="1" fill="none" fill-rule="evenodd">
        <g id="class" transform="translate(-228.000000, -1665.000000)">
            <g id="progress" transform="translate(101.000000, 1245.000000)">
                <g id="step2" transform="translate(131.000000, 423.000000)">
                    <g id="pic1">
                        <g id="Group-3" transform="translate(203.916787, 98.631786) rotate(4.000000) translate(-203.916787, -98.631786) translate(69.916787, 9.131786)">
                            <g id="Rectangle">
                                <use fill="black" fill-opacity="1" filter="url(#filter-2)" xlink:href="#path-1"></use>
                                <use fill="#FFFFFF" fill-rule="evenodd" xlink:href="#path-1"></use>
                            </g>
                            <path d="M21.6411057,50.4714942 L228.641106,50.4714942 L228.641106,61.2714942 L21.6411057,61.2714942 L21.6411057,50.4714942 Z M21.6411057,87.6714942 L228.641106,87.6714942 L228.641106,98.4714942 L21.6411057,98.4714942 L21.6411057,87.6714942 Z M21.6411057,105.671494 L159.641106,105.671494 L159.641106,116.471494 L21.6411057,116.471494 L21.6411057,105.671494 Z M21.6411057,68.4714942 L186.396208,68.4714942 L186.396208,79.2714942 L21.6411057,79.2714942 L21.6411057,68.4714942 Z" id="Combined-Shape" fill="#EFEEF4"></path>
                            <text id="课程大纲" font-family="PingFangSC-Regular, PingFang SC" font-size="16.8" font-weight="normal" fill="#2E2F55">
                                <tspan x="21.6704128" y="34.7657254">课程大纲</tspan>
                            </text>
                            <rect id="Rectangle" fill="#6E81EB" x="21.7204207" y="129.287791" width="73" height="30" rx="3.6"></rect>
                            <text id="提交" font-family="PingFangSC-Regular, PingFang SC" font-size="14.4" font-weight="normal" fill="#FFFFFF">
                                <tspan x="40.7216387" y="149.322669">提交</tspan>
                            </text>
                        </g>
                        <g id="Group-3" transform="translate(139.282535, 137.944471) rotate(-3.000000) translate(-139.282535, -137.944471) translate(4.782535, 48.444471)">
                            <g id="Rectangle">
                                <use fill="black" fill-opacity="1" filter="url(#filter-4)" xlink:href="#path-3"></use>
                                <use fill="#FFFFFF" fill-rule="evenodd" xlink:href="#path-3"></use>
                            </g>
                            <path d="M20.3205699,65.4327352 L228.32057,65.4327352 L228.32057,76.2327352 L20.3205699,76.2327352 L20.3205699,65.4327352 Z M20.3205699,102.632735 L171.32057,102.632735 L171.32057,115.632735 L20.3205699,115.632735 L20.3205699,102.632735 Z M20.1154724,125.65355 L228.115472,125.65355 L228.115472,138.65355 L20.1154724,138.65355 L20.1154724,125.65355 Z M20.3205699,83.4327352 L185.87159,83.4327352 L185.87159,94.2327352 L20.3205699,94.2327352 L20.3205699,83.4327352 Z" id="Combined-Shape" fill="#EFEEF4"></path>
                        </g>
                        <g id="users-16" transform="translate(204.000000, 122.000000)">
                            <g id="svg7296">
                                <path d="M3.96721533,85.3306092 C3.96721533,85.3306092 8.43678806,54.0321241 6.80530564,39.3582448 C5.16361751,24.5926396 9.78751717,0.0164607748 38.9026189,0.0164607748 C64.5802064,0.0164607748 67.4480407,28.1499365 66.8368453,33.3455498 C66.1564683,39.1291869 61.011102,75.6131856 66.9347548,88.3690947 C72.7932001,100.984604 47.9851332,95.8981118 47.9851332,95.8981118 L14.6930355,95.2188145 L3.96721533,85.3306092 L3.96721533,85.3306092 Z" id="back" fill="#3B434F"></path>
                                <path d="M0.828644949,101.012107 C0.828644949,101.012107 -0.802754611,78.787413 20.0848654,76.7132225 L29.4499091,76.7132225 L29.4499091,72.3928317 C29.4499091,72.3928317 36.0375845,75.2264381 42.7082899,72.7089574 L42.9187401,76.7132225 L53.8621607,76.7132225 C53.8621607,76.7132225 72.6018062,77.4502535 71.7504469,101.222857 L0.828644949,101.012107 L0.828644949,101.012107 Z" id="body-bg-flat-copy" fill="#FFFFFF"></path>
                                <path d="M20.0848654,76.7132225 L29.4499091,76.7132225 L29.4499091,72.3928317 C29.4499091,72.3928317 36.0375845,75.2264381 42.7082899,72.7089574 L42.9187401,76.7132225 L53.8621607,76.7132225 C53.8621607,76.7132225 72.9194687,78.6184402 71.7668919,101.506053 L0.739864865,101.506053 C0.739864865,101.506053 -1.80080149,79.2016103 20.0848654,76.7132225 Z" id="body-bg-flat" fill="#FFFFFF"></path>
                                <path d="M71.5848684,101.897918 L71.5848684,101.897918 L1.41697538,101.897918 L1.41697538,101.897918 L0.056146125,101.897918 L0.395830416,96.0866806 C1.05907019,84.7401735 9.9861736,76.0809714 20.2020124,76.0809714 L27.9767572,76.0809714 L27.9767572,77.2400987 L20.822194,77.2400987 C10.9762277,77.2400987 2.37233328,85.5750578 1.73310237,96.496695 L1.49715305,100.528041 L71.3994656,100.528041 L71.2687416,96.496695 C70.6295107,85.5750578 62.0256163,77.2400987 52.1796424,77.2400987 L42.6030649,77.2400987 L42.6030649,76.0809714 L52.7374238,76.0809714 C62.9532623,76.0809714 71.880366,84.7401735 72.5436055,96.0866806 L72.8832898,101.897918 L71.5848684,101.897918 L71.5848684,101.897918 Z" id="Rounded-Rectangle-13-copy" fill="#3B434F"></path>
                                <path d="M30.5021604,71.9053292 L30.5021604,78.4044566 C30.5021604,81.7769982 33.2345966,84.510995 36.6052251,84.510995 C39.9758536,84.510995 42.7082899,81.7769982 42.7082899,78.4044566 L42.7082899,72.0394128 C43.0624773,71.9314526 43.4133306,71.8141914 43.760541,71.6875091 L43.760541,78.4486912 C43.760541,82.4369705 40.5334466,85.6701223 36.5526162,85.6701223 C32.5717859,85.6701223 29.344684,82.4369705 29.344684,78.4486912 L29.344684,71.4873481 C29.7259209,71.6383073 30.1120576,71.7771545 30.5021604,71.9053292 L30.5021604,71.9053292 Z" id="neck-copy-5" fill="#3B434F"></path>
                                <path d="M29.2920752,84.4056199 C29.6698125,84.4056199 29.9760346,84.7122714 29.9760346,85.0905548 L29.9760346,95.4173322 C29.9760346,95.7956156 29.6698125,96.1022748 29.2920752,96.1022748 C28.9143305,96.1022748 28.6081081,95.7956156 28.6081081,95.4173322 L28.6081081,85.0905548 C28.6081081,84.7122714 28.9143305,84.4056199 29.2920752,84.4056199 L29.2920752,84.4056199 Z" id="Rounded-Rectangle-14" fill="#3B434F"></path>
                                <path d="M43.655316,84.3002448 C44.0621122,84.3002448 44.3918919,84.6304872 44.3918919,85.037871 L44.3918919,91.4657583 C44.3918919,91.8731424 44.0621122,92.2033925 43.655316,92.2033925 C43.2485124,92.2033925 42.9187401,91.8731424 42.9187401,91.4657583 L42.9187401,85.037871 C42.9187401,84.6304872 43.2485124,84.3002448 43.655316,84.3002448 L43.655316,84.3002448 Z" id="Rounded-Rectangle-15" fill="#3B434F"></path>
                                <path d="M29.2920752,95.3646483 C29.4954732,95.3646483 29.6603595,95.5297695 29.6603595,95.7334653 L29.6603595,98.3678454 C29.6603595,98.5715338 29.4954732,98.736655 29.2920752,98.736655 C29.0886696,98.736655 28.9237835,98.5715338 28.9237835,98.3678454 L28.9237835,95.7334653 C28.9237835,95.5297695 29.0886696,95.3646483 29.2920752,95.3646483 L29.2920752,95.3646483 Z" id="Rounded-Rectangle-16" fill="#3B434F"></path>
                                <path d="M43.7079248,91.4657583 C43.9113304,91.4657583 44.0762165,91.6308872 44.0762165,91.8345753 L44.0762165,94.4689555 C44.0762165,94.6726512 43.9113304,94.8377724 43.7079248,94.8377724 C43.5045268,94.8377724 43.3396405,94.6726512 43.3396405,94.4689555 L43.3396405,91.8345753 C43.3396405,91.6308872 43.5045268,91.4657583 43.7079248,91.4657583 L43.7079248,91.4657583 Z" id="Rounded-Rectangle-16-copy" fill="#3B434F"></path>
                                <path d="M25.344195,69.312124 L18.6795784,70.8446505 C18.6795784,70.8446505 10.5181246,72.695971 15.9479472,78.2043484 C21.3777775,83.7127258 35.3425236,84.6855225 35.3425236,84.6855225 C35.3425236,84.6855225 31.6502591,82.9341733 30.0812599,80.4705068 L29.5551341,71.6189824 L25.344195,69.312124 L25.344195,69.312124 Z" id="Shape-1-copy" fill="#F5F3EF"></path>
                                <path d="M35.552974,85.2123984 C35.1394492,85.7365386 23.5112713,85.3761479 15.4549523,78.3630028 C9.62170532,73.2850652 18.4012634,70.35448 18.4012634,70.35448 L24.8200037,68.8792271 L30.3969351,71.7243575 L30.8178356,80.2597566 C33.165543,83.9461702 36.2186896,84.3685979 35.552974,85.2123984 L35.552974,85.2123984 Z M29.7655845,80.6812574 L29.1342337,71.7243575 L25.7670297,69.8276038 L19.3482897,71.4082319 C19.3482897,71.4082319 11.5735596,73.0048008 16.5072037,77.6253764 C21.831598,82.6118822 31.6814027,83.9500968 32.7118956,83.8425209 C33.7799519,83.7310104 32.1132916,84.3676784 29.7655845,80.6812574 L29.7655845,80.6812574 Z" id="Shape-1-copy-2" fill="#3B434F"></path>
                                <path d="M47.8592106,69.5603937 L54.5277786,71.0975105 C54.5277786,71.0975105 62.6940642,72.9543706 57.2610279,78.4792465 C51.8279762,84.0041222 37.8549513,84.9798283 37.8549513,84.9798283 C37.8549513,84.9798283 41.5494137,83.2232408 43.119331,80.7521958 L43.6457727,71.8741634 L47.8592106,69.5603937 L47.8592106,69.5603937 Z" id="Shape-1-copy-4" fill="#F5F3EF"></path>
                                <path d="M37.6443806,85.4029045 C38.0581463,85.9286197 49.6932182,85.5671514 57.7543086,78.5330005 C63.5910179,73.4398533 54.8062591,70.5004948 54.8062591,70.5004948 L48.3837107,69.0208253 L42.803475,71.8744726 L42.3823185,80.4354371 C40.0332266,84.1328924 36.9782736,84.5565789 37.6443806,85.4029045 L37.6443806,85.4029045 Z M43.4351946,80.8581965 L44.0669215,71.8744726 L47.4361275,69.9720435 L53.8586685,71.5574048 C53.8586685,71.5574048 61.6380122,73.1587522 56.7014328,77.7931656 C51.3738849,82.7946102 41.5182397,84.1368267 40.4871448,84.0289267 C39.4184487,83.9170846 41.0861024,84.555652 43.4351946,80.8581965 L43.4351946,80.8581965 Z" id="Shape-1-copy-6" fill="#3B434F"></path>
                                <path d="M36.55294,5.79563605 C49.6430931,5.79563605 59.9751602,18.045818 59.639209,32.7647087 L59.2821466,48.4082872 C58.9656506,62.2749432 48.7929603,73.2358333 36.55294,73.2358333 C24.3129196,73.2358333 14.1402292,62.2749432 13.8237335,48.4082872 L13.4666711,32.7647087 C13.1307273,18.045818 23.462787,5.79563605 36.55294,5.79563605 L36.55294,5.79563605 Z" id="2-copy-5" fill="#FFFFFF"></path>
                                <path d="M60.6909634,32.2797007 L60.3168239,48.558794 C59.9851928,62.9887826 49.3258748,74.3949606 36.5003463,74.3949606 C23.67481,74.3949606 13.0154997,62.9887826 12.683861,48.558794 L12.309714,32.2797007 C11.9577016,16.9628524 22.784013,4.21500799 36.5003463,4.21500799 C50.2166795,4.21500799 61.0429832,16.9628524 60.6909634,32.2797007 L60.6909634,32.2797007 Z M36.4477902,5.90101143 C23.5365897,5.90101143 13.3457761,18.055488 13.6771212,32.6593862 L14.0293067,48.1807516 C14.3414747,61.9390705 24.3751017,72.8143325 36.4477902,72.8143325 C48.5204784,72.8143325 58.5540978,61.9390705 58.866266,48.1807516 L59.2184439,32.6593862 C59.549804,18.055488 49.3589904,5.90101143 36.4477902,5.90101143 L36.4477902,5.90101143 Z" id="2-line" fill="#3B434F"></path>
                                <path d="M47.8643211,57.8722631 C45.9517164,59.5353385 41.6317062,61.1176699 36.6052327,61.1176699 C31.5787516,61.1176699 27.2587413,59.5353385 25.3461292,57.8722631 C25.3461292,57.8722631 25.1504456,57.3330489 25.4375511,57.0455338 C25.7299702,56.7526978 26.1879302,56.8164307 26.1879302,56.8164307 C28.0985328,58.480637 31.5768324,59.8531752 36.6052327,59.8531752 C41.6336254,59.8531752 45.1119249,58.480637 47.0225275,56.8164307 C47.0225275,56.8164307 47.4898804,56.6425741 47.7169109,56.8699286 C48.1541812,57.3078225 47.8643211,57.8722631 47.8643211,57.8722631 L47.8643211,57.8722631 Z" id="usta" fill="#3B434F"></path>
                                <path d="M33.1327961,63.6466824 L39.8672116,63.6466824 L39.8672116,64.7004345 L33.1327961,64.7004345 L33.1327961,63.6466824 L33.1327961,63.6466824 Z" id="-" fill="#3B434F"></path>
                                <path d="M12.0369157,34.6536087 C12.0340108,34.6537744 11.7785532,34.4494758 11.2961628,34.2973785 C11.0550655,34.2214957 10.7554212,34.1590739 10.4138855,34.1436835 C10.32859,34.1398396 10.2408033,34.1389275 10.150977,34.1414825 C10.0611505,34.1440377 9.96927706,34.1500522 9.87589082,34.1600388 C9.68914104,34.1800195 9.49626468,34.2159259 9.30217643,34.2718355 C8.52503396,34.4954894 7.73225174,35.0392633 7.26665256,36.1616174 C7.03293098,36.7228246 6.87874733,37.4287427 6.83798497,38.3119696 C6.82778668,38.5327818 6.82467086,38.7646735 6.82914137,39.0081574 C6.83361952,39.251641 6.8456919,39.5067166 6.8658547,39.7738968 C6.90615809,40.3082345 6.97893737,40.8909976 7.08737616,41.5260224 C7.08500538,41.5253968 6.98623786,43.4450028 7.67152191,45.6507594 C8.31575776,47.807322 9.86277253,50.4564672 12.7190993,51.2134862 C12.3905914,45.7357696 12.3803859,40.1553761 12.0369157,34.6536087 L12.0369157,34.6536087 L12.0369157,34.6536087 Z" id="Shape-11-copy" fill="#FFFFFF"></path>
                                <path d="M12.609238,34.874436 C12.609238,34.874436 7.63330345,33.330438 7.80841787,38.4532813 C7.80841787,38.4532813 8.54924604,45.8815659 8.87094989,46.5661768 C8.87094989,46.5661768 10.8251372,50.8911803 14.0502449,51.0828546 C17.2023173,51.2701874 14.0502449,51.0828546 14.0502449,51.0828546 L14.0893892,52.4769034 C14.0893892,52.4769034 8.42087751,51.7490752 7.3260425,45.207341 L6.46191092,39.2644918 C6.46191092,39.2644918 5.79094943,31.3997151 12.2993125,33.3993942 C18.6397793,35.3474902 12.2993125,33.3993942 12.2993125,33.3993942 L12.609238,34.874436" id="Shape-3" fill="#3B434F"></path>
                                <path d="M10.9668499,45.1948446 C10.9668499,45.1948446 10.6883769,45.4055951 10.4491537,45.4055951 C10.2099304,45.4055951 9.93485189,45.1948446 9.93485189,45.1948446 L9.4213329,40.0126548 C9.4213329,40.0126548 10.1298581,37.460564 13.1363946,38.8092702 L13.2074653,40.2910425 C13.2074653,40.2910425 10.5696873,39.3542199 10.6242303,40.5207786 C10.6767339,41.6436529 10.9668499,45.1948446 10.9668499,45.1948446 L10.9668499,45.1948446 Z" id="Shape-4" fill="#3B434F"></path>
                                <path d="M60.6229033,34.6657057 C60.6258233,34.6658714 60.8824022,34.4617158 61.3669,34.3097165 C61.6090585,34.2338866 61.9100124,34.1715102 62.2530458,34.156127 C62.3387101,34.1522908 62.4268807,34.1513787 62.517106,34.1539339 C62.6073237,34.1564812 62.6995959,34.1624957 62.7933962,34.1724749 C62.9809589,34.1924405 63.1746858,34.2283242 63.3696245,34.2841963 C64.1501688,34.5076993 64.9464208,35.0511039 65.4140595,36.1726969 C65.6488046,36.7335196 65.8036657,37.4389553 65.8446012,38.3215867 C65.8548446,38.5422483 65.8579755,38.7739819 65.8534897,39.0172998 C65.8489891,39.2606175 65.8368641,39.5155199 65.8166108,39.7825191 C65.7761346,40.3164951 65.7030315,40.8988662 65.5941187,41.5334538 C65.5965045,41.5328283 65.6957009,43.4511378 65.0074137,45.6553949 C64.3603632,47.8104951 62.8065673,50.4578389 59.9377319,51.2143455 C60.2676771,45.7403446 60.277928,40.163742 60.6229033,34.6657057 L60.6229033,34.6657057 L60.6229033,34.6657057 Z" id="Shape-11-copy_1" fill="#FFFFFF"></path>
                                <path d="M60.2946965,34.8863897 C60.2946965,34.8863897 65.2924269,33.3434394 65.116545,38.4628004 C65.116545,38.4628004 64.3724731,45.886043 64.0493541,46.5701867 C64.0493541,46.5701867 62.0866095,50.8922581 58.8473825,51.0838042 C55.6814995,51.2710091 58.8473825,51.0838042 58.8473825,51.0838042 L58.8080651,52.4769034 C58.8080651,52.4769034 64.5013984,51.7495726 65.6010278,45.2122777 L66.468945,39.2734606 C66.468945,39.2734606 67.1428494,31.4140203 60.6059764,33.4123428 C54.2377454,35.3591197 60.6059764,33.4123428 60.6059764,33.4123428 L60.2946965,34.8863897" id="Shape-3_1" fill="#3B434F"></path>
                                <path d="M61.9442797,45.199789 C61.9442797,45.199789 62.2239718,45.410396 62.4642412,45.410396 C62.7045106,45.410396 62.9807934,45.199789 62.9807934,45.199789 L63.4965628,40.0211189 C63.4965628,40.0211189 62.7849366,37.4707617 59.7652292,38.8185482 L59.6938498,40.2993181 C59.6938498,40.2993181 62.3431808,39.3631287 62.2883968,40.5288961 C62.2356676,41.651009 61.9442797,45.199789 61.9442797,45.199789 L61.9442797,45.199789 Z" id="Shape-4_1" fill="#3B434F"></path>
                                <path d="M38.4466686,44.7845063 L38.8149528,44.7845063 C39.5763879,45.8200562 39.8861704,47.411417 40.2881044,48.7887637 C40.4126646,49.2156083 40.2918225,49.9622115 40.1828793,50.2640167 C39.783903,51.3693521 38.5310985,51.3495147 37.4996425,51.8446447 C37.2226297,51.977628 37.0165746,52.2071606 36.6578415,52.2661529 C36.4239693,52.0598494 36.1415902,52.0193305 36.0264833,51.6865857 C35.7422977,51.2947054 36.1085649,51.0499857 36.3947749,50.896268 C36.914217,50.6172923 38.5177318,50.3423339 38.7097275,49.8425159 C38.9472801,49.5718987 38.7893256,48.7582615 38.7097275,48.4726383 C38.5058703,47.7410639 38.408021,47.1303084 38.1309931,46.4705095 C37.9469754,46.0322537 37.6238939,45.5701661 37.8153179,45.0479404 C37.973942,44.9797303 38.3167722,44.9021743 38.4466686,44.7845063 L38.4466686,44.7845063 Z" id="new_vector_shape_done" fill="#3B434F"></path>
                                <path d="M24.9252288,35.8276064 C26.0875143,35.8276064 27.0297312,36.7711672 27.0297312,37.9351104 C27.0297312,39.0990539 26.0875143,40.0426144 24.9252288,40.0426144 C23.762943,40.0426144 22.8207187,39.0990539 22.8207187,37.9351104 C22.8207187,36.7711672 23.762943,35.8276064 24.9252288,35.8276064 L24.9252288,35.8276064 Z" id="oko" fill="#3B434F"></path>
                                <path d="M48.2852216,35.8276064 C49.4475071,35.8276064 50.3897241,36.7711672 50.3897241,37.9351104 C50.3897241,39.0990539 49.4475071,40.0426144 48.2852216,40.0426144 C47.1229435,40.0426144 46.1807189,39.0990539 46.1807189,37.9351104 C46.1807189,36.7711672 47.1229435,35.8276064 48.2852216,35.8276064 L48.2852216,35.8276064 Z" id="oko_1" fill="#3B434F"></path>
                                <path d="M24.8200037,43.625379 C26.8539997,43.625379 28.502883,43.742248 28.502883,46.0490087 C28.502883,48.4283281 26.8539997,48.4726383 24.8200037,48.4726383 C22.786,48.4726383 21.1371244,48.0393194 21.1371244,46.0490087 C21.1371244,43.7240762 22.786,43.625379 24.8200037,43.625379 L24.8200037,43.625379 Z" id="Ellipse-3-copy" fill="#F5F3EF"></path>
                                <path d="M49.232255,43.625379 C51.2662513,43.625379 52.9151346,43.742248 52.9151346,46.0490087 C52.9151346,48.4283281 51.2662513,48.4726383 49.232255,48.4726383 C47.1982514,48.4726383 45.5493757,48.0393194 45.5493757,46.0490087 C45.5493757,43.7240762 47.1982514,43.625379 49.232255,43.625379 L49.232255,43.625379 Z" id="Ellipse-3-copy-2" fill="#F5F3EF"></path>
                                <path d="M42.1722973,32.0102594 L42.7818069,32.7855486 L43.159973,33.2660567 C43.159973,33.2660567 49.8558312,29.5634234 54.5033784,33.8353511 L54.9988794,34.0786011 C54.9988794,34.0786011 53.8539494,27.8854169 43.8314916,31.5079768 C43.3027016,31.6516175 42.7509715,31.8173945 42.1722973,32.0102594 L42.1722973,32.0102594 Z" id="R" fill="#3B434F"></path>
                                <path d="M30.5810811,32.0145708 L29.9715715,32.7882468 L29.5934054,33.2677525 C29.5934054,33.2677525 22.8975472,29.572822 18.25,33.8358636 L17.7544989,34.0786087 C17.7544989,34.0786087 18.899429,27.8982976 28.9218868,31.513328 C29.4506768,31.6566748 30.0024069,31.8221052 30.5810811,32.0145708 L30.5810811,32.0145708 Z" id="L" fill="#3B434F"></path>
                                <path d="M13.1399998,32.3502173 C13.1399998,32.3502173 13.1677491,38.494388 13.2452248,38.3566112 C13.9501903,37.1029999 13.0536881,22.7483816 33.2380211,23.1825672 C44.4910508,23.4246263 46.1807189,16.5966131 46.1807189,16.5966131 C46.1807189,16.5966131 49.0785984,17.7293834 53.5464853,22.3395656 C58.3362868,27.2819118 59.2286496,33.5093445 59.2286496,33.5093445 L63.1219791,19.3890523 L48.7061295,4.42575851 L37.9731518,3.79350719 L28.6081081,5.26876777 L21.6632423,8.53539902 L13.9818007,18.3353002" id="Shape-26" fill="#3B434F"></path>
                            </g>
                        </g>
                        <g id="users-13" transform="translate(252.000000, 111.000000)">
                            <g id="svg7956">
                                <path d="M0.851351351,122.421176 C0.851351351,122.421176 -2.07215514,96.2840738 23.1113519,93.3680966 L33.8875666,93.3680966 L33.8875666,88.3053162 C33.8875666,88.3053162 41.4679054,91.6258323 49.1437857,88.675763 L49.3859475,93.3680966 L61.9783767,93.3680966 C61.9783767,93.3680966 83.9073338,95.6006954 82.5810811,122.421176 L0.851351351,122.421176 L0.851351351,122.421176 Z" id="body-bg-flat" fill="#FFFFFF"></path>
                                <path d="M82.3716294,122.880377 L82.3716294,122.880377 L1.63049222,122.880377 L1.63049222,122.880377 L0.0646065,122.880377 L0.455476095,116.070572 C1.21865611,102.77435 11.4909395,92.6272034 23.2461512,92.6272034 L33.8875666,92.6272034 L33.8875666,93.985508 L23.9597848,93.985508 C12.6301798,93.985508 2.72980816,103.752696 1.99425478,116.551041 L1.72275146,121.275108 L82.1582892,121.275108 L82.0078671,116.551041 C81.2723137,103.752696 71.371942,93.985508 60.0423282,93.985508 L49.9913525,93.985508 L49.9913525,92.6272034 L60.6841589,92.6272034 C72.4393703,92.6272034 82.711654,102.77435 83.4748337,116.070572 L83.8657033,122.880377 L82.3716294,122.880377 L82.3716294,122.880377 Z" id="Rounded-Rectangle-13-copy-3" fill="#3B434F"></path>
                                <path d="M34.7351334,87.7340443 L34.7351334,95.3499421 C34.7351334,99.3020007 37.8793068,102.505791 41.7578379,102.505791 C45.6363694,102.505791 48.7805427,99.3020007 48.7805427,95.3499421 L48.7805427,87.891168 C49.1881008,87.7646565 49.5918224,87.6272459 49.9913525,87.4787953 L49.9913525,95.4017778 C49.9913525,100.075379 46.2779835,103.864096 41.697302,103.864096 C37.1166206,103.864096 33.4032428,100.075379 33.4032428,95.4017778 L33.4032428,87.2442398 C33.8419262,87.4211389 34.2862479,87.5838448 34.7351334,87.7340443 L34.7351334,87.7340443 Z" id="neck-copy-7" fill="#3B434F"></path>
                                <path d="M63.4880911,108.960447 L60.0584627,116.255623 C59.8850036,116.624595 59.4510919,116.780297 59.0893039,116.603398 C58.7275074,116.426499 58.5748332,115.983982 58.7482923,115.61501 L62.0606243,108.569351 L59.4724657,103.997629 C59.2718564,103.643265 59.3909023,103.190141 59.7383745,102.985553 C60.0858555,102.780956 60.5301596,102.902372 60.7307777,103.256735 L63.51564,108.175923 C63.6591511,108.429414 63.6383404,108.73301 63.4880911,108.960447 L63.4880911,108.960447 Z" id="Rounded-Rectangle-2" fill="#3B434F"></path>
                                <path d="M19.967707,108.967566 L23.415739,116.285202 C23.5901247,116.655313 24.0263659,116.811492 24.3900939,116.634045 C24.7538303,116.456599 24.9073273,116.012721 24.7329328,115.642619 L21.4028382,108.575268 L24.0048795,103.989468 C24.2065626,103.634018 24.086876,103.179498 23.7375418,102.974274 C23.3881989,102.769051 22.941513,102.890837 22.7398211,103.246296 L19.9400199,108.18063 C19.7957377,108.434899 19.8166526,108.739431 19.967707,108.967566 L19.967707,108.967566 Z" id="Rounded-Rectangle-2-copy-3" fill="#3B434F"></path>
                                <path d="M33.4032428,92.3802388 L34.7351334,92.3802388 L34.7351334,122.386449 L33.4032428,122.386449 L33.4032428,92.3802388 L33.4032428,92.3802388 Z" id="Rectangle-24" fill="#3B434F"></path>
                                <path d="M48.7805427,92.6272034 L50.1124334,92.6272034 L50.1124334,122.633413 L48.7805427,122.633413 L48.7805427,92.6272034 L48.7805427,92.6272034 Z" id="Rectangle-24-copy" fill="#3B434F"></path>
                                <path d="M42.0609173,10.264464 C57.1235592,10.264464 69.0125131,24.6196427 68.6259392,41.8677379 L68.2150727,60.1994136 C67.8508856,76.4488313 56.1453242,89.2931741 42.0609173,89.2931741 C27.9765102,89.2931741 16.2709487,76.4488313 15.9067619,60.1994136 L15.4958955,41.8677379 C15.10933,24.6196427 26.9982754,10.264464 42.0609173,10.264464 L42.0609173,10.264464 Z" id="2-copy-5" fill="#FFFFFF"></path>
                                <path d="M69.8361771,41.299389 L69.4056604,60.3757826 C69.0240574,77.2853326 56.7585409,90.6514787 42.0003984,90.6514787 C27.2422472,90.6514787 14.9767394,77.2853326 14.5951277,60.3757826 L14.1646024,41.299389 C13.7595471,23.3505868 26.2172204,8.41223047 42.0003984,8.41223047 C57.7835764,8.41223047 70.241241,23.3505868 69.8361771,41.299389 L69.8361771,41.299389 Z M41.939923,10.3879465 C27.0831991,10.3879465 15.3567835,24.6309743 15.7380572,41.7443174 L16.1433118,59.9327797 C16.5025188,76.0552444 28.0480623,88.7992451 41.939923,88.7992451 C55.8317834,88.7992451 67.377318,76.0552444 67.7365253,59.9327797 L68.1417711,41.7443174 C68.5230621,24.6309743 56.7966465,10.3879465 41.939923,10.3879465 L41.939923,10.3879465 Z" id="2-line" fill="#3B434F"></path>
                                <path d="M69.0805404,44.4690785 L67.8697309,64.7201915 C67.8697309,64.7201915 62.491964,88.0962506 41.7162162,90.8641127 L41.7162162,90.8984433 C41.6753826,90.8933557 41.6358478,90.8865285 41.5951353,90.8812823 C41.5544229,90.8865285 41.5148881,90.8933557 41.4740541,90.8984433 L41.4740541,90.8641127 C20.6983151,88.0962506 15.3205398,64.7201915 15.3205398,64.7201915 L14.10973,44.4690785 C19.5009896,68.8742149 24.0383779,70.4003833 24.0383779,70.4003833 C23.120177,62.9997954 30.5767588,63.7323337 30.5767588,63.7323337 C35.121309,64.5152153 38.7390845,64.8935312 41.5951353,65.0349694 C44.4511946,64.8935312 48.0689614,64.5152153 52.6135118,63.7323337 C52.6135118,63.7323337 60.0700848,62.9997954 59.1518925,70.4003833 C59.1518925,70.4003833 63.6892807,68.8742149 69.0805404,44.4690785 L69.0805404,44.4690785 Z M55.6168237,72.9104617 C55.2643543,68.5572382 52.6903815,68.9263687 52.6903815,68.9263687 C48.1144718,70.2995201 44.5224783,71.0623525 41.7162162,71.4500485 L41.7162162,71.4215913 C38.9296045,71.0370574 35.3627695,70.280487 30.8189206,68.9185876 C30.8189206,68.9185876 28.26297,68.5524776 27.9129687,72.870028 C27.9129687,72.870028 26.886617,77.1957658 30.3345968,79.0441397 L34.6935114,83.7364737 C34.6935114,83.7364737 37.6722973,84.6992482 37.5994633,81.0198554 C37.5994633,81.0198554 37.2962804,78.2757518 39.0524349,77.8093176 L41.7162162,77.8093176 L41.7162162,77.8905731 L44.3987906,77.8905731 C46.1673294,78.3608672 45.8620161,81.1276518 45.8620161,81.1276518 C45.7886625,84.8374536 48.7884498,83.8667124 48.7884498,83.8667124 L53.1781175,79.1356054 C56.6504159,77.271952 55.6168237,72.9104617 55.6168237,72.9104617 L55.6168237,72.9104617 Z" id="1-copy-4" fill="#3B434F" opacity="0.058824"></path>
                                <path d="M39.0940569,79.5380776 L44.9059431,79.5380776 C45.1734369,79.5380776 45.390267,79.7592079 45.390267,80.0319976 C45.390267,80.3047962 45.1734369,80.5259265 44.9059431,80.5259265 L39.0940569,80.5259265 C38.8265631,80.5259265 38.609733,80.3047962 38.609733,80.0319976 C38.609733,79.7592079 38.8265631,79.5380776 39.0940569,79.5380776 L39.0940569,79.5380776 Z" id="Rounded-Rectangle-3" fill="#3B434F"></path>
                                <path d="M34.0081279,73.6282237 L34.6825389,72.6654668 C36.8507029,73.9302388 39.4265899,74.6634748 42.190113,74.6634748 C44.9844238,74.6634748 47.586716,73.9135461 49.7698283,72.622719 L50.4759448,73.6171569 C48.1010483,75.0192512 45.2711867,75.8336105 42.2328174,75.8336105 C39.2023638,75.8336105 36.3792138,75.0236321 34.0081279,73.6282237 L34.0081279,73.6282237 Z" id="2" fill="#3B434F"></path>
                                <path d="M14.1344814,44.0812149 C14.1311387,44.0814091 13.8371875,43.8420051 13.2821081,43.6637723 C13.0046811,43.5748503 12.6598849,43.5017023 12.2668849,43.4836673 C12.1687366,43.4791629 12.0677218,43.4780941 11.9643601,43.4810881 C11.8609981,43.4840823 11.7552807,43.4911304 11.6478225,43.502833 C11.4329324,43.526247 11.2109925,43.5683234 10.987658,43.6338402 C10.0934119,43.8959254 9.18116935,44.5331381 8.64541139,45.8483507 C8.37647149,46.5059924 8.19905469,47.3332111 8.15215005,48.3682063 C8.14041503,48.6269615 8.1368297,48.8987001 8.14197385,49.1840227 C8.1471268,49.4693451 8.1610183,49.7682513 8.18421932,50.0813422 C8.23059584,50.7074973 8.31434185,51.3903988 8.43912073,52.1345424 C8.43639272,52.1338093 8.32274242,54.3832686 9.11128845,56.9680491 C9.85260093,59.4951822 11.6327275,62.5995404 14.9194596,63.486641 C14.5414506,57.0676669 14.5297073,50.5283725 14.1344814,44.0812149 L14.1344814,44.0812149 L14.1344814,44.0812149 Z" id="Shape-11-copy" fill="#F7FBFB"></path>
                                <path d="M14.5092601,44.3399878 C14.5092601,44.3399878 8.78352726,42.5306787 8.98502878,48.5338002 C8.98502878,48.5338002 9.83748859,57.238516 10.2076684,58.0407662 C10.2076684,58.0407662 12.4563223,63.108952 16.1674051,63.3335624 C19.7944473,63.5530853 16.1674051,63.3335624 16.1674051,63.3335624 L16.2124478,64.9671561 C16.2124478,64.9671561 9.68977686,64.1142623 8.42996672,56.4484363 L7.43562353,49.4844041 C7.43562353,49.4844041 6.66355824,40.2681921 14.1526336,42.6114839 C21.4485132,44.8943289 14.1526336,42.6114839 14.1526336,42.6114839 L14.5092601,44.3399878" id="Shape-3" fill="#3B434F"></path>
                                <path d="M12.619389,56.4337926 C12.619389,56.4337926 12.2989542,56.6807573 12.0236837,56.6807573 C11.7484131,56.6807573 11.4318844,56.4337926 11.4318844,56.4337926 L10.8409858,50.3611269 C10.8409858,50.3611269 11.656275,47.3705003 15.1158514,48.95096 L15.1976313,50.687351 C15.1976313,50.687351 12.1623799,49.5895506 12.2251418,50.9565636 C12.2855568,52.2723857 12.619389,56.4337926 12.619389,56.4337926 L12.619389,56.4337926 Z" id="Shape-4" fill="#3B434F"></path>
                                <path d="M69.7578613,44.0953906 C69.7612213,44.0955848 70.0564629,43.8563484 70.6139672,43.6782305 C70.8926153,43.5893703 71.2389184,43.5162756 71.6336417,43.498249 C71.7322143,43.4937536 71.833671,43.4926848 71.9374919,43.4956791 C72.041304,43.4986641 72.1474802,43.5057121 72.2554149,43.5174061 C72.4712404,43.5408024 72.6941591,43.5828522 72.918472,43.648325 C73.8166326,43.9102333 74.7328677,44.5470133 75.2709726,45.861334 C75.5410902,46.518525 75.7192865,47.3451785 75.7663904,48.379476 C75.7781773,48.6380547 75.78178,48.909608 75.7766182,49.1947362 C75.7714395,49.4798641 75.7574875,49.7785674 75.7341823,50.0914461 C75.6876069,50.7171772 75.6034883,51.3996194 75.478164,52.1432508 C75.4809093,52.1425177 75.5950531,54.3904579 74.8030514,56.9734811 C74.0585001,59.4989006 72.2705706,62.6011478 68.969445,63.4876479 C69.3491079,57.073028 69.3609034,50.538176 69.7578613,44.0953906 L69.7578613,44.0953906 L69.7578613,44.0953906 Z" id="Shape-11-copy_1" fill="#F7FBFB"></path>
                                <path d="M69.3801987,44.3539956 C69.3801987,44.3539956 75.1310118,42.5459142 74.9286272,48.544955 C74.9286272,48.544955 74.0724347,57.2437624 73.7006266,58.0454651 C73.7006266,58.0454651 71.442126,63.110215 67.7147963,63.3346752 C64.0718624,63.5540482 67.7147963,63.3346752 67.7147963,63.3346752 L67.6695543,64.9671561 C67.6695543,64.9671561 74.2207873,64.1148451 75.4861142,56.4542214 L76.4848134,49.4949141 C76.4848134,49.4949141 77.2602651,40.2849554 69.7383838,42.6266574 C62.4105564,44.9079567 69.7383838,42.6266574 69.7383838,42.6266574 L69.3801987,44.3539956" id="Shape-3_1" fill="#3B434F"></path>
                                <path d="M71.2783493,56.4395867 C71.2783493,56.4395867 71.6001868,56.6863831 71.8766611,56.6863831 C72.1531355,56.6863831 72.4710499,56.4395867 72.4710499,56.4395867 L73.064538,50.3710454 C73.064538,50.3710454 72.2456805,47.3824504 68.7709487,48.9618324 L68.6888134,50.6970486 C68.6888134,50.6970486 71.7373588,49.5999902 71.6743196,50.966076 C71.6136449,52.2810059 71.2783493,56.4395867 71.2783493,56.4395867 L71.2783493,56.4395867 Z" id="Shape-4_1" fill="#3B434F"></path>
                                <path d="M44.2400022,55.9529443 L44.6637813,55.9529443 C45.5399533,57.1664368 45.8964152,59.0312473 46.3589147,60.6452689 C46.5022442,61.1454599 46.363193,62.0203548 46.2378338,62.3740203 C45.7787377,63.6692899 44.3371544,63.6460438 43.1502736,64.2262539 C42.8315191,64.3820882 42.5944146,64.6510623 42.1816259,64.7201915 C41.9125126,64.4784381 41.5875833,64.4309566 41.4551314,64.041035 C41.1281234,63.5818164 41.5495815,63.2950455 41.8789191,63.1149139 C42.4766333,62.7880007 44.3217736,62.4657951 44.5427001,61.8800914 C44.8160484,61.5629731 44.6342925,60.6095254 44.5427001,60.2748225 C44.3081248,59.4175388 44.195531,58.7018348 43.8767592,57.92866 C43.6650128,57.4150971 43.2932478,56.8736071 43.5135165,56.2616453 C43.6960429,56.1817144 44.0905324,56.0908316 44.2400022,55.9529443 L44.2400022,55.9529443 Z" id="new_vector_shape_done" fill="#3B434F"></path>
                                <path d="M28.6810851,45.4569453 C30.0185096,45.4569453 31.1027044,46.5626418 31.1027044,47.92659 C31.1027044,49.2905384 30.0185096,50.3962346 28.6810851,50.3962346 C27.3436604,50.3962346 26.2594571,49.2905384 26.2594571,47.92659 C26.2594571,46.5626418 27.3436604,45.4569453 28.6810851,45.4569453 L28.6810851,45.4569453 Z" id="eye" fill="#3B434F"></path>
                                <path d="M55.5610769,45.4569453 C56.8985014,45.4569453 57.9826962,46.5626418 57.9826962,47.92659 C57.9826962,49.2905384 56.8985014,50.3962346 55.5610769,50.3962346 C54.223661,50.3962346 53.1394574,49.2905384 53.1394574,47.92659 C53.1394574,46.5626418 54.223661,45.4569453 55.5610769,45.4569453 L55.5610769,45.4569453 Z" id="eye_1" fill="#3B434F"></path>
                                <path d="M56.650814,54.5946396 C58.3225905,54.5946396 59.6778383,55.9767643 59.6778383,57.6816954 C59.6778383,59.3866264 58.3225905,60.7687514 56.650814,60.7687514 C54.979029,60.7687514 53.62379,59.3866264 53.62379,57.6816954 C53.62379,55.9767643 54.979029,54.5946396 56.650814,54.5946396 L56.650814,54.5946396 Z" id="Ellipse-3" fill="#EDF1F1"></path>
                                <path d="M27.3491945,54.5946396 C29.020971,54.5946396 30.3762188,55.9767643 30.3762188,57.6816954 C30.3762188,59.3866264 29.020971,60.7687514 27.3491945,60.7687514 C25.6774095,60.7687514 24.3221705,59.3866264 24.3221705,57.6816954 C24.3221705,55.9767643 25.6774095,54.5946396 27.3491945,54.5946396 L27.3491945,54.5946396 Z" id="Ellipse-3-copy" fill="#EDF1F1"></path>
                                <path d="M66.2162192,43.2342563 L66.2162192,52.3719503 C66.2162192,54.6049731 64.0803407,58.0894137 60.5999971,58.2889585 C60.0887306,58.264096 49.7491904,58.2991065 49.7491904,58.2991065 C45.1012871,58.2991065 44.1794575,52.6189149 44.1794575,52.6189149 L44.1794575,46.4448032 L39.8205425,46.4448032 L39.8205425,52.6189149 C39.8205425,52.6189149 38.8987129,58.2991065 34.2508096,58.2991065 C34.2508096,58.2991065 23.9112694,58.264096 23.4000029,58.2889585 C19.9196593,58.0894137 17.7837808,54.6049731 17.7837808,52.3719503 L17.7837808,43.2342563 L13.9091899,43.2342563 L13.9091899,40.7646117 L36.4302671,40.7646117 C36.4302671,40.7646117 39.8205425,41.3231741 39.8205425,43.7281852 L44.1794575,43.7281852 C44.1794575,41.3231741 47.5697329,40.7646117 47.5697329,40.7646117 L70.0908101,40.7646117 L70.0908101,43.2342563 L66.2162192,43.2342563 L66.2162192,43.2342563 Z M37.3989148,44.4690785 C37.3989148,43.5887875 36.4302671,43.4812206 36.4302671,43.4812206 L20.2054088,43.4812206 L20.2054088,52.124986 C20.2054088,54.8182076 23.8378378,55.8294618 23.8378378,55.8294618 L33.7664857,55.8294618 C37.1825347,55.8294618 37.3989148,52.124986 37.3989148,52.124986 L37.3989148,44.4690785 L37.3989148,44.4690785 Z M63.7945912,43.4812206 L47.5697329,43.4812206 C47.5697329,43.4812206 46.6010852,43.5887875 46.6010852,44.4690785 L46.6010852,52.124986 C46.6010852,52.124986 46.8174653,55.8294618 50.2335143,55.8294618 L60.1621622,55.8294618 C60.1621622,55.8294618 63.7945912,54.8182076 63.7945912,52.124986 L63.7945912,43.4812206 L63.7945912,43.4812206 Z M60.4043242,58.2991065 C60.4703423,58.2977022 60.5349056,58.2926945 60.5999971,58.2889585 C60.6547308,58.2916257 60.599746,58.2949554 60.4043242,58.2991065 L60.4043242,58.2991065 Z M23.4000029,58.2889585 C23.4650944,58.2926945 23.5296577,58.2977022 23.5956758,58.2991065 C23.400254,58.2949554 23.3452692,58.2916257 23.4000029,58.2889585 L23.4000029,58.2889585 Z" id="Shape-1-copy-5" fill="#3B434F"></path>
                                <path d="M14.9698631,42.9873007 C14.9698631,42.9873007 15.9041204,28.1124916 24.9050496,21.5013652 C24.9050496,21.5013652 37.9014513,30.5175025 58.3454627,21.5013652 C58.3454627,21.5013652 67.3880397,25.7016954 68.765302,42.9873007 L69.2507346,42.9873007 C69.2507346,42.9873007 71.8397505,23.1876691 65.1304656,15.3272445 C65.1304656,15.3272445 63.4777594,9.30748351 54.7106348,4.95472796 L51.5604512,6.93045265 C51.5604512,6.93045265 49.4439202,4.2890757 43.806151,1.00329653 C43.806151,1.00329653 39.6365093,2.89797724 37.505784,6.18955043 L34.1132826,3.96687011 C34.1132826,3.96687011 29.3728601,6.17990579 26.601309,10.1409908 L21.5125481,10.8818754 L18.8470088,15.8211734 C18.8470088,15.8211734 12.4843127,21.0489119 14.4844219,42.4933628 L14.9698631,42.9873007 L14.9698631,42.9873007 Z" id="Shape-6-copy-3" fill="#9EA0A4"></path>
                                <path d="M70.2193823,42.9873007 L67.9177354,42.8638182 C66.5404729,25.5782132 58.3454627,22.489223 58.3454627,22.489223 C37.9014513,31.5053604 24.9050496,22.3657409 24.9050496,22.3657409 C17.043352,29.2055049 15.8174299,43.1107828 15.8174299,43.1107828 L13.7579363,42.4933628 C11.7578271,21.0489119 18.1205229,15.4507269 18.1205229,15.4507269 L21.0282243,10.0174997 L26.3591469,9.27661514 C29.130698,5.31553009 34.2343635,2.85553009 34.2343635,2.85553009 L37.3989233,4.95472796 C39.5296485,1.66315506 43.9372954,0.0154386706 43.9372954,0.0154386706 C49.5750647,3.30121784 51.6864858,5.81910366 51.6864858,5.81910366 L54.9527966,3.96687011 C63.7199211,8.31962565 66.0991133,15.2037623 66.0991133,15.2037623 C72.8083982,23.064187 70.2193823,42.9873007 70.2193823,42.9873007 L70.2193823,42.9873007 Z M64.5210856,15.6976912 C64.5210856,15.6976912 63.4806347,10.2953414 54.7135101,5.94258582 L51.444324,7.91830154 C51.444324,7.91830154 49.3329026,5.27693356 43.6951336,1.99115439 C43.6951336,1.99115439 39.8928915,4.00931755 37.7621662,7.30089045 L34.1297287,4.95472796 C34.1297287,4.95472796 29.7574941,7.0442812 26.985943,11.0053662 L22.1427042,11.7462598 L19.6000041,16.4385848 C19.6000041,16.4385848 14.3187226,20.552413 14.8778376,37.1836267 L14.9989188,37.0601446 C14.9989188,37.0601446 16.6791649,26.722029 24.9050496,20.3900252 C24.9050496,20.3900252 38.2646942,29.6531268 58.7087056,20.6369895 C58.7087056,20.6369895 66.2616601,24.25945 68.8800003,37.1836267 C68.8800003,37.1836267 70.4341947,23.8906196 64.5210856,15.6976912 L64.5210856,15.6976912 Z" id="Shape-6-copy" fill="#3B434F"></path>
                                <path d="M38.3108108,107.082353 L41.7162162,103.32 L45.4054054,107.082353 L43.4189189,109.108235 L46.5405405,122.131765 L36.8918919,122.131765 L40.2972973,109.108235 L38.3108108,107.082353 L38.3108108,107.082353 Z" id="Shape-34" fill="#3B434F"></path>
                                <path d="M45.8876335,122.331362 L42.4555626,109.268689 L43.1691878,109.050349 L43.6423657,108.537635 L47.2723091,122.353425 L45.8876335,122.331362 L45.8876335,122.331362 Z M36.2065515,122.1771 L39.7896424,108.601076 L40.0210826,108.803385 L40.7475685,109.297314 L40.9870976,109.321744 L37.5884128,122.199119 L36.2065515,122.1771 L36.2065515,122.1771 Z" id="Rectangle-24-copy-4" fill="#3B434F"></path>
                                <path d="M49.9872561,110.783278 L49.0454642,111.743748 L45.3808879,108.006496 C44.6737234,109.151937 43.4252842,109.914725 42,109.914725 C40.5171242,109.914725 39.2257729,109.089123 38.5364399,107.865711 L34.7111182,111.766905 L33.7667973,110.803857 L41.2980923,103.123202 L41.8871117,102.566247 L42.476131,103.123202 L49.9872561,110.783278 L49.9872561,110.783278 Z M39.2772501,107.110209 C39.7601017,108.112852 40.7701288,108.803385 41.9394553,108.803385 C43.0824887,108.803385 44.0718694,108.142599 44.5669841,107.176451 L41.8896407,104.44601 L39.2772501,107.110209 L39.2772501,107.110209 Z" id="Ellipse-6" fill="#3B434F"></path>
                                <path d="M42.3232666,6.5618341 C42.5014108,6.6969836 42.4132221,6.82204682 42.3745361,6.99104101 C42.3168233,7.24316351 42.2483542,7.49271575 42.2097894,7.74429966 C42.1513405,8.12552152 42.098053,8.50719371 42.0827587,8.88330195 C42.0698979,9.19956331 42.0754754,9.51478279 42.0808622,9.82797957 C42.0839711,10.0088443 42.114326,10.1893996 42.1186906,10.3705557 C42.1204313,10.4428294 42.1397354,10.5153149 42.1417273,10.5888689 C42.1460749,10.6088296 42.1504224,10.628799 42.15477,10.6487508 C42.1572988,10.741197 42.1810629,10.829377 42.1835658,10.9216464 C42.198349,11.0051897 42.2131497,11.0887507 42.2279329,11.172294 C42.2496877,11.3046878 42.2602621,11.4428932 42.29997,11.5718603 C42.3043263,11.6048836 42.3086824,11.6379246 42.3130385,11.6709482 C42.344545,11.7734364 42.3548597,11.879219 42.3865654,11.982034 C42.3888343,12.0023391 42.3911034,12.0226529 42.3933723,12.0429668 C42.439385,12.1912055 42.4601094,12.3471724 42.5059922,12.4944928 C42.5804976,12.7337113 42.6411204,12.9739457 42.7232987,13.2126256 C42.7777986,13.3709242 42.8247812,13.5367566 42.8796103,13.6959826 C42.9772041,13.9794238 43.0963019,14.2562496 43.2035696,14.5366086 C43.2688688,14.7072721 43.3564774,14.8649523 43.4264276,15.034874 C43.6243869,15.515749 43.8787511,15.988375 44.121987,16.4597376 C44.2005716,16.6120214 44.2868291,16.752073 44.3739178,16.9008063 C44.4294744,16.9957076 44.4871611,17.1020468 44.5384048,17.1997921 C44.5667588,17.25388 44.6022837,17.2946581 44.6331233,17.3471829 C44.6999816,17.461038 44.7724172,17.5834164 44.8382016,17.6981282 C44.8990409,17.8042112 44.9677265,17.8948026 45.0349226,17.9982091 C45.1073408,18.1096622 45.1790575,18.2351051 45.2524715,18.3470525 C45.3800479,18.5415982 45.5153665,18.7296079 45.6417303,18.921769 C45.7730132,19.121402 45.9205862,19.298151 46.0595855,19.4949313 C46.3289672,19.8762767 46.6438418,20.2421132 46.9342681,20.6248631 C47.021201,20.7394248 47.1252038,20.8395902 47.2121021,20.9504514 C47.2554475,21.0057582 47.3279177,21.0540787 47.3572589,21.1121943 C47.3692017,21.1358558 47.3760261,21.1723237 47.3843486,21.1991114 C47.3977464,21.2422213 47.3942822,21.2954615 47.3948537,21.3411147 C47.395763,21.4142007 47.3992532,21.4882317 47.3867043,21.5647006 C47.3736965,21.6439338 47.3243582,21.7311422 47.2922801,21.8093861 C47.2665154,21.8721917 47.2023592,21.9275605 47.1660636,21.9581374 C47.1355182,21.9838829 47.1229174,22.0078268 47.0917832,22.0327689 C47.0107825,22.0976851 46.9191209,22.1510755 46.8304211,22.1782168 C46.7384738,22.2063471 46.6196359,22.1221326 46.5470012,22.0332901 C46.4199446,21.8778708 46.2610524,21.7351873 46.1391139,21.579353 C46.1130461,21.5460292 46.084086,21.5312443 46.058477,21.4982034 C45.9176936,21.316579 45.7448755,21.1455534 45.6058328,20.9668703 C45.5740924,20.9260835 45.5393125,20.9032168 45.5085421,20.8623947 C45.4004429,20.718996 45.2737848,20.5897552 45.1641009,20.4434862 C44.889142,20.0768371 44.5926447,19.722571 44.3440308,19.353343 C44.2859022,19.2670178 44.2235214,19.1988422 44.1665882,19.1121018 C43.7639058,18.4985239 43.3598292,17.895571 43.0371775,17.2703521 C42.9522708,17.1058357 42.8584442,16.9562281 42.7789851,16.7911375 C42.5533906,16.3223978 42.3429689,15.8539496 42.1499721,15.3811648 C42.1246143,15.3190483 42.1062112,15.2495924 42.082776,15.1866546 C41.9770759,14.9028424 41.8812921,14.6225717 41.7863568,14.3381059 C41.6905815,14.0511409 41.6360901,13.7513424 41.546585,13.4636529 C41.5277055,13.402976 41.5219464,13.3371678 41.5027722,13.2749895 C41.5001566,13.2525557 41.4975412,13.2301222 41.4949259,13.2076975 C41.4741668,13.1402286 41.471898,13.0685028 41.4516239,13.0026061 C41.4030216,12.8445635 41.3879959,12.6737675 41.3613307,12.511371 C41.3361636,12.358098 41.3017818,12.2013537 41.2975642,12.0450514 C41.2918224,12.0166207 41.2860803,11.9881721 41.2803473,11.9597328 C41.2775932,11.8582072 41.2524434,11.7578652 41.2499666,11.6577088 C41.2456536,11.4828852 41.21846,11.3086269 41.2152731,11.1342008 C41.2113067,10.9172922 41.2031226,10.6995975 41.2043869,10.4825034 C41.20566,10.2651531 41.2233187,10.052687 41.2356165,9.83349084 C41.2689242,9.23969662 41.3754038,8.64304098 41.5160226,8.02812057 C41.5670322,7.80506456 41.6488556,7.58682233 41.7177404,7.36338661 C41.7651993,7.20946904 41.8398605,7.0611594 41.8931049,6.9089728 C41.9070046,6.86925451 41.9286037,6.8456553 41.9434564,6.8057075 C41.975361,6.71986768 42.0171908,6.61425294 42.0950565,6.55789492 C42.1298972,6.53268802 42.2099713,6.51919246 42.2509869,6.53156626 C42.2795574,6.54017771 42.2976058,6.56256718 42.3232666,6.5618341 L42.3232666,6.5618341 Z M36.6410262,10.8186372 C36.7699795,10.9137683 36.7598467,11.0530952 36.76293,11.1705628 C36.7661169,11.2922963 36.800438,11.4134733 36.8037464,11.5361871 C36.8176722,11.6209671 36.8315983,11.7057644 36.8455242,11.7905441 C36.8473688,11.859214 36.8642911,11.9243424 36.8752985,11.9913782 C36.8866524,12.0604634 36.8915627,12.1299547 36.9123652,12.1975207 C36.9248965,12.2738215 36.9374281,12.35014 36.9499597,12.4264411 C36.9706234,12.4936535 36.9729533,12.5655032 36.9932617,12.6315322 C37.0560671,12.8357402 37.0800735,13.0524194 37.1439614,13.2563447 C37.2116856,13.4725468 37.2611712,13.6960708 37.3347064,13.9103386 C37.4310274,14.1910243 37.5252871,14.4735029 37.6300779,14.752528 C37.6836597,14.8951938 37.7474089,15.0285591 37.8045329,15.170739 C37.8482072,15.2794362 37.8897165,15.3978841 37.9394184,15.504135 C38.1458476,15.9453889 38.35898,16.3862542 38.5860382,16.8261659 C38.765828,17.1745143 38.9803112,17.5069211 39.1773264,17.8503857 C39.2380706,17.9562829 39.3066955,18.0473159 39.3740473,18.1504577 C39.5260632,18.3832643 39.687822,18.6253711 39.8434666,18.8619577 C39.9906156,19.0856232 40.167452,19.2940882 40.3222047,19.5130635 C40.3474842,19.5488337 40.376765,19.5681762 40.4012828,19.6042731 C40.4797286,19.7197713 40.5824149,19.8310208 40.6687328,19.9446818 C40.7121302,20.0018346 40.7671238,20.0415086 40.8066063,20.1011167 C40.8930457,20.2316469 40.9469567,20.475061 40.9057592,20.626806 C40.8343976,20.8897038 40.5855759,21.0667087 40.3961818,21.1344073 C40.3390317,21.154836 40.2498469,21.1918072 40.1877607,21.1728713 C40.0899155,21.1430361 40.0274828,21.0541936 39.9703242,20.9808604 C39.8964422,20.8860561 39.810332,20.817227 39.7388057,20.7226085 C39.6066482,20.5477673 39.4510901,20.3915 39.318924,20.2151397 C39.0421636,19.8458413 38.7587005,19.4885987 38.5128839,19.1128262 C37.9437487,18.2428243 37.4714973,17.3645823 37.1031967,16.4622902 C36.950315,16.0877367 36.827242,15.7014802 36.7041604,15.320647 C36.6603303,15.1850469 36.6363409,15.0399703 36.594165,14.9046176 C36.5363568,14.7190983 36.5106786,14.5277763 36.4539099,14.3433964 C36.4509481,14.318843 36.4479774,14.2942899 36.4450156,14.2697365 C36.4358096,14.228552 36.4221435,14.1888427 36.4152932,14.1473141 C36.4105906,14.1121709 36.405888,14.0770189 36.4011855,14.041867 C36.3797768,13.9723228 36.3747538,13.9005084 36.3630795,13.8293655 C36.3517344,13.7602806 36.3341625,13.6929267 36.3322487,13.6221811 C36.3237267,13.576784 36.3152049,13.5313779 36.3066744,13.4859894 C36.3015907,13.3007969 36.2579944,13.1193053 36.2542791,12.9327968 C36.2534045,12.8887949 36.2396344,12.8421614 36.2385864,12.7982038 C36.2343427,12.6198208 36.2170566,12.4409169 36.2179142,12.2625252 C36.2188927,12.059377 36.2169701,11.8527402 36.2294151,11.64953 C36.2343169,11.5694668 36.2480696,11.4940137 36.2515942,11.4137737 C36.2554483,11.3257613 36.2706906,11.2414585 36.2820615,11.1504785 C36.2888079,11.0965405 36.2888948,11.0312356 36.3048125,10.9767237 C36.3209728,10.9213463 36.3765119,10.8318234 36.4278853,10.8088863 C36.4629425,10.7932448 36.530485,10.7776736 36.5687467,10.7883694 C36.5974645,10.796389 36.6152268,10.819335 36.6410262,10.8186372 L36.6410262,10.8186372 Z M32.2990253,11.7415169 C32.4439483,11.8498874 32.403712,11.9866267 32.4027508,12.1193827 C32.4012093,12.3330057 32.4224185,12.5462402 32.427658,12.7589095 C32.4318409,12.9284513 32.474381,13.0968363 32.4789797,13.2665372 C32.4888957,13.3204042 32.4988204,13.3742892 32.5087367,13.4281653 C32.5112828,13.5222012 32.5312192,13.6435904 32.5588631,13.7333954 C32.5614785,13.7558202 32.5640938,13.7782629 32.5667095,13.8006877 C32.5752658,13.8527618 32.5859787,13.9039883 32.601654,13.9549057 C32.6053174,13.9836897 32.608972,14.0124914 32.6126353,14.0412754 C32.649901,14.1624964 32.6613934,14.2921876 32.6992047,14.4122431 C32.7896452,14.699376 32.8615353,14.9930714 32.9602895,15.2798249 C33.1743399,15.9013694 33.4677454,16.5038367 33.7798659,17.1085472 C33.8818682,17.3061752 34.0088294,17.4900695 34.1119488,17.6863902 C34.1559262,17.7701014 34.2136217,17.8380736 34.2623539,17.9191349 C34.3955595,18.1407071 34.549983,18.3617314 34.6948279,18.5813162 C34.8952987,18.8852304 35.1395046,19.1622774 35.352559,19.4636036 C35.4272114,19.5691918 35.5214799,19.6608783 35.5939846,19.762669 C35.6584611,19.8531985 35.7419041,19.9211 35.8109362,20.0103135 C35.9476839,20.1870358 36.1200775,20.3553502 36.2651392,20.5315866 C36.3488679,20.6333154 36.4484363,20.7154542 36.5294285,20.8137208 C36.6198948,20.9234866 36.7336924,21.0112519 36.822834,21.1170698 C36.8453769,21.1372247 36.8679198,21.1573883 36.890463,21.1775432 C36.9813885,21.287265 37.1083065,21.3844718 37.2020727,21.4941583 C37.2420921,21.5409686 37.2895771,21.5628635 37.3300384,21.6097887 C37.4615552,21.762311 37.6470437,21.8859167 37.7820938,22.0399229 C37.8206413,22.0838805 37.8719454,22.113636 37.9064223,22.1529037 C37.9209804,22.1635112 37.9355473,22.1741274 37.950114,22.184735 C37.9967155,22.2377011 38.0693071,22.2862074 38.1165756,22.3396154 C38.132346,22.3511059 38.1481252,22.3626054 38.1639045,22.3740959 C38.2411206,22.4614988 38.3600972,22.5306813 38.4380407,22.6186228 C38.4586698,22.6336551 38.4792986,22.6486875 38.4999277,22.6637198 C38.5992972,22.7757378 38.7569249,22.8558985 38.8578012,22.9692591 C38.903052,23.0040929 38.9483109,23.0389358 38.9935617,23.0737697 C39.0156457,23.0985705 39.0633296,23.1199971 39.0892678,23.1490992 C39.1579531,23.2261684 39.2737686,23.2866951 39.3482999,23.3602228 C39.3923554,23.4036948 39.4614394,23.4336356 39.4986185,23.4753499 C39.5314066,23.5121356 39.5908604,23.5367686 39.6198032,23.5692444 C39.7144616,23.6382147 39.809137,23.7072026 39.9037862,23.7761639 C40.1278395,23.9394174 40.3511044,24.092443 40.5679691,24.2489045 C40.6706208,24.322962 40.7980673,24.3813161 40.8613227,24.4738416 C40.8970556,24.5261103 40.9113106,24.60121 40.9300775,24.6582922 C40.9723057,24.786694 40.9897391,24.9391368 40.9543007,25.0789938 C40.9435099,25.1216088 40.9217377,25.1503662 40.906045,25.1949776 C40.8809126,25.2664383 40.8391089,25.3773438 40.7643177,25.4443886 C40.7156724,25.4879929 40.6649571,25.5467706 40.6110719,25.5846431 C40.5280101,25.6430058 40.4374224,25.6118637 40.3360698,25.5690012 C40.3036541,25.5472476 40.2712295,25.5254853 40.2388137,25.5037316 C40.0833941,25.4356799 39.9381854,25.2900644 39.7821857,25.2214122 C39.7521342,25.2081904 39.7206711,25.1750256 39.6958502,25.1641003 C39.6440179,25.1282066 39.5921766,25.0922949 39.5403444,25.0563922 C39.4832896,25.0312383 39.4320374,24.9701906 39.3676733,24.9417776 C39.3138403,24.918019 39.2587863,24.8736287 39.205923,24.8351204 C39.1865066,24.8209804 39.1670901,24.8068223 39.1476733,24.792682 C39.0957196,24.7697273 39.0343434,24.7212653 38.9859231,24.686025 C38.9155401,24.6347456 38.8451399,24.5834485 38.7747567,24.5321601 C38.6991689,24.4986775 38.6153364,24.4215994 38.5427882,24.3687478 C38.482685,24.3249581 38.4012774,24.2777681 38.3560613,24.2270979 C38.3148034,24.1970332 38.2735364,24.1669598 38.2322785,24.1369041 C38.1461075,24.0741252 38.0611404,24.0121853 37.9862538,23.9464477 C37.9449959,23.9163831 37.9037204,23.8863184 37.8624622,23.8562537 C37.8027229,23.7890323 37.6991186,23.7381679 37.6398381,23.671653 C37.6119257,23.6513215 37.5840133,23.6309721 37.5561009,23.6106407 C37.5128247,23.5618696 37.438155,23.5192103 37.3953638,23.471137 C37.3710974,23.4534551 37.3468223,23.4357642 37.3225474,23.4180823 C37.2897244,23.3809696 37.2311282,23.3421435 37.1982274,23.3051014 C37.1788106,23.2909524 37.1593941,23.2768033 37.1399777,23.262663 C37.0262839,23.1339873 36.8597704,23.0368072 36.7487962,22.9104633 C36.7141201,22.8814674 36.6794437,22.8524626 36.6447676,22.8234667 C36.5012649,22.6588887 36.3072632,22.5266978 36.1687751,22.3646987 C36.1311195,22.3206352 36.0886578,22.3007627 36.0517299,22.257026 C35.9237119,22.1053693 35.7603248,21.9702374 35.6371047,21.8205589 C35.6167787,21.7958819 35.5969899,21.7901498 35.5767592,21.7654022 C35.5186738,21.6943299 35.4436402,21.6209171 35.3873824,21.5490411 C35.3611934,21.5155849 35.3328045,21.5014448 35.3067455,21.4679002 C35.1118172,21.217023 34.8826545,20.9931193 34.6938406,20.7414208 C34.3594542,20.2956888 34.0106048,19.8607145 33.746229,19.4016108 C33.6863511,19.2976298 33.614946,19.2106068 33.5567829,19.1068379 C33.45388,18.9232351 33.3416589,18.74245 33.2450001,18.5549699 C33.0937289,18.2616103 32.9521489,17.9657953 32.8144311,17.6702628 C32.7175647,17.4623893 32.6408769,17.2387947 32.5613139,17.0268055 C32.4960147,16.8527946 32.4337463,16.6836236 32.3737904,16.5095069 C32.3148045,16.3381809 32.2725418,16.1599657 32.2174531,15.9869351 C32.1614203,15.8109548 32.1384874,15.6242431 32.0839703,15.4474412 C32.0632634,15.3802818 32.0654111,15.2955107 32.0448254,15.2285808 C31.9940494,15.0635345 31.9818382,14.8841889 31.9539865,14.7145586 C31.835114,13.9905082 31.8227816,13.2490848 31.8748824,12.4960912 C31.8869031,12.3223012 31.9223846,12.1577052 31.9503924,11.9801172 C31.9631578,11.8992148 31.9891822,11.7964264 32.0770508,11.7365269 C32.1050585,11.7174318 32.1941479,11.7023905 32.2267456,11.7112404 C32.2534888,11.7185003 32.2744383,11.7421264 32.2990253,11.7415169 L32.2990253,11.7415169 Z" id="new_vector_shape_done-copy" fill="#3B434F" opacity="0.2"></path>
                            </g>
                        </g>
                        <text id="课程内容" transform="translate(62.245814, 82.636191) rotate(-3.000000) translate(-62.245814, -82.636191) " font-family="PingFangSC-Regular, PingFang SC" font-size="16.8" font-weight="normal" fill="#2E2F55">
                            <tspan x="22.2458145" y="88.6361914">课程内容</tspan>
                        </text>
                    </g>
                </g>
            </g>
        </g>
    </g>
</svg>