<?xml version="1.0" encoding="UTF-8"?>
<svg width="391px" height="203px" viewBox="0 0 391 203" version="1.1" xmlns="http://www.w3.org/2000/svg" xmlns:xlink="http://www.w3.org/1999/xlink">
    <!-- Generator: Sketch 53.2 (72643) - https://sketchapp.com -->
    <title>Group 4</title>
    <desc>Created with Sketch.</desc>
    <defs>
        <path d="M5.4,0 L197.510177,1.77635684e-15 C200.492515,1.2285103e-15 202.910177,2.41766235 202.910177,5.4 L202.910177,144.554754 C202.910177,145.151221 202.426645,145.634754 201.830177,145.634754 L1.08,145.634754 C0.48353247,145.634754 -1.70331063e-15,145.151221 -1.77635684e-15,144.554754 L0,5.4 C-3.65231026e-16,2.41766235 2.41766235,6.76509548e-15 5.4,6.21724894e-15 Z" id="path-1"></path>
        <filter x="-3.0%" y="-3.4%" width="106.9%" height="109.6%" filterUnits="objectBoundingBox" id="filter-2">
            <feOffset dx="1" dy="2" in="SourceAlpha" result="shadowOffsetOuter1"></feOffset>
            <feGaussianBlur stdDeviation="2" in="shadowOffsetOuter1" result="shadowBlurOuter1"></feGaussianBlur>
            <feColorMatrix values="0 0 0 0 0.180392157   0 0 0 0 0.184313725   0 0 0 0 0.333333333  0 0 0 0.1 0" type="matrix" in="shadowBlurOuter1"></feColorMatrix>
        </filter>
    </defs>
    <g id="Page-1" stroke="none" stroke-width="1" fill="none" fill-rule="evenodd">
        <g id="class" transform="translate(-774.000000, -2552.000000)">
            <g id="progress" transform="translate(101.000000, 1245.000000)">
                <g id="step5" transform="translate(142.000000, 1308.000000)">
                    <g id="Group-4" transform="translate(531.000000, 0.000000)">
                        <g id="Window" transform="translate(96.000000, 50.000000)" fill-rule="nonzero">
                            <g id="Rectangle">
                                <use fill="black" fill-opacity="1" filter="url(#filter-2)" xlink:href="#path-1"></use>
                                <use fill="#FFFFFF" xlink:href="#path-1"></use>
                            </g>
                            <rect id="Rectangle-2" fill="#E5E4EB" x="13.4734513" y="34.8550709" width="48.7738938" height="49.4455657"></rect>
                            <ellipse id="Chart-base" fill="#EFEEF4" cx="35.3004425" cy="110.509488" rx="21.8269912" ry="21.8857422"></ellipse>
                            <path d="M35.3004425,88.6237461 C44.9708269,88.6237461 53.172378,94.9294969 56.0384627,103.663958 L35.3004425,111.590266 L35.3004425,88.6237461 L35.3004425,88.6237461 Z" id="Chart-base" fill="#6E81EB"></path>
                            <g id="Chart-bar-" transform="translate(106.440265, 37.016626)" fill="#EFEEF4">
                                <path d="M1.08,13.5097174 L9.69876106,13.5097174 C10.2952286,13.5097174 10.7787611,13.9932499 10.7787611,14.5897174 L10.7787611,28.6413783 C10.7787611,29.2378458 10.2952286,29.7213783 9.69876106,29.7213783 L1.08,29.7213783 C0.48353247,29.7213783 -1.489984e-16,29.2378458 -2.22044605e-16,28.6413783 L-2.22044605e-16,14.5897174 C-2.9509081e-16,13.9932499 0.48353247,13.5097174 1.08,13.5097174 Z" id="Chart-bar-base"></path>
                                <path d="M28.0269027,8.10583044 L36.6456637,8.10583044 C37.2421312,8.10583044 37.7256637,8.58936291 37.7256637,9.18583044 L37.7256637,28.6413783 C37.7256637,29.2378458 37.2421312,29.7213783 36.6456637,29.7213783 L28.0269027,29.7213783 C27.4304351,29.7213783 26.9469027,29.2378458 26.9469027,28.6413783 L26.9469027,9.18583044 C26.9469027,8.58936291 27.4304351,8.10583044 28.0269027,8.10583044 Z" id="Chart-bar-base"></path>
                                <path d="M41.500354,21.6155478 L50.119115,21.6155478 C50.7155826,21.6155478 51.199115,22.0990803 51.199115,22.6955478 L51.199115,28.6413783 C51.199115,29.2378458 50.7155826,29.7213783 50.119115,29.7213783 L41.500354,29.7213783 C40.9038865,29.7213783 40.420354,29.2378458 40.420354,28.6413783 L40.420354,22.6955478 C40.420354,22.0990803 40.9038865,21.6155478 41.500354,21.6155478 Z" id="Chart-bar-base"></path>
                                <path d="M55.2432743,13.5097174 L63.8620354,13.5097174 C64.4585029,13.5097174 64.9420354,13.9932499 64.9420354,14.5897174 L64.9420354,28.6413783 C64.9420354,29.2378458 64.4585029,29.7213783 63.8620354,29.7213783 L55.2432743,29.7213783 C54.6468068,29.7213783 54.1632743,29.2378458 54.1632743,28.6413783 L54.1632743,14.5897174 C54.1632743,13.9932499 54.6468068,13.5097174 55.2432743,13.5097174 Z" id="Chart-bar-base"></path>
                                <path d="M68.7167257,5.40388696 L77.3354867,5.40388696 C77.9319543,5.40388696 78.4154867,5.88741943 78.4154867,6.48388696 L78.4154867,28.6413783 C78.4154867,29.2378458 77.9319543,29.7213783 77.3354867,29.7213783 L68.7167257,29.7213783 C68.1202581,29.7213783 67.6367257,29.2378458 67.6367257,28.6413783 L67.6367257,6.48388696 C67.6367257,5.88741943 68.1202581,5.40388696 68.7167257,5.40388696 Z" id="Chart-bar-base"></path>
                                <path d="M14.5534513,0 L23.1722124,0 C23.7686799,-1.09569308e-16 24.2522124,0.48353247 24.2522124,1.08 L24.2522124,28.6413783 C24.2522124,29.2378458 23.7686799,29.7213783 23.1722124,29.7213783 L14.5534513,29.7213783 C13.9569838,29.7213783 13.4734513,29.2378458 13.4734513,28.6413783 L13.4734513,1.08 C13.4734513,0.48353247 13.9569838,1.09569308e-16 14.5534513,0 Z" id="Chart-bar-base"></path>
                            </g>
                            <path d="M104.286637,72.1418909 L189.704071,72.1418909 C190.300538,72.1418909 190.784071,72.6254234 190.784071,73.2218909 L190.784071,132.396008 C190.784071,132.992475 190.300538,133.476008 189.704071,133.476008 L104.286637,133.476008 C103.69017,133.476008 103.206637,132.992475 103.206637,132.396008 L103.206637,73.2218909 C103.206637,72.6254234 103.69017,72.1418909 104.286637,72.1418909 Z" id="Chart-base" fill="#EFEEF4"></path>
                            <g id="UI" transform="translate(70.331416, 39.718569)" fill="#EFEEF4">
                                <rect id="UI-base" x="0" y="0" width="15.6292035" height="15.6712722"></rect>
                                <rect id="UI-base" x="0" y="23.7771026" width="15.6292035" height="15.6712722"></rect>
                                <rect id="UI-base" x="0" y="47.5542052" width="15.6292035" height="15.6712722"></rect>
                                <rect id="UI-base" x="0" y="71.3313079" width="15.6292035" height="15.6712722"></rect>
                            </g>
                            <path d="M5.4,0 L197.510177,-8.8817842e-16 C200.492515,-1.43602496e-15 202.910177,2.41766235 202.910177,5.4 L202.910177,20.2653535 C202.910177,20.861821 202.426645,21.3453535 201.830177,21.3453535 L1.08,21.3453535 C0.48353247,21.3453535 -7.11616811e-17,20.861821 -1.99840144e-15,20.2653535 L0,5.4 C-3.65231026e-16,2.41766235 2.41766235,-3.40331881e-16 5.4,-8.8817842e-16 Z" id="Titlebar-base" fill-opacity="0.310096154" fill="#28296F"></path>
                            <g id="Titlebar-button" transform="translate(6.736726, 7.295247)" fill="#FFFFFF">
                                <ellipse cx="3.36836283" cy="3.37742935" rx="3.36836283" ry="3.37742935"></ellipse>
                                <ellipse cx="13.8776549" cy="3.37742935" rx="3.36836283" ry="3.37742935"></ellipse>
                                <ellipse cx="24.3869469" cy="3.37742935" rx="3.36836283" ry="3.37742935"></ellipse>
                            </g>
                            <g id="Chart" transform="translate(111.290708, 82.139082)" stroke="#D1D6FC" stroke-width="0.54">
                                <path d="M0,0.270194348 L72.6413547,0.270194348" id="Path-52"></path>
                                <path d="M0,8.91641348 L72.6413547,8.91641348" id="Path-52-Copy"></path>
                                <path d="M0,17.5626326 L72.6413547,17.5626326" id="Path-52-Copy-2"></path>
                                <path d="M0,26.2088518 L72.6413547,26.2088518" id="Path-52-Copy-3"></path>
                                <path d="M0,34.8550709 L72.6413547,34.8550709" id="Path-52-Copy-4"></path>
                                <path d="M0,43.50129 L72.6413547,43.50129" id="Path-52-Copy-5"></path>
                            </g>
                            <path d="M109.62772,121.102583 C109.478327,121.360717 109.148524,121.448543 108.891083,121.298748 C108.633642,121.148954 108.546051,120.818263 108.695444,120.560129 L119.597384,101.722757 C120.344346,100.432088 121.993364,99.992956 123.280568,100.741929 C123.503207,100.871473 123.706186,101.032336 123.883316,101.219613 L133.16403,111.031943 C133.778487,111.681597 134.801838,111.70879 135.449748,111.092679 C135.509515,111.035845 135.564863,110.974515 135.615308,110.909225 L153.375412,87.9227045 C154.286851,86.7430487 155.979451,86.5276047 157.15594,87.441497 C157.393383,87.6259411 157.5984,87.8488917 157.762515,88.1011288 L166.238383,101.128175 C166.726281,101.878052 167.728064,102.089364 168.475928,101.600153 C168.64616,101.488797 168.793925,101.346255 168.911479,101.179998 L183.9729,79.8785456 C184.145048,79.6350768 184.481441,79.5776349 184.724256,79.7502455 C184.967072,79.9228561 185.024359,80.2601551 184.852212,80.5036239 L169.790791,101.805076 C169.594867,102.082172 169.348592,102.319742 169.064872,102.505335 C167.818432,103.320687 166.148793,102.9685 165.335631,101.718704 L156.859763,88.6916584 C156.761294,88.5403161 156.638283,88.4065458 156.495818,88.2958793 C155.789924,87.7475439 154.774364,87.8768103 154.227501,88.5846037 L136.467397,111.571124 C136.383321,111.679942 136.291074,111.782158 136.191463,111.876881 C135.111613,112.903732 133.406028,112.858412 132.381933,111.775655 L123.10122,101.963324 C122.994941,101.850958 122.873154,101.754441 122.739571,101.676714 C121.967248,101.22733 120.977837,101.49081 120.52966,102.265211 L109.62772,121.102583 Z" id="Chart-base" fill="#FEBD59"></path>
                            <path d="M109.499369,121.252431 C109.26744,121.439488 108.928192,121.402606 108.741637,121.170053 C108.555082,120.937499 108.591865,120.597338 108.823794,120.41028 L131.496494,102.124144 C132.418105,101.38084 133.715387,101.327008 134.695099,101.991414 L144.513732,108.650065 C145.161924,109.089646 146.031038,109.000681 146.577271,108.438836 L155.997468,98.7493855 C157.009693,97.708229 158.662127,97.6569614 159.736612,98.6333768 L170.472329,108.38923 C171.090232,108.950736 172.032681,108.948919 172.648425,108.385033 L184.823806,97.2350766 C185.043584,97.0338087 185.384471,97.0492936 185.585199,97.269663 C185.785926,97.4900324 185.770483,97.8318371 185.550705,98.033105 L173.375324,109.183061 C172.349083,110.122871 170.778336,110.1259 169.748497,109.190056 L159.01278,99.4342032 C158.368089,98.8483539 157.376629,98.8791144 156.769294,99.5038084 L147.349096,109.193258 C146.438709,110.129667 144.990185,110.277942 143.909866,109.545308 L134.091232,102.886657 C133.503405,102.488013 132.725036,102.520312 132.172069,102.966295 L109.499369,121.252431 Z" id="Chart-base" fill="#6E81EB"></path>
                        </g>
                        <g id="Group" transform="translate(0.000000, 36.000000)">
                            <g id="users-10">
                                <path d="M1.16465131,107.931373 C1.16465131,107.931373 -1.54364465,84.1889276 21.7860078,81.5401095 C21.7860078,81.5401095 31.768944,81.5401095 31.768944,81.5401095 C31.768944,81.5401095 31.768944,76.9411765 31.768944,76.9411765 C31.768944,76.9411765 38.791265,79.9574699 45.9020942,77.2776832 C45.9020942,77.2776832 46.1264296,81.5401095 46.1264296,81.5401095 C46.1264296,81.5401095 57.7918818,81.5401095 57.7918818,81.5401095 C57.7918818,81.5401095 78.1065642,83.5681596 76.877942,107.931373 C76.877942,107.931373 1.16465131,107.931373 1.16465131,107.931373 Z" id="body-bg-flat" fill="#FFFFFF" fill-rule="nonzero"></path>
                                <path d="M76.6093527,109 C76.6093527,109 76.6093527,109 76.6093527,109 C76.6093527,109 1.45748792,109 1.45748792,109 C1.45748792,109 1.45748792,109 1.45748792,109 C1.45748792,109 0,109 0,109 C0,109 0.363811806,102.74592 0.363811806,102.74592 C1.07416099,90.5347582 10.6353497,81.2156863 21.5768117,81.2156863 C21.5768117,81.2156863 29.9037908,81.2156863 29.9037908,81.2156863 C29.9037908,81.2156863 29.9037908,82.4631442 29.9037908,82.4631442 C29.9037908,82.4631442 22.2410443,82.4631442 22.2410443,82.4631442 C11.6957266,82.4631442 2.48070416,91.4332644 1.79606917,103.187179 C1.79606917,103.187179 1.54336055,107.525732 1.54336055,107.525732 C1.54336055,107.525732 76.410781,107.525732 76.410781,107.525732 C76.410781,107.525732 76.2707717,103.187179 76.2707717,103.187179 C75.5861367,91.4332644 66.3711143,82.4631442 55.8257884,82.4631442 C55.8257884,82.4631442 45.5689939,82.4631442 45.5689939,82.4631442 C45.5689939,82.4631442 45.5689939,81.2156863 45.5689939,81.2156863 C45.5689939,81.2156863 56.4231886,81.2156863 56.4231886,81.2156863 C67.3646503,81.2156863 76.9258393,90.5347582 77.6361882,102.74592 C77.6361882,102.74592 78,109 78,109 C78,109 76.6093527,109 76.6093527,109 Z" id="Rounded-Rectangle-13-copy" fill="#3B434F" fill-rule="nonzero"></path>
                                <path d="M33.2558732,76.313459 C33.2558732,76.313459 33.2558732,83.1691023 33.2558732,83.1691023 C33.2558732,86.726648 36.0912405,89.610621 39.588841,89.610621 C43.0864415,89.610621 45.9218091,86.726648 45.9218091,83.1691023 C45.9218091,83.1691023 45.9218091,76.4548978 45.9218091,76.4548978 C46.2893388,76.3410154 46.6534087,76.2173216 47.0136986,76.0836901 C47.0136986,76.0836901 47.0136986,83.2157635 47.0136986,83.2157635 C47.0136986,87.4228238 43.6650391,90.8333333 39.5342504,90.8333333 C35.4034617,90.8333333 32.0547945,87.4228238 32.0547945,83.2157635 C32.0547945,83.2157635 32.0547945,75.872549 32.0547945,75.872549 C32.4503926,76.0317893 32.8510751,76.1782531 33.2558732,76.313459 Z" id="neck-copy-5" fill="#3B434F" fill-rule="nonzero"></path>
                                <path d="M31.5205509,89.7647059 C31.8156031,89.7647059 32.0547945,90.1009007 32.0547945,90.5156286 C32.0547945,90.5156286 32.0547945,101.837304 32.0547945,101.837304 C32.0547945,102.252032 31.8156031,102.588235 31.5205509,102.588235 C31.225493,102.588235 30.9863014,102.252032 30.9863014,101.837304 C30.9863014,101.837304 30.9863014,90.5156286 30.9863014,90.5156286 C30.9863014,90.1009007 31.225493,89.7647059 31.5205509,89.7647059 Z" id="Rounded-Rectangle-14" fill="#3B434F" fill-rule="nonzero"></path>
                                <path d="M46.4794521,89.7647059 C46.7745058,89.7647059 47.0136986,90.1219368 47.0136986,90.5626134 C47.0136986,90.5626134 47.0136986,97.5158094 47.0136986,97.5158094 C47.0136986,97.9564863 46.7745058,98.3137255 46.4794521,98.3137255 C46.184393,98.3137255 45.9452055,97.9564863 45.9452055,97.5158094 C45.9452055,97.5158094 45.9452055,90.5626134 45.9452055,90.5626134 C45.9452055,90.1219368 46.184393,89.7647059 46.4794521,89.7647059 Z" id="Rounded-Rectangle-15" fill="#3B434F" fill-rule="nonzero"></path>
                                <path d="M31.5205533,102.588235 C31.8156069,102.588235 32.0547945,102.745222 32.0547945,102.938882 C32.0547945,102.938882 32.0547945,105.443478 32.0547945,105.443478 C32.0547945,105.637131 31.8156069,105.794118 31.5205533,105.794118 C31.2254887,105.794118 30.9863014,105.637131 30.9863014,105.443478 C30.9863014,105.443478 30.9863014,102.938882 30.9863014,102.938882 C30.9863014,102.745222 31.2254887,102.588235 31.5205533,102.588235 Z" id="Rounded-Rectangle-16" fill="#3B434F" fill-rule="nonzero"></path>
                                <path d="M46.4794467,98.3137255 C46.7745113,98.3137255 47.0136986,98.4707188 47.0136986,98.6643716 C47.0136986,98.6643716 47.0136986,101.168962 47.0136986,101.168962 C47.0136986,101.362622 46.7745113,101.519608 46.4794467,101.519608 C46.1843931,101.519608 45.9452055,101.362622 45.9452055,101.168962 C45.9452055,101.168962 45.9452055,98.6643716 45.9452055,98.6643716 C45.9452055,98.4707188 46.1843931,98.3137255 46.4794467,98.3137255 Z" id="Rounded-Rectangle-16-copy" fill="#3B434F" fill-rule="nonzero"></path>
                                <path d="M26.8440046,73.7352941 C26.8440046,73.7352941 19.8094886,75.3332166 19.8094886,75.3332166 C19.8094886,75.3332166 11.195058,77.2635366 16.9262465,83.0069673 C22.6574431,88.750398 37.3972603,89.7647059 37.3972603,89.7647059 C37.3972603,89.7647059 33.5000677,87.9386232 31.8439861,85.3698272 C31.8439861,85.3698272 31.2886593,76.1405907 31.2886593,76.1405907 C31.2886593,76.1405907 26.8440046,73.7352941 26.8440046,73.7352941 Z" id="Shape-1-copy" fill="#F5F3EF" fill-rule="nonzero"></path>
                                <path d="M38.3674162,91.7218477 C37.9293789,92.2990458 25.611916,91.9021733 17.0780416,84.1790982 C10.8990164,78.5871286 20.1990015,75.3598847 20.1990015,75.3598847 C20.1990015,75.3598847 26.9982263,73.7352941 26.9982263,73.7352941 C26.9982263,73.7352941 32.9057422,76.8684328 32.9057422,76.8684328 C32.9057422,76.8684328 33.3515925,86.2678574 33.3515925,86.2678574 C35.8384652,90.3274411 39.0725936,90.7926305 38.3674162,91.7218477 Z M32.236967,86.7320261 C32.236967,86.7320261 31.5681914,76.8684328 31.5681914,76.8684328 C31.5681914,76.8684328 28.0013893,74.7796736 28.0013893,74.7796736 C28.0013893,74.7796736 21.2021648,76.5203062 21.2021648,76.5203062 C21.2021648,76.5203062 12.966571,78.2784935 18.1926674,83.3668029 C23.8326765,88.8580852 34.2663493,90.3317652 35.3579269,90.2132995 C36.4892946,90.0905011 34.7238394,90.7916179 32.236967,86.7320261 Z" id="Shape-1-copy-2" fill="#3B434F"></path>
                                <path d="M51.1559987,74.8039216 C51.1559987,74.8039216 58.190515,76.4018451 58.190515,76.4018451 C58.190515,76.4018451 66.8049385,78.3321607 61.0737557,84.0755952 C55.3425567,89.8190293 40.6027397,90.8333333 40.6027397,90.8333333 C40.6027397,90.8333333 44.4999417,89.0072571 46.1560107,86.43846 C46.1560107,86.43846 46.7113417,77.2092217 46.7113417,77.2092217 C46.7113417,77.2092217 51.1559987,74.8039216 51.1559987,74.8039216 Z" id="Shape-1-copy-4" fill="#F5F3EF" fill-rule="nonzero"></path>
                                <path d="M40.7010761,91.7218449 C41.1391092,92.2990489 53.4565759,91.9021782 61.9904478,84.179098 C68.169479,78.5871246 58.8694957,75.3598835 58.8694957,75.3598835 C58.8694957,75.3598835 52.070266,73.7352941 52.070266,73.7352941 C52.070266,73.7352941 46.1627506,76.8684295 46.1627506,76.8684295 C46.1627506,76.8684295 45.7168933,86.2678604 45.7168933,86.2678604 C43.2300276,90.3274469 39.9959021,90.7926296 40.7010761,91.7218449 Z M46.8315204,86.7320251 C46.8315204,86.7320251 47.500298,76.8684295 47.500298,76.8684295 C47.500298,76.8684295 51.0671073,74.7796752 51.0671073,74.7796752 C51.0671073,74.7796752 57.8663291,76.5203078 57.8663291,76.5203078 C57.8663291,76.5203078 66.1019299,78.2784922 60.875821,83.3668032 C55.2358134,88.8580925 44.8021365,90.3317665 43.710568,90.2132988 C42.5791931,90.0905028 44.3446544,90.7916119 46.8315204,86.7320251 Z" id="Shape-1-copy-6" fill="#3B434F"></path>
                                <path d="M39.5342464,5.34313725 C53.4639132,5.34313725 64.4586091,18.5426818 64.1011123,34.4022547 C64.1011123,34.4022547 63.7211503,51.2581767 63.7211503,51.2581767 C63.3843564,66.1994685 52.5592586,78.0098039 39.5342464,78.0098039 C26.5092339,78.0098039 15.6841361,66.1994685 15.3473425,51.2581767 C15.3473425,51.2581767 14.9673805,34.4022547 14.9673805,34.4022547 C14.6098915,18.5426818 25.6045795,5.34313725 39.5342464,5.34313725 Z" id="2-copy-5" fill="#FFFFFF" fill-rule="nonzero"></path>
                                <path d="M65.169237,33.5470224 C65.169237,33.5470224 64.7727585,51.1465827 64.7727585,51.1465827 C64.4213264,66.7470495 53.1255654,79.0784314 39.5342544,79.0784314 C25.9429352,79.0784314 14.6471823,66.7470495 14.2957422,51.1465827 C14.2957422,51.1465827 13.8992558,33.5470224 13.8992558,33.5470224 C13.5262255,16.987759 24.9989507,3.20588235 39.5342544,3.20588235 C54.069558,3.20588235 65.5422751,16.987759 65.169237,33.5470224 Z M39.4785603,5.02864475 C25.7964621,5.02864475 14.9971787,18.169023 15.3483076,33.9575058 C15.3483076,33.9575058 15.7215213,50.7378757 15.7215213,50.7378757 C16.0523281,65.6121908 26.6850397,77.3695918 39.4785603,77.3695918 C52.2720806,77.3695918 62.9047841,65.6121908 63.2355912,50.7378757 C63.2355912,50.7378757 63.6087968,33.9575058 63.6087968,33.9575058 C63.9599416,18.169023 53.1606583,5.02864475 39.4785603,5.02864475 Z" id="2-line" fill="#3B434F"></path>
                                <path d="M62.9532962,61.2730052 C62.6171802,62.8557069 58.2007898,77.2069057 58.9998454,70.9946515 C59.798893,64.7823971 51.3254864,76.6394784 51.3254864,76.6394784 C49.7597268,78.2412996 43.4185684,81.9707072 43.4185684,81.9707072 C43.4185684,81.9707072 43.4185684,80.4026994 43.4185684,80.4026994 C43.4185684,80.4026994 38.7674411,82.2843137 38.7674411,82.2843137 C38.7674411,82.2843137 36.6744363,80.4026994 36.6744363,80.4026994 C36.6744363,80.4026994 36.4418774,82.2843137 36.4418774,82.2843137 C35.8190714,81.3655591 23.1861721,72.8762659 23.1861721,72.8762659 C23.1861721,72.8762659 25.3547626,76.7188611 23.6512897,74.7578723 C23.5904704,74.6878591 23.5280581,74.6128537 23.4642644,74.5333011 C21.7410928,72.3845884 19.0001544,66.9178323 19.0001544,66.9178323 C19.0001544,66.9178323 18.535045,70.681053 18.535045,70.681053 C14.4249784,62.7263449 14.5815942,52.8057606 14.5815942,52.8057606 C14.5815942,52.8057606 13.890411,32.0879923 13.890411,32.0879923 C13.890411,32.0879923 15.750865,32.0879923 15.750865,32.0879923 C15.750865,32.0879923 16.4420403,46.847327 16.4420403,46.847327 C16.4420403,46.847327 19.4652719,51.8649494 19.4652719,51.8649494 C21.4201977,54.7103943 26.6745136,53.4329572 26.6745136,53.4329572 C41.8589932,63.9229348 51.558045,52.8057606 51.558045,52.8057606 C51.558045,52.8057606 58.1361101,54.2591084 60.1626232,53.4329572 C62.1891281,52.6068142 62.4816936,32.0588235 62.4816936,32.0588235 C62.4816936,32.0588235 64.109589,32.0588235 64.109589,32.0588235 C64.109589,32.0588235 63.2894122,59.6902955 62.9532962,61.2730052 Z M52.0482902,62.8641946 C51.7145226,58.8761763 49.2771452,59.2143393 49.2771452,59.2143393 C44.9440603,60.4722929 41.5426899,61.1711289 38.8853417,61.5262999 C38.8853417,61.5262999 38.8853417,61.50023 38.8853417,61.50023 C36.2466116,61.1479559 32.8690602,60.4548565 28.5663364,59.2072109 C28.5663364,59.2072109 26.1460249,58.8718151 25.8145978,62.8271529 C25.8145978,62.8271529 24.8427057,65.8850079 28.1077118,67.5783162 C28.1077118,67.5783162 32.2353157,69.840783 32.2353157,69.840783 C32.2353157,69.840783 35.0560246,70.7227874 34.9870544,67.3520704 C34.9870544,67.3520704 34.699958,66.8743906 36.3629196,66.4470867 C36.3629196,66.4470867 38.8853417,66.4470867 38.8853417,66.4470867 C38.8853417,66.4470867 38.8853417,66.5215258 38.8853417,66.5215258 C38.8853417,66.5215258 41.4255612,66.5215258 41.4255612,66.5215258 C43.1002495,66.9523655 42.8111378,67.4508234 42.8111378,67.4508234 C42.7416798,70.8493984 45.5822746,69.9600956 45.5822746,69.9600956 C45.5822746,69.9600956 49.7389959,67.6621085 49.7389959,67.6621085 C53.0270249,65.9548027 52.0482902,62.8641946 52.0482902,62.8641946 Z" id="Shape-1" fill="#3B434F"></path>
                                <path d="M52.2540949,62.0080028 C50.1814266,63.6366755 45.4998799,65.1862745 40.0527469,65.1862745 C34.6056057,65.1862745 29.924059,63.6366755 27.8513827,62.0080028 C27.8513827,62.0080028 27.6393225,61.4799429 27.9504556,61.1983754 C28.2673468,60.911597 28.763633,60.9740116 28.763633,60.9740116 C30.8341316,62.6037918 34.6035259,63.9479374 40.0527469,63.9479374 C45.5019597,63.9479374 49.271354,62.6037918 51.3418526,60.9740116 C51.3418526,60.9740116 51.8483177,60.8037514 52.0943481,61.0264028 C52.568213,61.4552384 52.2540949,62.0080028 52.2540949,62.0080028 Z" id="usta" fill="#3B434F" fill-rule="nonzero"></path>
                                <path d="M35.260274,67.3235294 C35.260274,67.3235294 42.739726,67.3235294 42.739726,67.3235294 C42.739726,67.3235294 42.739726,68.3921569 42.739726,68.3921569 C42.739726,68.3921569 35.260274,68.3921569 35.260274,68.3921569 C35.260274,68.3921569 35.260274,67.3235294 35.260274,67.3235294 Z" id="-" fill="#3B434F" fill-rule="nonzero"></path>
                                <path d="M14.2166281,36.8797836 C14.2134673,36.8799599 13.9355069,36.66258 13.4106235,36.5007438 C13.1482883,36.4200021 12.8222488,36.3535834 12.4506278,36.3372076 C12.3578187,36.3331176 12.262299,36.3321471 12.1645601,36.3348656 C12.0668209,36.3375844 11.9668545,36.3439841 11.865242,36.3546102 C11.6620417,36.3758702 11.4521752,36.4140757 11.24099,36.4735653 C10.3953903,36.7115398 9.5327732,37.2901319 9.02616014,38.484351 C8.7718504,39.0814927 8.60408496,39.8326111 8.55973191,40.7723915 C8.54863526,41.0073425 8.54524498,41.2540823 8.55010929,41.5131566 C8.55498192,41.7722306 8.56811773,42.0436389 8.59005663,42.3279268 C8.63391029,42.8964785 8.71310058,43.5165562 8.83109156,44.1922421 C8.82851195,44.1915764 8.72104416,46.2340959 9.46669378,48.5810885 C10.1676793,50.875737 11.8509681,53.6945086 14.9589041,54.5 C14.6014585,48.6715419 14.5903541,42.7338324 14.2166281,36.8797836 C14.2166281,36.8797836 14.2166281,36.8797836 14.2166281,36.8797836 Z" id="Shape-11-copy" fill="#FFFFFF" fill-rule="nonzero"></path>
                                <path d="M14.0622964,37.1489408 C14.0622964,37.1489408 8.75077383,35.5332606 8.93769836,40.893939 C8.93769836,40.893939 9.72848963,48.6670921 10.0718899,49.3834871 C10.0718899,49.3834871 12.157872,53.9092849 15.6004881,54.109858 C18.9651433,54.3058879 15.6004881,54.109858 15.6004881,54.109858 C15.6004881,54.109858 15.6422723,55.5686275 15.6422723,55.5686275 C15.6422723,55.5686275 9.59146364,54.8070087 8.42279052,47.9615654 C8.42279052,47.9615654 7.50037998,41.7428111 7.50037998,41.7428111 C7.50037998,41.7428111 6.78416735,33.5129011 13.7314689,35.6054181 C20.4995509,37.6439573 13.7314689,35.6054181 13.7314689,35.6054181 C13.7314689,35.6054181 14.0622964,37.1489408 14.0622964,37.1489408" id="Shape-3" fill="#3B434F" fill-rule="nonzero"></path>
                                <path d="M12.4295872,47.8626897 C12.4295872,47.8626897 12.1152331,48.0882353 11.8451862,48.0882353 C11.5751392,48.0882353 11.264617,47.8626897 11.264617,47.8626897 C11.264617,47.8626897 10.6849315,42.3167006 10.6849315,42.3167006 C10.6849315,42.3167006 11.4847496,39.5854482 14.878676,41.0288361 C14.878676,41.0288361 14.9589041,42.6146316 14.9589041,42.6146316 C14.9589041,42.6146316 11.9812504,41.6120423 12.0428213,42.8604956 C12.1020899,44.0621977 12.4295872,47.8626897 12.4295872,47.8626897 Z" id="Shape-4" fill="#3B434F" fill-rule="nonzero"></path>
                                <path d="M64.851865,36.8797781 C64.8550284,36.8799546 65.1329916,36.6625792 65.6578691,36.5007374 C65.92021,36.4199972 66.2462464,36.3535818 66.6178695,36.3372025 C66.7106733,36.3331178 66.8061925,36.3321467 66.9039374,36.3348673 C67.0016741,36.3375795 67.1016367,36.3439836 67.2032547,36.3546089 C67.4064495,36.3758674 67.6163223,36.4140747 67.8275078,36.4735647 C68.6731055,36.7115403 69.53572,37.2901322 70.0423334,38.4843523 C70.2966429,39.0814902 70.4644107,39.8326053 70.5087579,40.7723902 C70.5198551,41.0073404 70.5232469,41.2540795 70.5183872,41.5131531 C70.5135115,41.7722265 70.5003761,42.0436347 70.4784348,42.3279231 C70.4345851,42.8964758 70.3553893,43.5165575 70.2373994,44.1922369 C70.239984,44.1915708 70.3474478,46.2340976 69.6017963,48.581088 C68.9008183,50.8757384 67.2175235,53.694507 64.109589,54.5 C64.4670331,48.6715385 64.4781382,42.7338315 64.851865,36.8797781 C64.851865,36.8797781 64.851865,36.8797781 64.851865,36.8797781 Z" id="Shape-11-copy_1" fill="#FFFFFF" fill-rule="nonzero"></path>
                                <path d="M65.0061961,37.1489476 C65.0061961,37.1489476 70.3177236,35.533267 70.1307985,40.8939399 C70.1307985,40.8939399 69.3400077,48.6670929 68.9966008,49.3834851 C68.9966008,49.3834851 66.9106196,53.9092865 63.4680082,54.1098616 C60.1033459,54.3058907 63.4680082,54.1098616 63.4680082,54.1098616 C63.4680082,54.1098616 63.4262221,55.5686275 63.4262221,55.5686275 C63.4262221,55.5686275 69.4770281,54.8070123 70.6457009,47.9615682 C70.6457009,47.9615682 71.5681128,41.7428123 71.5681128,41.7428123 C71.5681128,41.7428123 72.2843303,33.5129006 65.3370206,35.6054183 C58.5689416,37.6439607 65.3370206,35.6054183 65.3370206,35.6054183 C65.3370206,35.6054183 65.0061961,37.1489476 65.0061961,37.1489476" id="Shape-3_1" fill="#3B434F" fill-rule="nonzero"></path>
                                <path d="M66.6389085,47.8626901 C66.6389085,47.8626901 66.953262,48.0882353 67.2233073,48.0882353 C67.4933526,48.0882353 67.8038744,47.8626901 67.8038744,47.8626901 C67.8038744,47.8626901 68.3835616,42.3167019 68.3835616,42.3167019 C68.3835616,42.3167019 67.5837456,39.5854504 64.1898143,41.0288341 C64.1898143,41.0288341 64.109589,42.6146335 64.109589,42.6146335 C64.109589,42.6146335 67.0872443,41.6120411 67.025671,42.8604953 C66.9664072,44.0621985 66.6389085,47.8626901 66.6389085,47.8626901 Z" id="Shape-4_1" fill="#3B434F" fill-rule="nonzero"></path>
                                <path d="M41.9753446,47.0196078 C42.0941151,47.0196078 42.2129294,47.0196078 42.3316999,47.0196078 C43.0684718,48.202895 43.3682203,50.0212881 43.7571355,51.5951348 C43.8776611,52.0828753 43.7607331,52.935993 43.6553187,53.2808554 C43.2692654,54.5438841 42.0570398,54.5212166 41.0589931,55.0869846 C40.7909529,55.23894 40.591572,55.501219 40.2444584,55.5686275 C40.0181614,55.3328915 39.7449287,55.2865919 39.6335502,54.906376 C39.3585695,54.4585879 39.7129731,54.1789551 39.9899127,54.0033072 C40.4925298,53.6845313 42.0441061,53.3703458 42.2298829,52.799221 C42.4597411,52.4899961 42.3069028,51.5602809 42.2298829,51.2339091 C42.0326288,50.3979643 41.9379488,49.7000751 41.669894,48.9461455 C41.4918367,48.4453659 41.17922,47.9173542 41.3644437,47.320625 C41.5179298,47.2426836 41.8496556,47.154063 41.9753446,47.0196078 Z" id="new_vector_shape_done" fill="#3B434F"></path>
                                <path d="M25.9999976,38.4705882 C25.9999976,38.4705882 27.4246599,38.4705882 27.4246599,38.4705882 C28.211476,38.4705882 28.8493151,39.1882487 28.8493151,40.0735295 C28.8493151,40.9588101 28.211476,41.6764706 27.4246599,41.6764706 C27.4246599,41.6764706 25.9999976,41.6764706 25.9999976,41.6764706 C25.2131816,41.6764706 24.5753425,40.9588101 24.5753425,40.0735295 C24.5753425,39.1882487 25.2131816,38.4705882 25.9999976,38.4705882 Z" id="Rounded-Rectangle-8" fill="#3B434F" fill-rule="nonzero"></path>
                                <path d="M51.6438333,38.4705882 C51.6438333,38.4705882 53.0684957,38.4705882 53.0684957,38.4705882 C53.8553115,38.4705882 54.4931507,39.1882487 54.4931507,40.0735295 C54.4931507,40.9588101 53.8553115,41.6764706 53.0684957,41.6764706 C53.0684957,41.6764706 51.6438333,41.6764706 51.6438333,41.6764706 C50.8570172,41.6764706 50.2191781,40.9588101 50.2191781,40.0735295 C50.2191781,39.1882487 50.8570172,38.4705882 51.6438333,38.4705882 Z" id="Rounded-Rectangle-8-copy" fill="#3B434F" fill-rule="nonzero"></path>
                                <path d="M52.8904108,45.9509804 C54.3656896,45.9509804 55.5616438,47.1470847 55.5616438,48.6225489 C55.5616438,50.0980131 54.3656896,51.2941176 52.8904108,51.2941176 C51.4151246,51.2941176 50.2191781,50.0980131 50.2191781,48.6225489 C50.2191781,47.1470847 51.4151246,45.9509804 52.8904108,45.9509804 Z" id="Ellipse-3" fill="#EDF1F1" fill-rule="nonzero"></path>
                                <path d="M26.1780821,45.9509804 C27.6533608,45.9509804 28.8493151,47.1470847 28.8493151,48.6225489 C28.8493151,50.0980131 27.6533608,51.2941176 26.1780821,51.2941176 C24.7027958,51.2941176 23.5068493,50.0980131 23.5068493,48.6225489 C23.5068493,47.1470847 24.7027958,45.9509804 26.1780821,45.9509804 Z" id="Ellipse-3-copy" fill="#EDF1F1" fill-rule="nonzero"></path>
                                <path d="M64.2663319,36.0553358 C64.1149976,37.3579149 63.982043,38.9518879 63.7025472,40.3769895 C62.8667719,44.6384666 59.2330695,48.5866983 53.0285088,49.0365611 C46.8239563,49.4864238 41.5433082,46.3387789 41.2338546,42.0060945 C41.181388,41.2714822 41.0410319,40.4471085 40.9333224,39.6456351 C40.0552667,39.1550845 39.1502697,39.1539637 38.2183395,39.6422966 C38.1095017,40.4619128 37.9638566,41.3079689 37.9101417,42.0601513 C37.5997198,46.4071966 32.3024206,49.5652753 26.0782959,49.1139208 C19.8541715,48.6625662 16.2090106,44.7012559 15.370595,40.425652 C15.0902189,38.995825 14.9568483,37.3965708 14.8050339,36.0896696 C14.8050339,36.0896696 13.890411,36.0233403 13.890411,36.0233403 C13.890411,36.0233403 14.0188846,34.224252 14.0188846,34.224252 C14.0188846,34.224252 14.2420494,34.2404352 14.2420494,34.2404352 C14.2420494,34.2404352 19.9024851,34.6509165 19.9024851,34.6509165 C19.9024851,34.6509165 24.6805126,34.9974071 24.6805126,34.9974071 C24.6805126,34.9974071 29.4674218,35.3445348 29.4674218,35.3445348 C29.4674218,35.3445348 36.9234166,35.8852232 36.9234166,35.8852232 C37.4376313,35.9507622 37.7795559,36.1729965 37.9997518,36.5047552 C39.070534,36.9770986 40.1104619,36.9789854 41.1195275,36.510335 C41.3377313,36.1572326 41.6842564,35.9195087 42.217475,35.8515587 C42.217475,35.8515587 49.6500332,35.3126603 49.6500332,35.3126603 C49.6500332,35.3126603 54.4218993,34.9666775 54.4218993,34.9666775 C54.4218993,34.9666775 59.1849077,34.621332 59.1849077,34.621332 C59.1849077,34.621332 64.8275481,34.2122054 64.8275481,34.2122054 C64.8275481,34.2122054 65.0500084,34.1960784 65.0500084,34.1960784 C65.0500084,34.1960784 65.1780822,35.9892245 65.1780822,35.9892245 C65.1780822,35.9892245 64.2663319,36.0553358 64.2663319,36.0553358 Z M34.9212962,37.9993793 C34.9212962,37.9993793 20.3086785,36.939717 20.3086785,36.939717 C18.3974642,36.7736764 17.7200247,38.9379542 17.6022332,40.5874837 C17.3538954,44.0651134 21.1990884,47.1777391 26.1907105,47.5397194 C31.1823327,47.9016917 35.430166,45.3759576 35.6785035,41.8983196 C35.7962953,40.2487984 36.3309542,39.2300736 34.9212962,37.9993793 Z M61.4779264,40.5382891 C61.3605027,38.8942104 60.6851917,36.7370766 58.7799867,36.902569 C58.7799867,36.902569 44.2133061,37.9587319 44.2133061,37.9587319 C42.8080811,39.1853705 43.3410598,40.2007167 43.4584753,41.844795 C43.7060368,45.3109425 47.9405153,47.8283392 52.9164464,47.4675524 C57.8923774,47.1067736 61.7254878,44.0044286 61.4779264,40.5382891 Z" id="glasses" fill="#3B444F"></path>
                                <path d="M14.6430016,43.8137255 C14.6430016,43.8137255 17.7917914,30.0524418 20.5318271,26.2882367 C23.2718629,22.5240319 25.6429677,21.6237019 26.8736419,21.5085588 C28.104316,21.3934239 37.7957514,24.2515804 51.1084197,20.9774763 C51.1084197,20.9774763 56.3575766,20.7684728 58.582699,26.0227038 C58.582699,26.0227038 63.274027,34.3959559 64.0185356,42.7515765 C64.0185356,42.7515765 64.9245058,42.7515765 64.9245058,42.7515765 C64.9245058,42.7515765 66.8443944,28.1044771 66.0569863,19.384253 C65.2695542,10.6640371 53.8263381,6.37290914 53.8263381,6.37290914 C53.8263381,6.37290914 56.3177618,4.51413648 56.3177618,4.51413648 C56.3177618,4.51413648 50.501045,2.72020467 48.1640071,3.71753713 C48.1640071,3.71753713 49.9759471,0 49.9759471,0 C49.9759471,0 38.2372282,0.0233417666 31.6299948,5.31075224 C31.6299948,5.31075224 31.8564893,2.65537202 31.8564893,2.65537202 C31.8564893,2.65537202 8.56749635,6.21835963 13.510537,43.2826511 C13.510537,43.2826511 14.6430016,43.8137255 14.6430016,43.8137255 Z" id="Shape-7" fill="#3B434F" fill-rule="nonzero"></path>
                            </g>
                        </g>
                        <g id="users-4" transform="translate(317.000000, 1.000000)">
                            <path d="M1.1265368,98 C1.1265368,98 -1.8550811,74.6391484 21.1284158,72.5277965 C21.1284158,72.5277965 26.6461778,72.5277965 26.6461778,72.5277965 C26.6461778,72.5277965 28.4521312,71.341947 29.7233872,71.341947 C29.7233872,71.341947 29.7233872,68 29.7233872,68 C29.7233872,68 36.6106379,71.4889146 43.7300099,68.1078044 C43.7300099,68.1078044 43.7300099,71.1263381 43.7300099,71.1263381 C43.7300099,71.1263381 44.0325934,70.548569 47.125551,72.635601 C47.125551,72.635601 55.4021904,72.635601 55.4021904,72.635601 C55.4021904,72.635601 73,74.8410092 73,98 C73,98 1.1265368,98 1.1265368,98 Z" id="body-bg" fill="#FFFFFF" fill-rule="nonzero"></path>
                            <path d="M72.680668,99 C72.680668,99 1.38274495,99 1.38274495,99 C1.38274495,99 0,99 0,99 C0,99 0.34515479,93.1475581 0.34515479,93.1475581 C1.01907581,81.7205994 10.0899472,73 20.4703085,73 C20.4703085,73 27.6081206,73 27.6081206,73 C27.1450644,73.3801306 26.8057216,73.7744177 26.5616745,74.167346 C26.5616745,74.167346 21.100478,74.167346 21.100478,74.167346 C11.0959458,74.167346 2.35348856,82.5614034 1.70396306,93.5604795 C1.70396306,93.5604795 1.46421386,97.6204095 1.46421386,97.6204095 C1.46421386,97.6204095 72.4922794,97.6204095 72.4922794,97.6204095 C72.4922794,97.6204095 72.3594501,93.5604795 72.3594501,93.5604795 C71.7099246,82.5614034 62.9674674,74.167346 52.9629274,74.167346 C52.9629274,74.167346 47.4970811,74.167346 47.4970811,74.167346 C47.2880597,73.7773096 46.9908394,73.3830529 46.5758783,73 C46.5758783,73 53.5296917,73 53.5296917,73 C63.9100528,73 72.9809244,81.7205994 73.6548452,93.1475581 C73.6548452,93.1475581 74,99 74,99 C74,99 72.680668,99 72.680668,99 Z M44.4609689,74.167346 C44.4609689,74.167346 44.0874803,74.167346 44.0874803,74.167346 C44.0874803,74.167346 44.0874803,73 44.0874803,73 C44.0874803,73 44.5024644,73 44.5024644,73 C44.4776557,73.3033909 44.4617107,73.6857912 44.4609689,74.167346 Z M29.4225748,73 C29.4225748,73 29.8671395,73 29.8671395,73 C29.8671395,73 29.8671395,74.167346 29.8671395,74.167346 C29.8671395,74.167346 29.4829137,74.167346 29.4829137,74.167346 C29.4771704,73.6716047 29.4542814,73.2911855 29.4225748,73 Z" id="Rounded-Rectangle-13-copy-4" fill="#3B434F"></path>
                            <path d="M40.4999975,89 C40.7761413,89 41,89.2238548 41,89.4999999 C41,89.77614 40.7761413,90 40.4999975,90 C40.2238588,90 40,89.77614 40,89.4999999 C40,89.2238548 40.2238588,89 40.4999975,89 Z" id="Ellipse-5" fill="#3B434F" fill-rule="nonzero"></path>
                            <path d="M40.4999975,94 C40.7761413,94 41,94.22386 41,94.5 C41,94.7761452 40.7761413,95 40.4999975,95 C40.2238588,95 40,94.7761452 40,94.5 C40,94.22386 40.2238588,94 40.4999975,94 Z" id="Ellipse-5-copy" fill="#3B434F" fill-rule="nonzero"></path>
                            <path d="M49.660838,79.2888136 C49.660838,79.2888136 44.1202257,87.5198597 44.1202257,87.5198597 C42.6129962,82.8626621 38.2536876,84.5956671 38.2536876,84.5956671 C38.2536876,84.5956671 38.2536876,98.3505608 38.2536876,98.3505608 C38.2536876,98.709237 37.9132073,99 37.4932114,99 C37.0732156,99 36.7327352,98.709237 36.7327352,98.3505608 C36.7327352,98.3505608 36.7327352,84.595342 36.7327352,84.595342 C36.697465,84.5813983 32.3728438,82.881664 30.8733926,87.5198597 C30.8733926,87.5198597 25.3387948,79.2888136 25.3387948,79.2888136 C25.3387948,79.2888136 23.1978959,73.8626413 29.6796561,71.4909798 C29.6796561,69.124563 29.6796561,69 29.6796561,69 C29.6796561,69 30.9053138,69 30.9053138,69 C30.9053138,69 30.9053138,73.5243227 30.9053138,76.8393933 C31.0626665,78.1888561 31.9946844,82.0339467 37.4932114,83.2960295 C42.9977139,82.0339467 43.9307498,78.1888561 44.0882734,76.8393933 C44.0882734,73.5243227 44.0882734,69 44.0882734,69 C44.0882734,69 45.3152597,69 45.3152597,69 C45.3152597,69 45.3152597,69.124563 45.3152597,71.4909798 C51.80406,73.8626413 49.660838,79.2888136 49.660838,79.2888136 Z M30.8091461,80.0174523 C30.5137192,79.683929 30.0882061,78.8555932 30.0882061,78.8555932 C30.0882061,78.8555932 29.6796561,77.5001191 29.6796561,76.9061366 C29.6796561,76.1684035 29.6796561,75.2000195 29.6796561,74.1590592 C29.5872572,72.9200995 29.3540955,72.8989207 29.3540955,72.8989207 C24.5178253,75.2736107 26.641054,78.9638963 26.641054,78.9638963 C26.641054,78.9638963 30.6563544,85.2454861 30.6563544,85.2454861 C32.2243573,82.5968426 33.9120026,83.0794234 33.9120026,83.0794234 C32.4219536,82.3223393 31.4447267,81.1473498 30.8091461,80.0174523 Z M45.6411781,72.8989207 C45.6411781,72.8989207 45.4077598,72.9200995 45.3152597,74.1590592 C45.3152597,75.2000195 45.3152597,76.1684035 45.3152597,76.9061366 C45.3152597,77.5001191 44.9062669,78.8555932 44.9062669,78.8555932 C44.9062669,78.8555932 44.4802877,79.683929 44.1845422,80.0174523 C43.54827,81.1473498 42.5699785,82.3223393 41.0783135,83.0794234 C41.0783135,83.0794234 42.7677923,82.5968426 44.3375047,85.2454861 C44.3375047,85.2454861 48.3571643,78.9638963 48.3571643,78.9638963 C48.3571643,78.9638963 50.4827009,75.2736107 45.6411781,72.8989207 Z" id="Shape-2-copy-9" fill="#3B434F"></path>
                            <path d="M37.4999998,2 C50.8201467,2 61.333748,14.3518674 60.9918942,29.1929356 C60.9918942,29.1929356 60.6285581,44.9663672 60.6285581,44.9663672 C60.3065014,58.9481265 49.955077,70 37.4999998,70 C25.0449224,70 14.693498,58.9481265 14.3714415,44.9663672 C14.3714415,44.9663672 14.0081055,29.1929356 14.0081055,29.1929356 C13.6662591,14.3518674 24.179853,2 37.4999998,2 Z" id="2-copy-5" fill="#FFFFFF" fill-rule="nonzero"></path>
                            <path d="M61.9915494,28.3926265 C61.9915494,28.3926265 61.6127556,44.8619398 61.6127556,44.8619398 C61.2769991,59.4605418 50.4850821,71 37.5000074,71 C24.514925,71 13.7230158,59.4605418 13.3872515,44.8619398 C13.3872515,44.8619398 13.0084503,28.3926265 13.0084503,28.3926265 C12.6520589,12.896802 23.6130467,0 37.5000074,0 C51.3869682,0 62.3479482,12.896802 61.9915494,28.3926265 Z M37.4467976,1.70570427 C24.3749853,1.70570427 14.0574007,14.002205 14.3928676,28.7767486 C14.3928676,28.7767486 14.7494342,44.47948 14.7494342,44.47948 C15.0654855,58.3985638 25.2239282,69.4009024 37.4467976,69.4009024 C49.6696668,69.4009024 59.8281017,58.3985638 60.1441532,44.47948 C60.1441532,44.47948 60.5007121,28.7767486 60.5007121,28.7767486 C60.8361942,14.002205 50.5186097,1.70570427 37.4467976,1.70570427 Z" id="2-line" fill="#3B434F"></path>
                            <path d="M61,31 C61,31 59.9427324,48.4468146 59.9427324,48.4468146 C59.9427324,48.4468146 55.2469165,68.5858445 37.1057268,70.9704234 C37.1057268,70.9704234 37.1057268,71 37.1057268,71 C37.0700713,70.9956169 37.0355499,70.9897351 37.0000001,70.9852154 C36.9644504,70.9897351 36.929929,70.9956169 36.8942732,71 C36.8942732,71 36.8942732,70.9704234 36.8942732,70.9704234 C18.7530912,68.5858445 14.0572678,48.4468146 14.0572678,48.4468146 C14.0572678,48.4468146 13,31 13,31 C17.7075977,52.0256044 21.6696029,53.3404347 21.6696029,53.3404347 C20.8678385,46.9646526 27.3788563,47.5957516 27.3788563,47.5957516 C31.3471152,48.2702228 34.5061231,48.5961509 37.0000001,48.7180032 C39.4938845,48.5961509 42.6528848,48.2702228 46.6211439,47.5957516 C46.6211439,47.5957516 53.1321541,46.9646526 52.3303971,53.3404347 C52.3303971,53.3404347 56.2924023,52.0256044 61,31 Z M49.2436079,55.5029268 C48.9358349,51.7525214 46.6882658,52.0705361 46.6882658,52.0705361 C42.6926241,53.2535387 39.5561288,53.9107369 37.1057268,54.2447462 C37.1057268,54.2447462 37.1057268,54.2202296 37.1057268,54.2202296 C34.6724834,53.8889445 31.5579563,53.2371412 27.5903097,52.0638325 C27.5903097,52.0638325 25.3584775,51.7484201 25.0528596,55.4680922 C25.0528596,55.4680922 24.1566588,59.194818 27.1674027,60.7872361 C27.1674027,60.7872361 30.9735664,64.8297931 30.9735664,64.8297931 C30.9735664,64.8297931 33.5746145,65.6592463 33.5110165,62.4893621 C33.5110165,62.4893621 33.24628,60.1252516 34.7797378,59.7234074 C34.7797378,59.7234074 37.1057268,59.7234074 37.1057268,59.7234074 C37.1057268,59.7234074 37.1057268,59.793411 37.1057268,59.793411 C37.1057268,59.793411 39.4481258,59.793411 39.4481258,59.793411 C40.9923974,60.1985806 40.7258007,62.5822312 40.7258007,62.5822312 C40.661749,65.7783135 43.2811354,64.9419969 43.2811354,64.9419969 C43.2811354,64.9419969 47.1141524,60.8660359 47.1141524,60.8660359 C50.146131,59.2604542 49.2436079,55.5029268 49.2436079,55.5029268 Z" id="1-copy-4" fill="#3B434F" opacity="0.058824"></path>
                            <path d="M48.9044734,54.0258375 C46.9646685,55.5499165 42.5832209,57 37.4852631,57 C32.3872976,57 28.0058501,55.5499165 26.0660376,54.0258375 C26.0660376,54.0258375 25.8675711,53.5316897 26.1587597,53.2682045 C26.4553374,52.9998431 26.9198103,53.0582494 26.9198103,53.0582494 C28.8575847,54.5833648 32.3853511,55.8411891 37.4852631,55.8411891 C42.5851674,55.8411891 46.1129338,54.5833648 48.0507082,53.0582494 C48.0507082,53.0582494 48.5247076,52.8989233 48.7549668,53.107276 C49.1984557,53.5085717 48.9044734,54.0258375 48.9044734,54.0258375 Z" id="usta" fill="#3B434F" fill-rule="nonzero"></path>
                            <path d="M34,60 C34,60 41,60 41,60 C41,60 41,61 41,61 C41,61 34,61 34,61 C34,61 34,60 34,60 Z" id="-" fill="#3B434F" fill-rule="nonzero"></path>
                            <path d="M12.3053058,30.5113571 C12.3023476,30.5115221 12.0422051,30.3081023 11.5509681,30.1566593 C11.3054493,30.0811029 11.0003098,30.0189496 10.6525106,30.0036255 C10.5656508,29.9997981 10.4762542,29.9988899 10.3847806,30.0014339 C10.2933068,30.0039781 10.1997484,30.0099668 10.1046496,30.0199104 C9.91447496,30.0398051 9.71806141,30.0755571 9.52041375,30.1312262 C8.72901916,30.353918 7.921698,30.8953527 7.44756013,32.0128789 C7.2095523,32.571672 7.05254106,33.2745535 7.01103115,34.153981 C7.00064582,34.3738434 6.99747286,34.6047376 7.00202536,34.8471741 C7.00658564,35.0896103 7.01887941,35.3435887 7.03941198,35.6096196 C7.08045451,36.1416588 7.15456849,36.721915 7.26499595,37.3542082 C7.2625817,37.3535853 7.16200287,39.2649337 7.85985443,41.461202 C8.51590501,43.6084878 10.0912907,46.2462374 13,47 C12.6654676,41.5458466 12.6550749,35.9894578 12.3053058,30.5113571 C12.3053058,30.5113571 12.3053058,30.5113571 12.3053058,30.5113571 Z" id="Shape-11-copy" fill="#FFFFFF" fill-rule="nonzero"></path>
                            <path d="M13.1608672,30.8560305 C13.1608672,30.8560305 8.18982679,29.2645348 8.36476898,34.5449713 C8.36476898,34.5449713 9.1048685,42.2017711 9.42625593,42.9074426 C9.42625593,42.9074426 11.3785212,47.3654955 14.6004568,47.5630663 C17.749429,47.7561619 14.6004568,47.5630663 14.6004568,47.5630663 C14.6004568,47.5630663 14.6395626,49 14.6395626,49 C14.6395626,49 8.97662623,48.2497816 7.88286805,41.5068051 C7.88286805,41.5068051 7.01958639,35.3811369 7.01958639,35.3811369 C7.01958639,35.3811369 6.34928482,27.2744173 12.8512466,29.3356123 C19.1854772,31.3436373 12.8512466,29.3356123 12.8512466,29.3356123 C12.8512466,29.3356123 13.1608672,30.8560305 13.1608672,30.8560305" id="Shape-3" fill="#3B434F" fill-rule="nonzero"></path>
                            <path d="M10.6328188,41.788939 C10.6328188,41.788939 10.3386156,42 10.0858794,42 C9.83314312,42 9.54252618,41.788939 9.54252618,41.788939 C9.54252618,41.788939 9,36.5991143 9,36.5991143 C9,36.5991143 9.7485477,34.0432635 12.9249147,35.3939568 C12.9249147,35.3939568 13,36.8779121 13,36.8779121 C13,36.8779121 10.2132216,35.9397093 10.2708456,37.1079867 C10.3263149,38.2325153 10.6328188,41.788939 10.6328188,41.788939 Z" id="Shape-4" fill="#3B434F" fill-rule="nonzero"></path>
                            <path d="M61.6946942,30.511352 C61.6976548,30.5115171 61.9577998,30.3081016 62.4490314,30.1566534 C62.6945555,30.0810983 62.9996922,30.0189481 63.3474932,30.0036206 C63.4343481,29.9997983 63.5237442,29.9988896 63.6152235,30.0014355 C63.706695,30.0039735 63.8002497,30.0099663 63.8953537,30.0199093 C64.0855232,30.0398025 64.2819427,30.0755561 64.4795906,30.1312256 C65.2709834,30.3539184 66.078302,30.8953531 66.5524402,32.0128801 C66.7904479,32.5716697 66.9474613,33.2745481 66.9889658,34.1539798 C66.9993516,34.3738414 67.0025259,34.604735 66.9979778,34.8471708 C66.9934146,35.0896064 66.9811212,35.3435848 66.9605864,35.6096161 C66.9195476,36.1416563 66.8454285,36.7219162 66.735002,37.3542033 C66.7374209,37.35358 66.837996,39.2649354 66.1401427,41.4612016 C65.4840991,43.6084892 63.9087079,46.2462359 61,47 C61.3345309,41.5458433 61.3449242,35.989457 61.6946942,30.511352 C61.6946942,30.511352 61.6946942,30.511352 61.6946942,30.511352 Z" id="Shape-11-copy_1" fill="#F7FBFB" fill-rule="nonzero"></path>
                            <path d="M60.8391322,30.8560372 C60.8391322,30.8560372 65.8101772,29.2645412 65.6352345,34.5449722 C65.6352345,34.5449722 64.8951355,42.2017718 64.5737418,42.9074406 C64.5737418,42.9074406 62.6214773,47.3654971 59.3995461,47.5630698 C56.2505674,47.7561646 59.3995461,47.5630698 59.3995461,47.5630698 C59.3995461,47.5630698 59.3604386,49 59.3604386,49 C59.3604386,49 65.0233725,48.2497852 66.1171303,41.5068079 C66.1171303,41.5068079 66.9804133,35.3811382 66.9804133,35.3811382 C66.9804133,35.3811382 67.6507194,27.2744168 61.14875,29.3356124 C54.8145222,31.3436406 61.14875,29.3356124 61.14875,29.3356124 C61.14875,29.3356124 60.8391322,30.8560372 60.8391322,30.8560372" id="Shape-3_1" fill="#3B434F" fill-rule="nonzero"></path>
                            <path d="M62.3671836,41.7889394 C62.3671836,41.7889394 62.6613862,42 62.9141209,42 C63.1668557,42 63.4574722,41.7889394 63.4574722,41.7889394 C63.4574722,41.7889394 64,36.5991155 64,36.5991155 C64,36.5991155 63.2514542,34.0432655 60.0750827,35.3939549 C60.0750827,35.3939549 60,36.8779139 60,36.8779139 C60,36.8779139 62.7867799,35.9397082 62.7291536,37.1079864 C62.6736888,38.2325161 62.3671836,41.7889394 62.3671836,41.7889394 Z" id="Shape-4_1" fill="#3B434F" fill-rule="nonzero"></path>
                            <path d="M61.6946927,30.5113562 C61.6976557,30.511528 61.9577912,30.3081043 62.4490318,30.1566646 C62.6945526,30.0811054 62.9996889,30.0189549 63.347491,30.0036262 C63.4343458,29.9997942 63.5237421,29.9988902 63.6152211,30.0014376 C63.7066923,30.0039774 63.800246,30.0099684 63.895346,30.019911 C64.0855231,30.0398112 64.2819322,30.0755551 64.4795891,30.1312293 C65.2709821,30.3539179 66.0783067,30.8953526 66.5524366,32.0128827 C66.7904546,32.5716775 66.9474594,33.274554 66.9889689,34.1539847 C66.999358,34.3738423 67.0025274,34.6047332 66.9979722,34.8471727 C66.993417,35.0896122 66.9811219,35.343593 66.9605891,35.6096154 C66.9195465,36.1416601 66.8454386,36.721909 66.7350115,37.3542014 C66.7374156,37.3535814 66.8379972,39.2649354 66.1401501,41.4611961 C65.4840957,43.6084835 63.908713,46.24623 61,47 C61.3345268,41.545839 61.3449234,35.9894584 61.6946927,30.5113562 C61.6946927,30.5113562 61.6946927,30.5113562 61.6946927,30.5113562 Z" id="Shape-11" fill="#FFFFFF" fill-rule="nonzero"></path>
                            <path d="M60.8391328,30.8560277 C60.8391328,30.8560277 65.8101643,29.2645391 65.6352294,34.5449787 C65.6352294,34.5449787 64.8951237,42.2017632 64.5737454,42.9074476 C64.5737454,42.9074476 62.6214833,47.3654893 59.3995411,47.5630618 C56.2505736,47.7561722 59.3995411,47.5630618 59.3995411,47.5630618 C59.3995411,47.5630618 59.3604413,49 59.3604413,49 C59.3604413,49 65.0233755,48.2497851 66.117132,41.5067995 C66.117132,41.5067995 66.9804139,35.3811368 66.9804139,35.3811368 C66.9804139,35.3811368 67.6507116,27.2744223 61.1487505,29.3356104 C54.8145303,31.3436312 61.1487505,29.3356104 61.1487505,29.3356104 C61.1487505,29.3356104 60.8391328,30.8560277 60.8391328,30.8560277" id="Shape-3_2" fill="#3B434F" fill-rule="nonzero"></path>
                            <path d="M63.3671881,42 C63.3671881,42 64.4574791,42 64.4574791,42 C64.4574791,42 65,36.6488256 65,36.6488256 C65,36.6488256 64.2514608,34.0135183 61.0750825,35.4062062 C61.0750825,35.4062062 61,36.936299 61,36.936299 C61,36.936299 63.7867852,35.9689261 63.7291591,37.1735318 C63.6736942,38.3330135 63.3671881,42 63.3671881,42 Z" id="Shape-4_2" fill="#3B434F" fill-rule="nonzero"></path>
                            <path d="M39.2846174,41 C39.3957743,41 39.5069724,41 39.6181294,41 C40.3076724,42.1072963 40.5882061,43.8089118 40.9521909,45.2816857 C41.0649905,45.7381035 40.9555579,46.5364339 40.8569009,46.8591491 C40.4955946,48.0410659 39.3610757,48.0198541 38.4270064,48.5492883 C38.1761482,48.6914851 37.9895482,48.9369205 37.6646855,49 C37.4528946,48.7794031 37.1971769,48.7360769 37.092938,48.3802784 C36.8355843,47.9612474 37.1672697,47.6995727 37.4264567,47.5352049 C37.8968548,47.2369008 39.3489711,46.9428924 39.5228391,46.4084453 C39.7379628,46.1190789 39.5949219,45.2490702 39.5228391,44.9436581 C39.3382295,44.1613978 39.2496187,43.5083271 38.998747,42.8028151 C38.8321036,42.3341956 38.5395264,41.8400929 38.7128768,41.2816857 C38.8565241,41.2087498 39.1669854,41.1258204 39.2846174,41 Z" id="new_vector_shape_done" fill="#3B434F"></path>
                            <path d="M24.3333311,33 C24.3333311,33 25.6666689,33 25.6666689,33 C26.403048,33 27,33.6715722 27,34.5000001 C27,35.3284278 26.403048,36 25.6666689,36 C25.6666689,36 24.3333311,36 24.3333311,36 C23.596952,36 23,35.3284278 23,34.5000001 C23,33.6715722 23.596952,33 24.3333311,33 Z" id="Rounded-Rectangle-8" fill="#3B434F" fill-rule="nonzero"></path>
                            <path d="M48.3333312,33 C48.3333312,33 49.666669,33 49.666669,33 C50.403048,33 51,33.6715722 51,34.5000001 C51,35.3284278 50.403048,36 49.666669,36 C49.666669,36 48.3333312,36 48.3333312,36 C47.596952,36 47,35.3284278 47,34.5000001 C47,33.6715722 47.596952,33 48.3333312,33 Z" id="Rounded-Rectangle-8-copy" fill="#3B434F" fill-rule="nonzero"></path>
                            <path d="M18.4691413,29 C18.4691413,29 32.5308587,29 32.5308587,29 C33.3422395,29 34,29.6597894 34,30.4736824 C34,30.4736824 34,39.5263102 34,39.5263102 C34,40.340203 33.3422395,41 32.5308587,41 C32.5308587,41 18.4691413,41 18.4691413,41 C17.6577605,41 17,40.340203 17,39.5263102 C17,39.5263102 17,30.4736824 17,30.4736824 C17,29.6597894 17.6577605,29 18.4691413,29 Z" id="Rounded-Rectangle-10" fill="#3B434F" fill-rule="nonzero" opacity="0.14902"></path>
                            <path d="M41.4691413,29 C41.4691413,29 55.5308587,29 55.5308587,29 C56.3422397,29 57,29.6597894 57,30.4736824 C57,30.4736824 57,39.5263102 57,39.5263102 C57,40.340203 56.3422397,41 55.5308587,41 C55.5308587,41 41.4691413,41 41.4691413,41 C40.6577603,41 40,40.340203 40,39.5263102 C40,39.5263102 40,30.4736824 40,30.4736824 C40,29.6597894 40.6577603,29 41.4691413,29 Z" id="Rounded-Rectangle-10-copy" fill="#3B434F" fill-rule="nonzero" opacity="0.14902"></path>
                            <path d="M58.6206929,30.1126739 C58.6206929,30.1126739 58.6206929,37.9295749 58.6206929,37.9295749 C58.6206929,39.8398291 56.7578408,42.820617 53.7223848,42.9913189 C53.2764727,42.9700501 44.2586219,43 44.2586219,43 C40.2048538,43 39.4008604,38.1408425 39.4008604,38.1408425 C39.4008604,38.1408425 39.4008604,32.8591575 39.4008604,32.8591575 C39.4008604,32.8591575 35.5991396,32.8591575 35.5991396,32.8591575 C35.5991396,32.8591575 35.5991396,38.1408425 35.5991396,38.1408425 C35.5991396,38.1408425 34.7951462,43 30.7413781,43 C30.7413781,43 21.7235273,42.9700501 21.2776152,42.9913189 C18.2421592,42.820617 16.3793071,39.8398291 16.3793071,37.9295749 C16.3793071,37.9295749 16.3793071,30.1126739 16.3793071,30.1126739 C16.3793071,30.1126739 13,30.1126739 13,30.1126739 C13,30.1126739 13,28 13,28 C13,28 32.6422384,28 32.6422384,28 C32.6422384,28 35.5991396,28.4778259 35.5991396,30.5352087 C35.5991396,30.5352087 39.4008604,30.5352087 39.4008604,30.5352087 C39.4008604,28.4778259 42.3577616,28 42.3577616,28 C42.3577616,28 62,28 62,28 C62,28 62,30.1126739 62,30.1126739 C62,30.1126739 58.6206929,30.1126739 58.6206929,30.1126739 Z M33.4870652,31.1690107 C33.4870652,30.4159599 32.6422384,30.3239412 32.6422384,30.3239412 C32.6422384,30.3239412 18.4913818,30.3239412 18.4913818,30.3239412 C18.4913818,30.3239412 18.4913818,37.7183077 18.4913818,37.7183077 C18.4913818,40.022242 21.6594823,40.8873261 21.6594823,40.8873261 C21.6594823,40.8873261 30.3189647,40.8873261 30.3189647,40.8873261 C33.2983448,40.8873261 33.4870652,37.7183077 33.4870652,37.7183077 C33.4870652,37.7183077 33.4870652,31.9220692 33.4870652,31.1690107 Z M56.5086182,30.3239412 C56.5086182,30.3239412 42.3577616,30.3239412 42.3577616,30.3239412 C42.3577616,30.3239412 41.5129348,30.4159599 41.5129348,31.1690107 C41.5129348,31.9220692 41.5129348,37.7183077 41.5129348,37.7183077 C41.5129348,37.7183077 41.7016552,40.8873261 44.6810353,40.8873261 C44.6810353,40.8873261 53.3405177,40.8873261 53.3405177,40.8873261 C53.3405177,40.8873261 56.5086182,40.022242 56.5086182,37.7183077 C56.5086182,37.7183077 56.5086182,30.3239412 56.5086182,30.3239412 Z M53.5517245,43 C53.6093035,42.9987987 53.6656138,42.9945149 53.7223848,42.9913189 C53.7701219,42.9936006 53.7221657,42.996449 53.5517245,43 Z M21.2776152,42.9913189 C21.3343862,42.9945149 21.3906965,42.9987987 21.4482755,43 C21.2778343,42.996449 21.2298781,42.9936006 21.2776152,42.9913189 Z" id="Shape-1-copy-5" fill="#3B434F"></path>
                        </g>
                        <path d="M73.7121295,37 C90.9773513,17.3802083 124.545137,5.38020833 174.415487,1 C224.285836,-3.38020833 269.713455,7.78645833 310.698343,34.5" id="Line-4" stroke="#BCBDD2" stroke-width="2" stroke-linecap="square" stroke-dasharray="2,8"></path>
                    </g>
                </g>
            </g>
        </g>
    </g>
</svg>