<?xml version="1.0" encoding="UTF-8"?>
<svg width="74px" height="74px" viewBox="0 0 74 74" version="1.1" xmlns="http://www.w3.org/2000/svg" xmlns:xlink="http://www.w3.org/1999/xlink">
    <!-- Generator: Sketch 53.2 (72643) - https://sketchapp.com -->
    <title>ux</title>
    <desc>Created with Sketch.</desc>
    <defs>
        <linearGradient x1="19.3080357%" y1="12.8720238%" x2="80.8673469%" y2="91.4275085%" id="linearGradient-1">
            <stop stop-color="#03ACFA" offset="0%"></stop>
            <stop stop-color="#2543E0" offset="100%"></stop>
        </linearGradient>
        <linearGradient x1="100%" y1="95.9311288%" x2="39.5764803%" y2="4.06887121%" id="linearGradient-2">
            <stop stop-color="#DDF2FF" offset="0%"></stop>
            <stop stop-color="#F2FCFF" offset="100%"></stop>
        </linearGradient>
    </defs>
    <g id="Page-1" stroke="none" stroke-width="1" fill="none" fill-rule="evenodd">
        <g id="class" transform="translate(-819.000000, -1938.000000)" fill-rule="nonzero">
            <g id="path" transform="translate(100.000000, 1354.000000)">
                <g id="ux" transform="translate(623.000000, 537.000000)">
                    <g transform="translate(91.000000, 42.000000)">
                        <rect id="Rectangle" fill="#000000" opacity="0" x="0" y="0" width="84" height="84"></rect>
                        <path d="M41.75,78.5 C21.4535354,78.5 5,62.0464646 5,41.75 C5,21.4535354 21.4535354,5 41.75,5 C62.0464646,5 78.5,21.4535354 78.5,41.75 C78.5,62.0464646 62.0464646,78.5 41.75,78.5 Z" id="Path" fill="url(#linearGradient-1)"></path>
                        <g id="php" transform="translate(21.000000, 22.000000)" fill="url(#linearGradient-2)">
                            <path d="M16.9798395,39.7401408 L0.33429733,18.1234417 C0.0756575455,17.7875733 0.138255425,17.305594 0.47417293,17.0469052 C0.608416198,16.9435456 0.773079526,16.8874955 0.942503411,16.8874892 L11.1003012,16.8874892 C11.4392627,16.8874892 11.7380633,17.1097976 11.8355196,17.434423 L18.3232149,39.0511221 C18.4450722,39.4571492 18.2147119,39.8851224 17.8086357,40.0069797 C17.5037657,40.0985433 17.1740194,39.9923784 16.9798395,39.7401408 L16.9798395,39.7401408 Z M19.5162081,1.16166971 L12.1699152,13.4435247 C12.0313159,13.6752524 11.7811537,13.8171129 11.5111398,13.8170991 L0.7676221,13.8170991 C0.343674765,13.8170991 4.79782013e-08,13.4734244 0,13.0494771 C0,12.9056246 0.0404063296,12.764718 0.116603918,12.6427134 L7.11436162,1.44313935 C7.67544848,0.545395321 8.65942968,1.52004202e-05 9.71809053,4.52736337e-09 L18.8574328,4.52736337e-09 C19.2813801,4.52736337e-09 19.6250548,0.343674722 19.6250548,0.767622104 C19.6250548,0.90636849 19.587447,1.04256191 19.5162081,1.16166971 Z M21.2578044,41.5947569 L15.1614074,17.845998 C15.0559974,17.4353558 15.3034432,17.0170546 15.7140364,16.9116446 C15.7763864,16.8956388 15.8405023,16.8875397 15.904874,16.8875383 L28.1202034,16.8875383 C28.5441507,16.8875383 28.8878254,17.231213 28.8878254,17.6551604 C28.8878254,17.7197712 28.8796754,17.7841366 28.8635227,17.8466854 L22.7446395,41.5954443 C22.6388859,42.0059883 22.2202901,42.2530414 21.8097952,42.1472386 C21.5388588,42.0774422 21.3273599,41.8657552 21.2578044,41.5947569 Z M32.9263473,16.8875383 L43.0574366,16.8875383 C43.4813839,16.8875383 43.8250586,17.231213 43.8250587,17.6551604 C43.8250587,17.824592 43.7689906,17.9892613 43.6656427,18.1234909 L27.0316873,39.7257555 C26.7730475,40.061673 26.2910682,40.1242709 25.9551507,39.8656311 C25.7027315,39.6712724 25.5966066,39.341195 25.6884591,39.0361476 L32.1913252,17.4338829 C32.2889632,17.1095497 32.5876361,16.887545 32.9263473,16.8875383 L32.9263473,16.8875383 Z M16.1129936,12.6932336 L21.3230535,2.7480723 C21.5197828,2.37253401 21.9836945,2.22760146 22.3592328,2.4243307 C22.4972629,2.49665211 22.6100225,2.60925757 22.6825326,2.74718859 L27.9087943,12.692399 C28.1060145,13.0676918 27.9616711,13.5317509 27.5863783,13.7289711 C27.4762545,13.7868545 27.3537098,13.8170989 27.2293002,13.8170991 L16.7929295,13.8170991 C16.3689822,13.8170991 16.0253075,13.4734244 16.0253075,13.0494771 C16.0253338,12.9253899 16.0554206,12.8031561 16.1129936,12.6932336 L16.1129936,12.6932336 Z M25.1460913,3.11256043e-09 L34.2818004,3.11256043e-09 C35.3404685,-1.29329316e-05 36.3244625,0.545374243 36.8855293,1.44313935 L43.883287,12.6427134 C44.107903,13.0022463 43.9985653,13.4758301 43.6390325,13.7004461 C43.5170596,13.7766897 43.3761108,13.8171115 43.2322689,13.8170991 L32.515165,13.8170991 C32.2455222,13.8171091 31.995649,13.6756317 31.8569297,13.4444084 L24.487856,1.16255347 C24.2697207,0.799043795 24.3876012,0.327522043 24.7511599,0.109386752 C24.8704538,0.0377980464 25.0069656,-1.25255798e-05 25.1460913,3.11256043e-09 Z" id="Shape"></path>
                        </g>
                    </g>
                </g>
            </g>
        </g>
    </g>
</svg>