<?xml version="1.0" encoding="UTF-8"?>
<svg width="74px" height="74px" viewBox="0 0 74 74" version="1.1" xmlns="http://www.w3.org/2000/svg" xmlns:xlink="http://www.w3.org/1999/xlink">
    <!-- Generator: Sketch 53.2 (72643) - https://sketchapp.com -->
    <title>ic_WeChat1</title>
    <desc>Created with Sketch.</desc>
    <defs>
        <linearGradient x1="19.3080357%" y1="12.8720238%" x2="80.8673469%" y2="91.4275085%" id="linearGradient-1">
            <stop stop-color="#03ACFA" offset="0%"></stop>
            <stop stop-color="#2543E0" offset="100%"></stop>
        </linearGradient>
        <linearGradient x1="39.5764803%" y1="100%" x2="39.5764803%" y2="0%" id="linearGradient-2">
            <stop stop-color="#DDF2FF" offset="0%"></stop>
            <stop stop-color="#F2FCFF" offset="100%"></stop>
        </linearGradient>
        <path d="M34.2385,52.0275 C34.78975,52.0275 35.341,51.94875 35.971,51.94875 C35.6220061,50.7148514 35.4366696,49.4404419 35.41975,48.15825 C35.41975,40.1835 42.208,33.71025 50.89675,33.71025 C51.448,33.71025 52.078,33.71025 52.62925,33.789 C51.05425,26.4495 43.15825,21 34.2385,21 C24.211,21 16,27.78825 16,36.47175 C16,41.5275 18.68275,45.633 23.26075,48.78825 L21.4495,54.23775 L27.844,51.07725 C30.133,51.54975 31.9495,52.02225 34.2385,52.02225 L34.2385,52.0275 Z M60.919,58.422 C64.63075,55.6605 67.3135,52.0275 67.3135,48.00075 C67.3135,40.73475 60.05275,34.818 51.84175,34.818 C43.15825,34.818 36.37,40.73475 36.37,47.9955 C36.37,55.2615 43.15825,61.1835 51.84175,61.1835 C53.65825,61.1835 55.47475,60.711 57.29125,60.2385 L62.263,63 L60.919,58.422 Z M25.3135,31.26375 C25.3135,29.6936735 26.5862985,28.420875 28.156375,28.420875 C29.7264515,28.420875 30.99925,29.6936735 30.99925,31.26375 C30.99925,32.8338265 29.7264515,34.106625 28.156375,34.106625 C26.5862985,34.106625 25.3135,32.8338265 25.3135,31.26375 Z M38.02375,31.185 C38.02375,29.6149235 39.2965485,28.342125 40.866625,28.342125 C42.4367015,28.342125 43.7095,29.6149235 43.7095,31.185 C43.7095,32.7550765 42.4367015,34.027875 40.866625,34.027875 C39.2965485,34.027875 38.02375,32.7550765 38.02375,31.185 Z M45.1375,43.89 C45.1375,42.7997899 46.0212899,41.916 47.1115,41.916 C48.2017101,41.916 49.0855,42.7997899 49.0855,43.89 C49.0855,44.9802101 48.2017101,45.864 47.1115,45.864 C46.0212899,45.864 45.1375,44.9802101 45.1375,43.89 Z M55.165,44.05275 C55.165,42.9625399 56.0487899,42.07875 57.139,42.07875 C58.2292101,42.07875 59.113,42.9625399 59.113,44.05275 C59.113,45.1429601 58.2292101,46.02675 57.139,46.02675 C56.0487899,46.02675 55.165,45.1429601 55.165,44.05275 Z" id="path-3"></path>
        <filter x="-19.5%" y="-19.0%" width="139.0%" height="147.6%" filterUnits="objectBoundingBox" id="filter-4">
            <feOffset dx="0" dy="2" in="SourceAlpha" result="shadowOffsetOuter1"></feOffset>
            <feGaussianBlur stdDeviation="3" in="shadowOffsetOuter1" result="shadowBlurOuter1"></feGaussianBlur>
            <feColorMatrix values="0 0 0 0 0.0916598699   0 0 0 0 0.0864774653   0 0 0 0 0.403730752  0 0 0 0.215062281 0" type="matrix" in="shadowBlurOuter1"></feColorMatrix>
        </filter>
    </defs>
    <g id="Page-1" stroke="none" stroke-width="1" fill="none" fill-rule="evenodd">
        <g id="class" transform="translate(-508.000000, -1566.000000)" fill-rule="nonzero">
            <g id="path" transform="translate(100.000000, 1354.000000)">
                <g id="wechat" transform="translate(312.000000, 165.000000)">
                    <g id="ic_WeChat1" transform="translate(91.000000, 42.000000)">
                        <rect id="Rectangle" fill="#000000" opacity="0" x="0" y="0" width="84" height="84"></rect>
                        <path d="M41.75,78.5 C21.4535354,78.5 5,62.0464646 5,41.75 C5,21.4535354 21.4535354,5 41.75,5 C62.0464646,5 78.5,21.4535354 78.5,41.75 C78.5,62.0464646 62.0464646,78.5 41.75,78.5 Z" id="Path" fill="url(#linearGradient-1)"></path>
                        <g id="Shape">
                            <use fill="black" fill-opacity="1" filter="url(#filter-4)" xlink:href="#path-3"></use>
                            <use fill="url(#linearGradient-2)" xlink:href="#path-3"></use>
                        </g>
                    </g>
                </g>
            </g>
        </g>
    </g>
</svg>